<svg width="960" height="573" viewBox="0 0 960 573" fill="none" xmlns="http://www.w3.org/2000/svg">
<mask id="mask0_16_131" style="mask-type:alpha" maskUnits="userSpaceOnUse" x="0" y="0" width="960" height="573">
<rect width="960" height="573" fill="url(#paint0_radial_16_131)"/>
</mask>
<g mask="url(#mask0_16_131)">
<rect x="123.5" y="9.5" width="79" height="79" stroke="#337185"/>
<rect x="202.5" y="9.5" width="79" height="79" stroke="#337185"/>
<rect x="281.5" y="9.5" width="79" height="79" stroke="#337185"/>
<rect x="360.5" y="9.5" width="79" height="79" stroke="#337185"/>
<rect x="439.5" y="9.5" width="79" height="79" stroke="#337185"/>
<rect x="518.5" y="9.5" width="79" height="79" stroke="#337185"/>
<rect x="597.5" y="9.5" width="79" height="79" fill="white" fill-opacity="0.25" stroke="#337185"/>
<rect x="676.5" y="9.5" width="79" height="79" stroke="#337185"/>
<rect x="755.5" y="9.5" width="79" height="79" stroke="#337185"/>
<rect x="123.5" y="88.5" width="79" height="79" stroke="#337185"/>
<rect x="202.5" y="88.5" width="79" height="79" stroke="#337185"/>
<rect x="281.5" y="88.5" width="79" height="79" stroke="#337185"/>
<rect x="360.5" y="88.5" width="79" height="79" stroke="#337185"/>
<rect x="439.5" y="88.5" width="79" height="79" stroke="#337185"/>
<rect x="518.5" y="88.5" width="79" height="79" stroke="#337185"/>
<rect x="597.5" y="88.5" width="79" height="79" stroke="#337185"/>
<rect x="676.5" y="88.5" width="79" height="79" stroke="#337185"/>
<rect x="755.5" y="88.5" width="79" height="79" stroke="#337185"/>
<rect x="123.5" y="167.5" width="79" height="79" stroke="#337185"/>
<rect x="202.5" y="167.5" width="79" height="79" stroke="#337185"/>
<rect x="281.5" y="167.5" width="79" height="79" stroke="#337185"/>
<rect x="360.5" y="167.5" width="79" height="79" stroke="#337185"/>
<rect x="439.5" y="167.5" width="79" height="79" fill="white" fill-opacity="0.25" stroke="#337185"/>
<rect x="518.5" y="167.5" width="79" height="79" stroke="#337185"/>
<rect x="597.5" y="167.5" width="79" height="79" fill="white" fill-opacity="0.25" stroke="#337185"/>
<rect x="676.5" y="167.5" width="79" height="79" stroke="#337185"/>
<rect x="755.5" y="167.5" width="79" height="79" stroke="#337185"/>
<rect x="123.5" y="246.5" width="79" height="79" stroke="#337185"/>
<rect x="202.5" y="246.5" width="79" height="79" stroke="#337185"/>
<rect x="281.5" y="246.5" width="79" height="79" stroke="#337185"/>
<rect x="360.5" y="246.5" width="79" height="79" stroke="#337185"/>
<rect x="439.5" y="246.5" width="79" height="79" stroke="#337185"/>
<rect x="518.5" y="246.5" width="79" height="79" stroke="#337185"/>
<rect x="597.5" y="246.5" width="79" height="79" stroke="#337185"/>
<rect x="676.5" y="246.5" width="79" height="79" stroke="#337185"/>
<rect x="755.5" y="246.5" width="79" height="79" stroke="#337185"/>
<rect x="123.5" y="325.5" width="79" height="79" stroke="#337185"/>
<rect x="202.5" y="325.5" width="79" height="79" stroke="#337185"/>
<rect x="281.5" y="325.5" width="79" height="79" stroke="#337185"/>
<rect x="360.5" y="325.5" width="79" height="79" fill="white" fill-opacity="0.25" stroke="#337185"/>
<rect x="439.5" y="325.5" width="79" height="79" stroke="#337185"/>
<rect x="518.5" y="325.5" width="79" height="79" stroke="#337185"/>
<rect x="597.5" y="325.5" width="79" height="79" stroke="#337185"/>
<rect x="676.5" y="325.5" width="79" height="79" stroke="#337185"/>
<rect x="755.5" y="325.5" width="79" height="79" stroke="#337185"/>
<rect x="123.5" y="404.5" width="79" height="79" stroke="#337185"/>
<rect x="202.5" y="404.5" width="79" height="79" stroke="#337185"/>
<rect x="281.5" y="404.5" width="79" height="79" stroke="#337185"/>
<rect x="360.5" y="404.5" width="79" height="79" stroke="#337185"/>
<rect x="439.5" y="404.5" width="79" height="79" stroke="#337185"/>
<rect x="518.5" y="404.5" width="79" height="79" stroke="#337185"/>
<rect x="597.5" y="404.5" width="79" height="79" stroke="#337185"/>
<rect x="676.5" y="404.5" width="79" height="79" stroke="#337185"/>
<rect x="755.5" y="404.5" width="79" height="79" stroke="#337185"/>
<rect x="123.5" y="483.5" width="79" height="79" stroke="#337185"/>
<rect x="202.5" y="483.5" width="79" height="79" stroke="#337185"/>
<rect x="281.5" y="483.5" width="79" height="79" stroke="#337185"/>
<rect x="360.5" y="483.5" width="79" height="79" stroke="#337185"/>
<rect x="439.5" y="483.5" width="79" height="79" stroke="#337185"/>
<rect x="518.5" y="483.5" width="79" height="79" stroke="#337185"/>
<rect x="597.5" y="483.5" width="79" height="79" stroke="#337185"/>
<rect x="676.5" y="483.5" width="79" height="79" stroke="#337185"/>
<rect x="755.5" y="483.5" width="79" height="79" stroke="#337185"/>
</g>
<defs>
<radialGradient id="paint0_radial_16_131" cx="0" cy="0" r="1" gradientUnits="userSpaceOnUse" gradientTransform="translate(480 286.5) rotate(90) scale(353.19 591.732)">
<stop stop-color="#C83E3E" stop-opacity="0.2"/>
<stop offset="0.677083" stop-color="#D9D9D9" stop-opacity="0"/>
</radialGradient>
</defs>
</svg>
