<svg width="707" height="707" viewBox="0 0 707 707" fill="none" xmlns="http://www.w3.org/2000/svg">
<rect width="707" height="707" fill="#00B2FF"/>
<path d="M352.973 338.243C400.813 338.243 439.595 299.462 439.595 251.622C439.595 203.782 400.813 165 352.973 165C305.133 165 266.351 203.782 266.351 251.622C266.351 299.462 305.133 338.243 352.973 338.243Z" fill="white"/>
<path d="M268.253 372.876H437.693C447.585 372.876 457.38 374.825 466.518 378.611C475.656 382.397 483.959 387.947 490.953 394.942C497.946 401.938 503.492 410.243 507.275 419.383C511.058 428.523 513.004 438.318 513 448.21V506.2C513 515.858 509.164 525.119 502.335 531.948C495.506 538.777 486.245 542.613 476.587 542.613H229.413C219.755 542.613 210.494 538.777 203.665 531.948C196.836 525.119 193 515.858 193 506.2V448.21C192.993 428.242 200.916 409.088 215.028 394.961C229.14 380.834 248.285 372.89 268.253 372.876Z" fill="white"/>
</svg>
