<svg xmlns="http://www.w3.org/2000/svg" viewBox="0 0 442.26 472.34"><defs><style>.cls-1{fill:#dbf4ff;}.cls-2{fill:#00b2ff;}</style></defs><g id="Layer_2" data-name="Layer 2"><g id="Layer_1-2" data-name="Layer 1"><rect class="cls-1" width="442.26" height="472.34" rx="136.11"/><path class="cls-2" d="M175.21,68.5H365.55a0,0,0,0,1,0,0v0A98.49,98.49,0,0,1,267.06,167H76.72a0,0,0,0,1,0,0v0A98.49,98.49,0,0,1,175.21,68.5Z"/><path class="cls-2" d="M175.21,186.92H365.55a0,0,0,0,1,0,0v0a98.49,98.49,0,0,1-98.49,98.49H76.72a0,0,0,0,1,0,0v0A98.49,98.49,0,0,1,175.21,186.92Z"/><path class="cls-2" d="M175.21,305.35H365.55a0,0,0,0,1,0,0v0a98.49,98.49,0,0,1-98.49,98.49H76.72a0,0,0,0,1,0,0v0a98.49,98.49,0,0,1,98.49-98.49Z"/></g></g></svg>