<svg xmlns="http://www.w3.org/2000/svg" viewBox="0 0 437.08 352.76"><defs><style>.cls-1{fill:#f5f5f5;}.cls-2{fill:#e0e0e0;}.cls-3{fill:#ebebeb;}.cls-4{fill:#00b2ff;}.cls-5{fill:#263238;}.cls-6{fill:#455a64;}.cls-7{fill:#fafafa;}.cls-8{fill:#fff;}</style></defs><g id="Layer_2" data-name="Layer 2"><g id="Background_Complete" data-name="Background Complete"><path class="cls-1" d="M165.37,11.43l.3,5.56a4.82,4.82,0,1,1,.39,7.31l.3,5.57a4.74,4.74,0,0,1,3-1.32,4.82,4.82,0,1,1-2.63,8.63l.3,5.57a4.74,4.74,0,0,1,3-1.32,4.82,4.82,0,1,1-2.63,8.63l.3,5.57a4.74,4.74,0,0,1,3-1.32,4.82,4.82,0,1,1-2.63,8.63l.3,5.57a4.68,4.68,0,0,1,3-1.31,4.81,4.81,0,1,1-2.63,8.62l.29,5.57a4.73,4.73,0,0,1,3-1.31,4.81,4.81,0,0,1,.51,9.61,4.69,4.69,0,0,1-3.14-1l.18,3.46L318,84.22,313.7,3.5Z"/><path class="cls-2" d="M314.55,19.47c0,.14-33.19,2-74.14,4.23s-74.18,3.85-74.18,3.71,33.18-2,74.15-4.23S314.54,19.33,314.55,19.47Z"/><path class="cls-2" d="M315.24,32.39c0,.14-33.19,2-74.14,4.22s-74.18,3.86-74.18,3.71,33.18-2,74.15-4.23S315.23,32.24,315.24,32.39Z"/><path class="cls-2" d="M315.93,45.3c0,.15-33.19,2-74.14,4.23s-74.17,3.85-74.18,3.71,33.18-2,74.15-4.23S315.92,45.16,315.93,45.3Z"/><path class="cls-2" d="M316.62,58.22c0,.14-33.19,2-74.14,4.22s-74.17,3.86-74.18,3.71,33.18-2,74.15-4.23S316.62,58.07,316.62,58.22Z"/><path class="cls-2" d="M317.31,71.13c0,.15-33.19,2-74.14,4.23S169,79.21,169,79.07s33.19-2,74.15-4.23S317.31,71,317.31,71.13Z"/><rect class="cls-2" x="187.9" y="10.27" width="0.5" height="80.84" transform="translate(-2.44 10.13) rotate(-3.06)"/><path class="cls-2" d="M203.75,90.34c-.14,0-1.23-18.06-2.42-40.35s-2-40.37-1.9-40.38,1.23,18.06,2.42,40.35S203.89,90.33,203.75,90.34Z"/><path class="cls-2" d="M177.34,91.75c-.14,0-1.22-18.06-2.41-40.35S172.88,11,173,11s1.22,18.06,2.42,40.36S177.49,91.74,177.34,91.75Z"/><path class="cls-2" d="M218.21,89.56c-.14,0-1.23-18.06-2.42-40.34s-2-40.37-1.9-40.38,1.23,18.05,2.42,40.35S218.35,89.56,218.21,89.56Z"/><path class="cls-2" d="M232.67,88.79c-.14,0-1.22-18.06-2.42-40.35s-2-40.37-1.9-40.38,1.23,18.06,2.42,40.35S232.82,88.78,232.67,88.79Z"/><path class="cls-2" d="M247.13,88c-.14,0-1.22-18.06-2.42-40.35s-2-40.37-1.9-40.38,1.23,18.05,2.42,40.35S247.28,88,247.13,88Z"/><path class="cls-2" d="M261.59,87.24c-.14,0-1.22-18.06-2.42-40.35s-2-40.37-1.89-40.37,1.22,18.05,2.42,40.35S261.74,87.23,261.59,87.24Z"/><path class="cls-2" d="M276.06,86.47c-.15,0-1.23-18.06-2.42-40.35s-2.05-40.37-1.9-40.38S273,23.8,274.16,46.09,276.2,86.46,276.06,86.47Z"/><path class="cls-2" d="M290.52,85.69c-.15,0-1.23-18-2.42-40.34S286.05,5,286.2,5s1.22,18.05,2.42,40.35S290.66,85.69,290.52,85.69Z"/><path class="cls-2" d="M305,84.92c-.15,0-1.23-18.06-2.42-40.35s-2-40.37-1.9-40.38,1.23,18.06,2.42,40.36S305.12,84.91,305,84.92Z"/><path class="cls-2" d="M182,19.9c.66,3.21,2.05,6.46,4.74,8.32a8.74,8.74,0,0,0,10.36-.56,8.74,8.74,0,0,0,2.07-10.16,8.74,8.74,0,0,0-9.31-4.57"/><circle class="cls-3" cx="188.36" cy="19.51" r="6.75" transform="translate(8.2 77.85) rotate(-23.86)"/><path class="cls-3" d="M177.74,17.38a4.05,4.05,0,1,0,3.83-4.26A4.06,4.06,0,0,0,177.74,17.38Z"/><path class="cls-2" d="M181.51,21.13c0-.1.62,0,1.51-.23a3.91,3.91,0,0,0,2.52-2.33,4.21,4.21,0,0,0-.41-3.44,13.69,13.69,0,0,0-1-1.19s.65.17,1.26,1a4.22,4.22,0,0,1,.6,3.81,4,4,0,0,1-2.92,2.52A2.17,2.17,0,0,1,181.51,21.13Z"/><path class="cls-2" d="M184.9,14.68a8.39,8.39,0,0,0,2.36,0c1.26-.28,2-1.16,2.1-1.06s-.05.32-.38.67a3.25,3.25,0,0,1-1.61.9,3.21,3.21,0,0,1-1.84-.11C185.09,15,184.87,14.74,184.9,14.68Z"/><path class="cls-2" d="M186,24.94a7.79,7.79,0,0,0-1.46-2.44A7.73,7.73,0,0,0,182,21.19c0-.07.35-.15.91-.06a3.82,3.82,0,0,1,2,1A3.89,3.89,0,0,1,186,24C186.07,24.59,186,24.94,186,24.94Z"/><path class="cls-2" d="M296,15.14c.65,3.21,2,6.46,4.74,8.31a8.71,8.71,0,0,0,10.35-.56,8.72,8.72,0,0,0,2.07-10.15,8.72,8.72,0,0,0-9.3-4.57"/><circle class="cls-3" cx="302.51" cy="13.66" r="6.52" transform="translate(188.93 294.37) rotate(-70.56)"/><path class="cls-3" d="M312.49,10.51a3.92,3.92,0,1,1-4.12-3.7A3.91,3.91,0,0,1,312.49,10.51Z"/><path class="cls-2" d="M309.25,14.5a2.06,2.06,0,0,1-1.52.3,3.87,3.87,0,0,1-3.07-2.12A4.07,4.07,0,0,1,304.84,9c.51-.86,1.09-1.13,1.12-1.08a13,13,0,0,0-.79,1.25,4,4,0,0,0,0,3.33,3.72,3.72,0,0,0,2.65,2C308.66,14.6,309.23,14.41,309.25,14.5Z"/><path class="cls-2" d="M305.33,8.66c0,.06-.15.28-.56.49a3.17,3.17,0,0,1-1.76.3,3.08,3.08,0,0,1-1.64-.71c-.35-.3-.47-.56-.42-.6a9.15,9.15,0,0,0,2.12.79A8.88,8.88,0,0,0,305.33,8.66Z"/><path class="cls-2" d="M305.38,18.62c-.06,0-.16-.33-.1-.87a3.73,3.73,0,0,1,2.65-3.11c.53-.14.88-.1.88,0a7.61,7.61,0,0,0-2.27,1.52A7.9,7.9,0,0,0,305.38,18.62Z"/><rect class="cls-1" x="306.68" y="62.77" width="128.84" height="42.76" transform="translate(8.28 -30.57) rotate(4.77)"/><path class="cls-2" d="M419,81c0,.14-21.53-1.53-48.06-3.75s-48-4.12-48-4.27S344.47,74.5,371,76.71,419,80.84,419,81Z"/><path class="cls-2" d="M418.78,92.11c0,.14-21.54-1.54-48.07-3.75s-48-4.13-48-4.27,21.53,1.53,48.07,3.75S418.79,92,418.78,92.11Z"/><polygon class="cls-2" points="346.74 54.55 396.49 58.7 393.87 60.92 397.28 63.89 393.22 65.75 396.86 68.97 344.71 64.62 347.97 61.87 346.35 58.92 349.15 57.5 346.74 54.55"/><path class="cls-1" d="M70.22,83.42q-.3,4.58-.58,8.94l8.76.55q.27-4.35.57-8.9Z"/><path class="cls-1" d="M51.62,82.14c-.2,3.1-.4,6.12-.6,9.08l8.57.52q.28-4.41.58-9Z"/><path class="cls-1" d="M151.76,106.67l3.21.22.63-8.37-3.28-.2C152.13,101.17,152,104,151.76,106.67Z"/><path class="cls-1" d="M143.24,97.76c-.19,2.83-.37,5.6-.55,8.29l8.43.57c.17-2.7.34-5.49.53-8.34Z"/><path class="cls-1" d="M88.83,84.66c-.2,3-.39,6-.59,8.88l9,.57c.19-2.89.37-5.84.57-8.86Z"/><path class="cls-1" d="M117.26,86.52c-.2,3-.39,6-.58,8.86l8.11.53q.27-4.34.56-8.87Z"/><path class="cls-1" d="M79.66,84.05q-.3,4.55-.59,8.9l8.5.54c.19-2.89.37-5.85.57-8.87Z"/><path class="cls-1" d="M107.43,85.88c-.19,3-.39,6-.58,8.85l.32,0,8.83.58q.28-4.33.57-8.86Z"/><path class="cls-1" d="M134.47,97.21c-.18,2.82-.37,5.57-.54,8.25L142,106c.17-2.69.35-5.46.53-8.29Z"/><path class="cls-1" d="M98.46,85.3q-.3,4.52-.58,8.85l8.3.54q.27-4.34.56-8.85Z"/><path class="cls-1" d="M51,91.69c-.19,2.88-.37,5.7-.56,8.43l8.6.52c.17-2.7.35-5.5.53-8.36Z"/><path class="cls-1" d="M60.23,92.33c-.19,2.85-.37,5.65-.55,8.35l8.72.54q.25-4,.52-8.3Z"/><path class="cls-1" d="M126,87.08q-.3,4.53-.58,8.87l8.38.56q.28-4.35.57-8.9Z"/><path class="cls-1" d="M151.11,116.37l3.13.21.69-9.16-3.2-.2Q151.42,112,151.11,116.37Z"/><path class="cls-1" d="M142.65,106.66c-.21,3.14-.41,6.18-.61,9.09l8.47.57q.27-4.38.57-9.14Z"/><path class="cls-1" d="M69.6,93c-.19,2.83-.38,5.61-.56,8.29l8.8.56c.16-2.68.34-5.44.52-8.26Z"/><path class="cls-1" d="M97.83,94.85q-.28,4.2-.54,8.21l8.33.54c.16-2.66.34-5.41.51-8.21Z"/><path class="cls-1" d="M107.13,95.45l-.32,0q-.28,4.21-.55,8.21l9.18.6q.25-4,.52-8.22Z"/><path class="cls-1" d="M116.63,96.07c-.18,2.8-.36,5.55-.54,8.21l8.13.54c.17-2.67.34-5.42.52-8.23Z"/><path class="cls-1" d="M88.2,94.21c-.19,2.81-.37,5.56-.55,8.23l9,.58q.26-4,.52-8.22Z"/><path class="cls-1" d="M79,93.6c-.19,2.82-.37,5.58-.55,8.26l8.53.54c.17-2.67.34-5.42.52-8.23Z"/><path class="cls-1" d="M125.41,96.63c-.18,2.81-.37,5.56-.54,8.23l8.41.56q.25-4,.52-8.26Z"/><path class="cls-1" d="M60.86,82.78q-.3,4.6-.59,9l8.69.54q.29-4.38.57-8.95Z"/><path class="cls-1" d="M135.69,78.6c-.18,2.84-.37,5.65-.55,8.41l8.08.54c.17-2.77.36-5.59.54-8.44Z"/><path class="cls-1" d="M80.16,65.55,71.42,65Q71.19,68.46,71,72c0,.57-.07,1.14-.11,1.72l8.74.54.09-1.41Q79.92,69.17,80.16,65.55Z"/><path class="cls-1" d="M61.36,64.28l-8.54-.6c-.15,2.36-.31,4.74-.46,7.15l-.12,1.79,8.55.51c0-.55.07-1.1.1-1.65Q61.13,67.83,61.36,64.28Z"/><path class="cls-1" d="M153,88.21l3.37.23.64-8.51-3.45-.22Q153.26,84,153,88.21Z"/><path class="cls-1" d="M89.33,66.16l-8.47-.57q-.24,3.63-.48,7.35l-.09,1.41,8.47.54c0-.57.08-1.13.11-1.69C89,70.82,89.18,68.48,89.33,66.16Z"/><path class="cls-1" d="M144.46,79.15c-.19,2.86-.37,5.67-.55,8.45l8.38.57q.27-4.19.55-8.5Z"/><path class="cls-1" d="M70.73,64.91l-8.67-.59c-.16,2.37-.31,4.77-.47,7.21,0,.55-.07,1.1-.11,1.65l8.68.53c0-.57.07-1.14.11-1.72C70.42,69.6,70.57,67.25,70.73,64.91Z"/><path class="cls-1" d="M133.88,106.11q-.31,4.69-.6,9l8.16.55q.27-4.38.56-9.09Z"/><path class="cls-1" d="M126.54,68.58l-8.08-.52c-.17,2.53-.33,5.1-.5,7.69l-.06,1,8.08.53c0-.56.07-1.12.11-1.69C126.24,73.24,126.39,70.89,126.54,68.58Z"/><path class="cls-1" d="M107.94,67.38l-8.28-.54q-.24,3.7-.49,7.5c0,.41,0,.81-.08,1.21l8.28.53c0-.56.07-1.11.11-1.68C107.63,72,107.79,69.69,107.94,67.38Z"/><path class="cls-1" d="M117.76,68l-9.13-.6q-.22,3.48-.45,7c0,.56-.07,1.12-.11,1.68l.31,0,8.82.57.06-1Q117.52,71.81,117.76,68Z"/><path class="cls-1" d="M99,66.79,90,66.2q-.23,3.48-.46,7c0,.57-.07,1.13-.11,1.69l8.94.57c0-.4,0-.8.07-1.2C98.64,71.77,98.8,69.26,99,66.79Z"/><path class="cls-1" d="M99.05,76.24q-.28,4.24-.55,8.36l8.29.54q.25-4.11.54-8.36Z"/><path class="cls-1" d="M70.81,74.36c-.18,2.86-.37,5.68-.55,8.45l8.75.55c.18-2.76.36-5.57.54-8.41Z"/><path class="cls-1" d="M126.63,78c-.18,2.83-.37,5.63-.54,8.37l8.36.56q.27-4.14.54-8.4Z"/><path class="cls-1" d="M52.21,73.08c-.19,2.91-.37,5.77-.56,8.59l8.55.52c.18-2.79.37-5.63.55-8.52Z"/><path class="cls-1" d="M152.36,97.76l3.28.23.67-9-3.36-.2Q152.65,93.36,152.36,97.76Z"/><path class="cls-1" d="M143.87,88.2q-.3,4.58-.59,8.94l8.4.58c.19-2.93.38-5.94.57-9Z"/><path class="cls-1" d="M61.45,73.72c-.19,2.88-.37,5.72-.56,8.51l8.68.54q.27-4.17.55-8.46Z"/><path class="cls-1" d="M80.25,75q-.28,4.26-.55,8.4l8.48.54c.18-2.75.36-5.55.54-8.38Z"/><path class="cls-1" d="M108.33,76.85l-.31,0c-.18,2.82-.36,5.61-.54,8.35l9.13.6q.27-4.11.54-8.36Z"/><path class="cls-1" d="M117.85,77.46c-.18,2.83-.37,5.62-.54,8.36l8.08.54c.18-2.75.36-5.55.54-8.38Z"/><path class="cls-1" d="M135.1,87.65q-.3,4.55-.58,8.91l8.09.54c.18-2.91.37-5.9.57-8.94Z"/><path class="cls-1" d="M89.42,75.61c-.19,2.83-.37,5.63-.55,8.37l8.94.58q.27-4.12.54-8.37Z"/><path class="cls-1" d="M68.35,111.57c-.19,2.85-.38,5.57-.55,8.15l8.89.55q.24-3.85.5-8.1Z"/><path class="cls-1" d="M49.15,119.05c-.23,3.39-.45,6.53-.65,9.38l8.79.53c.17-2.83.36-5.94.56-9.31Z"/><path class="cls-1" d="M58.39,119.69c-.23,3.36-.45,6.47-.64,9.3l8.91.55c.17-2.81.36-5.91.56-9.25Z"/><path class="cls-1" d="M149.16,144.48l3,.21.68-9-3-.18C149.56,138.94,149.35,142,149.16,144.48Z"/><path class="cls-1" d="M132,134.41c-.23,3.38-.45,6.36-.63,8.87l8.43.56c.14-2.52.32-5.52.52-8.9Z"/><path class="cls-1" d="M140.72,135c-.24,3.39-.45,6.38-.63,8.91l8.73.59c.15-2.54.32-5.55.52-9Z"/><path class="cls-1" d="M104.33,122.75,96,122.2c-.22,3.31-.44,6.36-.63,9.16l8.52.55c.17-2.79.35-5.85.55-9.16Z"/><path class="cls-1" d="M122.89,133.84c-.24,3.41-.45,6.37-.64,8.84l8.74.58c.14-2.51.31-5.5.51-8.88Z"/><path class="cls-1" d="M105,122.79c-.23,3.3-.44,6.36-.64,9.15l.42,0,9,.58c.17-2.8.35-5.86.55-9.16Z"/><path class="cls-1" d="M67.76,120.33c-.23,3.34-.45,6.43-.65,9.24l9,.56q.25-4.22.55-9.21Z"/><path class="cls-1" d="M124.82,105.53q-.31,4.69-.6,9l8.45.56q.27-4.35.57-9.05Z"/><path class="cls-1" d="M77.19,121q-.34,5-.64,9.2l8.72.55c.17-2.79.35-5.86.55-9.18Z"/><path class="cls-1" d="M85.68,131.42c-.24,3.41-.46,6.37-.64,8.84l9.31.6c.14-2.49.31-5.46.51-8.84Z"/><path class="cls-1" d="M48.47,128.89c-.25,3.51-.46,6.54-.65,9.06l8.92.54c.14-2.51.32-5.52.52-9Z"/><path class="cls-1" d="M162.34,8.69l-2.58-.19a6.63,6.63,0,0,1-1,7.46l3.05.21Z"/><path class="cls-1" d="M57.71,129.53c-.25,3.47-.46,6.47-.65,9l9,.56c.14-2.49.31-5.48.52-8.93Z"/><path class="cls-1" d="M50.19,3.72A6.64,6.64,0,0,1,51.39.37L46.5,0l-.65,8.73,6.46.38A6.7,6.7,0,0,1,50.19,3.72Z"/><path class="cls-1" d="M114.11,133.27c-.24,3.37-.45,6.34-.63,8.83l8.46.56c.13-2.48.3-5.44.51-8.85Z"/><path class="cls-1" d="M135.6,69.15l-8.36-.53q-.22,3.48-.45,7c0,.57-.08,1.13-.11,1.7l8.36.55c0-.28,0-.57.05-.85C135.26,74.38,135.44,71.75,135.6,69.15Z"/><path class="cls-1" d="M95.31,132.05c-.24,3.38-.45,6.34-.63,8.83l8.65.56c.14-2.47.31-5.43.51-8.83Z"/><path class="cls-1" d="M67.07,130.17c-.24,3.45-.46,6.43-.64,8.92l9.12.57c.14-2.49.31-5.47.51-8.88Z"/><path class="cls-1" d="M104.71,132.67l-.43,0c-.24,3.4-.45,6.35-.63,8.82l1.17.07,8.33.55c.14-2.5.31-5.47.51-8.83Z"/><path class="cls-1" d="M114.79,123.42q-.33,5-.63,9.16l8.33.55c.16-2.79.35-5.86.55-9.18Z"/><path class="cls-1" d="M76.51,130.81c-.24,3.41-.46,6.38-.64,8.87l8.85.56c.14-2.47.31-5.44.51-8.85Z"/><path class="cls-1" d="M86.36,121.57c-.23,3.31-.44,6.38-.64,9.17l9.18.59q.25-4.2.55-9.16Z"/><path class="cls-1" d="M59.64,101.24c-.21,3.16-.42,6.22-.62,9.15l8.77.54c.19-2.91.37-6,.57-9.1Z"/><path class="cls-1" d="M50.4,100.6c-.21,3.19-.42,6.28-.62,9.23l8.65.52c.18-2.93.37-6,.57-9.16Z"/><path class="cls-1" d="M69,101.87c-.21,3.15-.41,6.19-.61,9.1l8.84.55q.27-4.35.57-9.06Z"/><path class="cls-1" d="M142,116.36c-.19,2.84-.38,5.56-.55,8.14l8.52.58q.24-3.9.51-8.19Z"/><path class="cls-1" d="M150.52,125.12l3.06.21.62-8.21-3.12-.2C150.88,119.79,150.7,122.52,150.52,125.12Z"/><path class="cls-1" d="M133.23,115.81q-.28,4.25-.55,8.1l8.22.56c.16-2.59.32-5.3.5-8.15Z"/><path class="cls-1" d="M106.21,104.34c-.2,3.11-.41,6.12-.6,9l.35,0,8.88.58q.25-4.34.56-9Z"/><path class="cls-1" d="M78.44,102.51q-.31,4.69-.61,9l8.57.54q.27-4.34.57-9Z"/><path class="cls-1" d="M116,105q-.32,4.68-.6,9l8.18.54c.18-2.89.36-5.9.56-9Z"/><path class="cls-1" d="M97.24,103.75q-.31,4.68-.61,9l8.38.54c.18-2.88.37-5.89.56-9Z"/><path class="cls-1" d="M87.61,103.12q-.31,4.68-.61,9l9,.58q.27-4.34.57-9Z"/><path class="cls-1" d="M123.57,124c-.22,3.31-.44,6.38-.63,9.17l8.6.57c.17-2.81.35-5.89.55-9.2Z"/><path class="cls-1" d="M149.84,135l3,.2.69-9.31-3.06-.19C150.25,129,150,132.13,149.84,135Z"/><path class="cls-1" d="M59,110.93c-.2,2.87-.38,5.61-.56,8.21l8.83.54q.22-3.87.5-8.15Z"/><path class="cls-1" d="M49.75,110.29c-.2,2.9-.38,5.67-.56,8.28l8.7.53q.24-3.9.5-8.21Z"/><path class="cls-1" d="M132.64,124.56q-.34,5-.64,9.2l8.3.56c.17-2.83.36-5.92.56-9.24Z"/><path class="cls-1" d="M141.4,125.11c-.22,3.33-.44,6.42-.63,9.24l8.61.59c.17-2.84.35-5.95.56-9.3Z"/><path class="cls-1" d="M105.92,114.06l-.36,0c-.19,2.81-.37,5.5-.55,8l9.29.61c.15-2.56.32-5.25.49-8.07Z"/><path class="cls-1" d="M77.79,112.21c-.19,2.83-.38,5.53-.55,8.1l8.63.55c.15-2.56.32-5.26.49-8.08Z"/><path class="cls-1" d="M115.39,114.67c-.19,2.82-.37,5.5-.55,8.06l8.24.55c.15-2.56.32-5.26.5-8.08Z"/><path class="cls-1" d="M124.17,115.24c-.19,2.82-.38,5.52-.55,8.07l8.51.57c.16-2.57.33-5.28.5-8.11Z"/><path class="cls-1" d="M87,112.82c-.19,2.82-.38,5.52-.55,8.07l9.09.58c.15-2.55.32-5.24.49-8.06Z"/><path class="cls-1" d="M96.59,113.45c-.19,2.82-.38,5.5-.55,8.06l8.34.54h.09c.16-2.56.32-5.25.5-8.06Z"/><path class="cls-1" d="M55.72,17.25c-.16,2.8-.35,5.83-.55,9.05l8.68.52q.33-4.79.62-9Z"/><path class="cls-1" d="M102.86,15.36a6.37,6.37,0,0,1,.76,0,8.58,8.58,0,0,1,2.22.35,10.65,10.65,0,0,1,5.51.88c.06-.78.11-1.53.16-2.25a7.53,7.53,0,0,1-1.14-.88L103,13C103,13.73,102.91,14.53,102.86,15.36Z"/><path class="cls-1" d="M101.42,39q-.27,4.18-.55,8.67l8.33.54c.2-3,.39-5.87.58-8.66Z"/><path class="cls-1" d="M116.23,20.6l4.69.31c.17-2.44.33-4.7.48-6.76L119,14a6.69,6.69,0,0,1-7,.58c0,.71-.09,1.43-.13,2.18A11.37,11.37,0,0,1,116.23,20.6Z"/><path class="cls-1" d="M109.69,12.7a6.65,6.65,0,0,1-.22-8l-6-.45c-.11,2.1-.26,4.78-.45,8Z"/><path class="cls-1" d="M91.79,38.39q-.27,4.2-.55,8.68l9,.58q.3-4.49.58-8.67Z"/><path class="cls-1" d="M63.82,36.51q-.27,4.25-.55,8.81l8.71.54q.3-4.53.59-8.76Z"/><path class="cls-1" d="M95.33,15.16a5.18,5.18,0,0,1,3.32,1.32.72.72,0,0,1,.27.13,8.48,8.48,0,0,1,3.5-1.2c.06-.86.12-1.68.17-2.48l-3.24-.21a6.68,6.68,0,0,1-4.22,1.13,6.54,6.54,0,0,1-1.82-.43c0,.7-.09,1.42-.13,2.17A5.16,5.16,0,0,1,95.33,15.16Z"/><path class="cls-1" d="M73.18,37.14q-.25,4.23-.54,8.76l8.78.55c.2-3,.39-5.91.58-8.71Z"/><path class="cls-1" d="M82.62,37.78c-.18,2.8-.36,5.71-.55,8.71l8.52.54q.3-4.48.58-8.68Z"/><path class="cls-1" d="M121.4,20.94l8.3.55c.15-2.22.3-4.3.43-6.21-.22-.19-.42-.4-.62-.61l-7.71-.49C121.68,16.24,121.55,18.5,121.4,20.94Z"/><path class="cls-1" d="M129,40.81q-.25,4.2-.54,8.68l8.4.56c.2-3,.4-5.91.59-8.7Z"/><path class="cls-1" d="M148.05,15.23V15.1a6.66,6.66,0,0,1,.14-7.47l-7.8-.58a6.71,6.71,0,0,1-.69,7.07l0,.55Z"/><path class="cls-1" d="M138.76,22.09q.26-3.69.48-6.8l-.64,0a6.66,6.66,0,0,1-4.74,1.5,6.54,6.54,0,0,1-3.32-1.2c-.11,1.85-.23,3.85-.36,6Z"/><path class="cls-1" d="M139.29,14.59l0,.05h0Z"/><path class="cls-1" d="M122,5.67l-1-.08a6.68,6.68,0,0,1-1.32,7.76l1.73.11C121.67,10.34,121.86,7.73,122,5.67Z"/><path class="cls-1" d="M54.58,35.87c-.18,2.86-.36,5.82-.56,8.89,2.65.15,5.52.33,8.59.52q.3-4.56.59-8.82Z"/><path class="cls-1" d="M110.75,39.63l-.36,0q-.26,4.19-.54,8.66h.06l9.11.6c.2-3,.4-5.88.58-8.66Z"/><path class="cls-1" d="M128.91,14a6.65,6.65,0,0,1-.07-7.77l-6.56-.49c-.11,2.06-.26,4.68-.44,7.8Z"/><path class="cls-1" d="M120.22,40.25c-.17,2.78-.36,5.68-.54,8.66l8.12.54q.3-4.48.58-8.68Z"/><path class="cls-1" d="M119.63,49.6c-.17,2.78-.35,5.64-.54,8.56l8.1.54q.28-4.39.57-8.58Z"/><path class="cls-1" d="M64.51,17.32c.17-2.49.33-4.8.48-6.91l-4.75-.33a6.68,6.68,0,0,1-3.83.86c-.11,0-.2,0-.31,0-.11,1.83-.22,3.8-.35,5.9Z"/><path class="cls-1" d="M109.87,49h-.06c-.18,2.77-.36,5.63-.54,8.55l.32,0,8.82.58c.19-2.92.38-5.78.57-8.56Z"/><path class="cls-1" d="M65.65,1.44,63,1.23a6.74,6.74,0,0,1,.69,3.49,6.74,6.74,0,0,1-2.74,4.9L65,9.87C65.27,6.48,65.48,3.64,65.65,1.44Z"/><path class="cls-1" d="M100.83,48.38c-.17,2.78-.36,5.64-.54,8.56l8.3.54c.19-2.92.38-5.78.56-8.56Z"/><path class="cls-1" d="M91.2,47.75c-.17,2.78-.36,5.65-.54,8.57l9,.58c.19-2.92.38-5.78.57-8.56Z"/><path class="cls-1" d="M48,128.86l-11.14-.8-.69,9.22,11.3.65C47.64,135.41,47.82,132.37,48,128.86Z"/><path class="cls-1" d="M71.36,10.26a6.68,6.68,0,0,1-.61-8.44l-4.84-.36c-.12,2.2-.28,5-.48,8.44Z"/><path class="cls-1" d="M83.31,18.49c.18-2.45.34-4.73.48-6.8l-4-.27a6.68,6.68,0,0,1-4,1,7.48,7.48,0,0,1-1.07-.19c-.1,1.78-.22,3.69-.34,5.72Z"/><path class="cls-1" d="M128.41,50.17c-.17,2.78-.35,5.65-.54,8.57l8.38.56q.28-4.41.57-8.6Z"/><path class="cls-1" d="M90.48,11.46a6.71,6.71,0,0,1-.37-8.19l-5.41-.4c-.12,2.15-.27,4.9-.46,8.2Z"/><path class="cls-1" d="M137.47,50.74c-.17,2.79-.35,5.67-.54,8.6l8.08.55q.3-4.44.58-8.64Z"/><path class="cls-1" d="M83.8,18.52l6.43.41a5.2,5.2,0,0,1,2.48-3.1c.06-.89.12-1.75.18-2.57a6.7,6.7,0,0,1-1.68-1.08l-7-.47C84.08,13.79,83.94,16.06,83.8,18.52Z"/><path class="cls-1" d="M146.24,51.29q-.27,4.22-.55,8.64l8.4.57c.19-3,.39-5.87.57-8.69Z"/><path class="cls-1" d="M65,17.35l8.89.55c.14-2.06.28-4,.4-5.8A6.66,6.66,0,0,1,72,10.89l-6.62-.45C65.28,12.55,65.14,14.86,65,17.35Z"/><path class="cls-1" d="M154.77,60.55l3.66.25.65-8.72-3.76-.23Q155,56.1,154.77,60.55Z"/><path class="cls-1" d="M84.44,2.85l-2.13-.16a6.7,6.7,0,0,1-1.71,8.15l3.24.2C84.07,7.75,84.28,5,84.44,2.85Z"/><path class="cls-1" d="M94.63,141.57c0,.65-.1,1.28-.14,1.86l8.69.65c0-.6.07-1.25.11-1.94Z"/><path class="cls-1" d="M131.27,143.93c-.06.8-.11,1.55-.17,2.25l8.48.63c0-.72.09-1.51.13-2.35Z"/><path class="cls-1" d="M90,20.26a3.72,3.72,0,0,1,.08-.67l-6.33-.42q-.26,4.13-.54,8.86l8.61.55c.1-1.39.19-2.73.28-4A5.19,5.19,0,0,1,90,20.26Z"/><path class="cls-1" d="M122.2,143.36c0,.77-.11,1.48-.16,2.14l8.79.66c0-.7.08-1.45.12-2.25Z"/><path class="cls-1" d="M140,144.48c-.06.85-.12,1.63-.17,2.36l8.79.66c0-.76.08-1.59.13-2.47Z"/><path class="cls-1" d="M113.43,142.79c-.05.73-.11,1.41-.15,2.05l8.5.64c0-.66.08-1.37.12-2.14Z"/><path class="cls-1" d="M104.77,142.23l-1.17-.07c-.06.69-.1,1.34-.15,1.94l9.55.72c0-.64.07-1.32.11-2Z"/><path class="cls-1" d="M73.75,28c-.17,2.71-.34,5.54-.53,8.5l8.82.55q.3-4.41.58-8.45Z"/><path class="cls-1" d="M117.27,30.22l3,.19q.32-4.71.6-8.81l-4.2-.27a8.41,8.41,0,0,1,.55,1.13A11,11,0,0,1,117.27,30.22Z"/><path class="cls-1" d="M83.18,28.68c-.16,2.69-.34,5.51-.52,8.45l8.55.54q.3-4.39.58-8.42Z"/><path class="cls-1" d="M65,17.9c-.17,2.77-.35,5.77-.54,9l8.8.54c.22-3.16.42-6.14.61-8.9Z"/><path class="cls-1" d="M155.94,32.8c.22-3.19.43-6.18.62-8.94l-8.6-.54q-.24,4.13-.53,8.9Z"/><path class="cls-1" d="M74.33,18.53c-.17,2.76-.35,5.74-.55,8.91l8.88.55c.21-3.15.42-6.11.61-8.85Z"/><path class="cls-1" d="M147.53,22.68q.25-3.72.48-6.84l-8.37-.52q-.18,3.11-.4,6.8Z"/><path class="cls-1" d="M149.12,145.05c-.07.88-.13,1.71-.19,2.47l3,.22.19-2.51Z"/><path class="cls-1" d="M82,47.14c-.18,2.79-.36,5.67-.54,8.6l8.49.54q.28-4.39.56-8.58Z"/><path class="cls-1" d="M129,31c.22-3.13.42-6.09.61-8.82l-8.29-.54q-.24,4.11-.54,8.82Z"/><path class="cls-1" d="M138.11,31.59c.21-3.15.42-6.11.61-8.85l-8.58-.54c-.16,2.74-.34,5.69-.53,8.83Z"/><path class="cls-1" d="M146.87,32.18c.22-3.17.42-6.14.61-8.89l-8.28-.52q-.24,4.13-.54,8.86Z"/><path class="cls-1" d="M55.15,26.76q-.26,4.13-.54,8.64l8.63.52q.3-4.47.58-8.55Z"/><path class="cls-1" d="M85,140.93c0,.63-.09,1.22-.13,1.78l9.35.7c0-.58.06-1.21.1-1.86Z"/><path class="cls-1" d="M146.83,41.93c-.18,2.81-.36,5.74-.55,8.75l8.42.57c.2-3,.4-6,.59-8.79Z"/><path class="cls-1" d="M147.39,32.83c-.17,2.7-.34,5.54-.53,8.49l8.47.58q.3-4.47.58-8.54Z"/><path class="cls-1" d="M138.62,32.28c-.16,2.69-.34,5.51-.52,8.45l8.15.55c.2-3,.4-5.79.58-8.48Z"/><path class="cls-1" d="M155.94,41.94l3.88.27.64-8.57-4-.24Q156.22,37.47,155.94,41.94Z"/><path class="cls-1" d="M138.06,41.38c-.17,2.8-.36,5.71-.55,8.71l8.12.55c.2-3,.39-5.94.58-8.74Z"/><path class="cls-1" d="M161.22,23.61l.52-6.92-3.51-.21a6.39,6.39,0,0,1-.78.59q-.18,2.88-.37,6.26Z"/><path class="cls-1" d="M156.5,32.84l4,.27.68-9L157,23.89C156.88,26.65,156.7,29.64,156.5,32.84Z"/><path class="cls-1" d="M129.57,31.71c-.17,2.68-.34,5.49-.53,8.42l8.45.56c.2-2.94.39-5.76.57-8.44Z"/><path class="cls-1" d="M100.24,35a13.21,13.21,0,0,1-3.86-5.47l-4-.26c-.16,2.68-.34,5.49-.52,8.42l9,.58c.06-.92.12-1.84.18-2.74C100.77,35.38,100.49,35.22,100.24,35Z"/><path class="cls-1" d="M94.89,25.65a1.47,1.47,0,0,1-.3-.13,5.09,5.09,0,0,1-2-.65c-.07,1.22-.15,2.46-.23,3.74l3.72.24c0-.13-.1-.26-.14-.39A8.55,8.55,0,0,1,94.89,25.65Z"/><path class="cls-1" d="M64.38,27.4q-.24,4.09-.53,8.56l8.76.54c.19-3,.39-5.79.57-8.5C70.1,27.8,67.16,27.6,64.38,27.4Z"/><path class="cls-1" d="M101.61,35.94c0,.79-.1,1.58-.15,2.39l8.36.54c.05-.64.09-1.26.13-1.89A11.41,11.41,0,0,1,101.61,35.94Z"/><path class="cls-1" d="M155.35,51.3l3.77.26.66-8.82-3.88-.24C155.73,45.32,155.54,48.27,155.35,51.3Z"/><path class="cls-1" d="M120.78,31.14c-.16,2.68-.34,5.48-.52,8.41l8.17.54q.3-4.4.57-8.42Z"/><path class="cls-1" d="M148,22.71l8.6.58.42-5.93a6.72,6.72,0,0,1-8.41-1.48h-.21C148.28,17.94,148.15,20.23,148,22.71Z"/><path class="cls-1" d="M117,30.9a10.64,10.64,0,0,1-3.42,4.4,10.13,10.13,0,0,1-3,1.51c0,.7-.09,1.39-.13,2.1l.36,0,8.85.57c.2-2.92.39-5.73.57-8.4Z"/><path class="cls-1" d="M103.23,4.26l-1.56-.12a6.67,6.67,0,0,1-1.49,7.94l2.46.16C102.87,9,103.07,6.36,103.23,4.26Z"/><path class="cls-1" d="M57,139.05c0,.55-.08,1.07-.11,1.56l9.08.68q0-.76.09-1.62Z"/><path class="cls-1" d="M53.41,54.47q-.27,4.29-.56,8.74l8.55.52q.29-4.41.56-8.66Z"/><path class="cls-1" d="M75.82,140.32c0,.6-.08,1.17-.12,1.7l8.89.67c0-.56.06-1.15.09-1.78Z"/><path class="cls-1" d="M154.18,69.76l3.56.24.65-8.67-3.66-.22C154.55,63.93,154.37,66.82,154.18,69.76Z"/><path class="cls-1" d="M136.89,60q-.27,4.2-.55,8.56l8.07.54q.28-4.38.56-8.59Z"/><path class="cls-1" d="M54,35.82,43.87,35.1l-.68,9,10.18.6C53.57,41.65,53.77,38.69,54,35.82Z"/><path class="cls-1" d="M55.68,10.81a6.58,6.58,0,0,1-2.87-1.25l-7-.5-.53,7.12,10,.58Z"/><path class="cls-1" d="M153.62,78.43c0,.24,0,.48-.05.73l3.46.23.67-8.86-3.56-.22Q153.89,74.32,153.62,78.43Z"/><path class="cls-1" d="M54,45.22c-.18,2.85-.37,5.79-.56,8.79l8.56.52c.2-3,.39-5.88.58-8.71Z"/><path class="cls-1" d="M127.83,59.42q-.27,4.19-.55,8.53l8.37.55c.19-2.9.37-5.75.56-8.55Z"/><path class="cls-1" d="M145.65,60.54c-.17,2.81-.36,5.68-.55,8.6l8.39.57q.28-4.41.56-8.65Z"/><path class="cls-1" d="M49.16,110.25l-10.87-.78-.64,8.43,11,.64C48.81,115.92,49,113.15,49.16,110.25Z"/><path class="cls-1" d="M49.76,100.55c-4.2-.29-7.81-.55-10.75-.77l-.7,9.38,10.87.63C49.37,106.84,49.56,103.75,49.76,100.55Z"/><path class="cls-1" d="M72,55.75c-.18,2.82-.36,5.68-.55,8.6l8.74.55q.28-4.37.56-8.56Z"/><path class="cls-1" d="M47.79,138.41c0,.53-.08,1-.12,1.51l9,.67c0-.49,0-1,.08-1.56Z"/><path class="cls-1" d="M81.44,56.39c-.17,2.8-.36,5.65-.54,8.56l8.47.53c.19-2.89.38-5.74.56-8.53Z"/><path class="cls-1" d="M62.65,55.12q-.27,4.25-.56,8.65l8.68.54c.19-2.92.37-5.79.56-8.6Z"/><path class="cls-1" d="M36.18,137.57l-.11,1.48,11.32.85c0-.48.06-1,.09-1.52Z"/><path class="cls-1" d="M48.62,119c-4.3-.3-8-.56-11-.79l-.71,9.54,11.13.64C48.22,125.55,48.41,122.41,48.62,119Z"/><path class="cls-1" d="M153.45,70.27l-8.38-.52c-.18,2.69-.35,5.42-.53,8.19,0,.2,0,.4,0,.6l8.37.57c0-.24,0-.48,0-.72C153.1,75.64,153.27,72.94,153.45,70.27Z"/><path class="cls-1" d="M100.24,57.63c-.17,2.79-.35,5.62-.54,8.52l8.28.53c.19-2.89.38-5.72.56-8.51Z"/><path class="cls-1" d="M119.05,58.85q-.27,4.18-.55,8.52l8.09.53c.19-2.9.37-5.74.56-8.53Z"/><path class="cls-1" d="M51.66,70.79c.16-2.42.31-4.8.46-7.16l-10.34-.74L41.1,72l10.44.6Z"/><path class="cls-1" d="M51.51,73c-4.09-.28-7.6-.54-10.43-.75L40.42,81c2.89.16,6.44.37,10.54.62C51.14,78.81,51.33,75.94,51.51,73Z"/><path class="cls-1" d="M90.61,57q-.26,4.19-.54,8.53L99,66.1c.18-2.89.37-5.73.55-8.51Z"/><path class="cls-1" d="M53.34,45.18l-10.17-.73-.67,8.92,10.26.6C53,51,53.15,48,53.34,45.18Z"/><path class="cls-1" d="M109.54,58.24l-.32,0q-.27,4.17-.54,8.51l9.13.59c.19-2.89.37-5.73.56-8.51Z"/><path class="cls-1" d="M72.6,46.5c-.18,2.81-.36,5.7-.55,8.65l8.76.55q.28-4.41.56-8.61Z"/><path class="cls-1" d="M144.37,69.71l-8.07-.51c-.17,2.59-.34,5.23-.51,7.89l-.06.86,8.07.54,0-.6Q144.11,73.75,144.37,69.71Z"/><path class="cls-1" d="M52.73,54.43l-10.26-.74-.66,8.88,10.34.6Q52.45,58.72,52.73,54.43Z"/><path class="cls-1" d="M63.23,45.86c-.18,2.83-.36,5.74-.55,8.71l8.69.54c.19-3,.38-5.84.57-8.65Z"/><path class="cls-1" d="M54.58,26.72c-3.89-.27-7.26-.51-10-.72l-.66,8.78,10.1.58C54.2,32.35,54.39,29.47,54.58,26.72Z"/><path class="cls-1" d="M66.39,139.69q-.08.85-.12,1.62l9.15.69c0-.53.06-1.1.09-1.7Z"/><path class="cls-1" d="M50.93,82.09,40.4,81.34l-.69,9.22,10.64.62Q50.64,86.74,50.93,82.09Z"/><path class="cls-1" d="M50.32,91.64l-10.64-.76L39,99.46l10.75.62C50,97.35,50.14,94.53,50.32,91.64Z"/><path class="cls-1" d="M55.23,17.22c-3.86-.27-7.21-.51-10-.72l-.69,9.18,10,.58C54.83,23.05,55,20,55.23,17.22Z"/><path class="cls-2" d="M52.82,63.68l-.7,0c-.15,2.36-.3,4.74-.46,7.16l-.12,1.78.7.05.12-1.79C52.51,68.42,52.67,66,52.82,63.68Z"/><path class="cls-2" d="M48.62,119c-.21,3.4-.4,6.54-.57,9.39l.45,0c.2-2.85.42-6,.65-9.38Z"/><path class="cls-2" d="M55.23,17.22c-.19,2.8-.4,5.83-.62,9l.56,0c.2-3.22.39-6.25.55-9Z"/><path class="cls-2" d="M52.73,54.43q-.28,4.29-.58,8.74l.7,0q.28-4.45.56-8.74Z"/><path class="cls-2" d="M54.58,26.72c-.19,2.75-.38,5.63-.59,8.64l.62,0q.28-4.51.54-8.64Z"/><path class="cls-2" d="M50.32,91.64c-.18,2.89-.36,5.71-.53,8.44l.64,0c.19-2.73.37-5.55.56-8.43Z"/><path class="cls-2" d="M49.76,100.55c-.2,3.2-.39,6.29-.58,9.24l.6,0c.2-3,.41-6,.62-9.23Z"/><path class="cls-2" d="M48,128.86c-.21,3.51-.39,6.55-.53,9.07l.32,0c.19-2.52.4-5.55.65-9.06Z"/><path class="cls-2" d="M50.93,82.09q-.3,4.65-.58,9.09l.67,0c.2-3,.4-6,.6-9.08Z"/><path class="cls-2" d="M47.79,138.41l-.31,0c0,.53-.06,1-.09,1.52l.28,0C47.71,139.44,47.75,138.94,47.79,138.41Z"/><path class="cls-2" d="M53.34,45.18C53.15,48,53,51,52.76,54l.68,0c.19-3,.38-5.94.56-8.79Z"/><path class="cls-2" d="M51.51,73c-.18,2.91-.37,5.78-.55,8.6l.69,0c.19-2.82.37-5.68.56-8.59Z"/><path class="cls-2" d="M49.16,110.25c-.18,2.9-.35,5.67-.51,8.29l.54,0c.18-2.61.36-5.38.56-8.28Z"/><path class="cls-2" d="M54,35.82c-.19,2.87-.39,5.83-.59,8.9l.65,0c.2-3.07.38-6,.56-8.89Z"/><path class="cls-2" d="M55.75,16.79c.13-2.1.24-4.07.35-5.9l-.42-.08-.42,6Z"/><path class="cls-2" d="M63.2,36.46q-.29,4.26-.59,8.82l.66,0q.28-4.56.55-8.81Z"/><path class="cls-2" d="M64.47,17.86q-.28,4.17-.62,9l.57,0c.19-3.19.37-6.19.54-9Z"/><path class="cls-2" d="M60.17,82.73q-.3,4.6-.58,9l.68,0q.28-4.4.59-9Z"/><path class="cls-2" d="M59,101.19c-.2,3.17-.39,6.23-.57,9.16l.59,0c.2-2.93.41-6,.62-9.15Z"/><path class="cls-2" d="M65,9.87l.4,0c.2-3.4.36-6.24.48-8.44l-.26,0C65.48,3.64,65.27,6.48,65,9.87Z"/><path class="cls-2" d="M62.58,45.82c-.19,2.83-.38,5.74-.58,8.71l.68,0c.19-3,.37-5.88.55-8.71Z"/><path class="cls-2" d="M59.56,92.28c-.18,2.86-.36,5.66-.53,8.36l.65,0c.18-2.7.36-5.5.55-8.35Z"/><path class="cls-2" d="M62.06,64.32l-.7,0q-.22,3.56-.47,7.2c0,.55-.07,1.1-.1,1.65l.69.05c0-.55.08-1.1.11-1.65C61.75,69.09,61.9,66.69,62.06,64.32Z"/><path class="cls-2" d="M65,10.41c-.15,2.11-.31,4.42-.48,6.91l.48,0c.15-2.49.29-4.8.41-6.91Z"/><path class="cls-2" d="M62,55.07q-.27,4.24-.56,8.66l.69,0q.28-4.41.56-8.65Z"/><path class="cls-2" d="M57.85,119.65c-.2,3.37-.39,6.48-.56,9.31l.46,0c.19-2.83.41-5.94.64-9.3Z"/><path class="cls-2" d="M60.75,73.67c-.18,2.89-.37,5.73-.55,8.52l.69,0c.19-2.79.37-5.63.56-8.51Z"/><path class="cls-2" d="M57.26,129.5c-.2,3.47-.38,6.48-.52,9l.32,0c.19-2.51.4-5.51.65-9Z"/><path class="cls-2" d="M57,139.05l-.31,0c0,.54-.05,1.07-.08,1.56l.28,0C56.94,140.12,57,139.6,57,139.05Z"/><path class="cls-2" d="M58.39,110.89q-.26,4.31-.5,8.21l.54,0c.18-2.6.36-5.34.56-8.21Z"/><path class="cls-2" d="M63.82,27.37q-.28,4.08-.58,8.55l.61,0q.29-4.47.53-8.56Z"/><path class="cls-2" d="M76.06,130.78c-.2,3.41-.37,6.39-.51,8.88l.32,0c.18-2.49.4-5.46.64-8.87Z"/><path class="cls-2" d="M82.62,28.64q-.28,4-.58,8.45l.62,0c.18-2.94.36-5.76.52-8.45Z"/><path class="cls-2" d="M80.76,56.34q-.27,4.2-.56,8.56l.7,0c.18-2.91.37-5.76.54-8.56Z"/><path class="cls-2" d="M79.55,75c-.18,2.84-.36,5.65-.54,8.41l.69,0q.27-4.14.55-8.4Z"/><path class="cls-2" d="M82,37.74c-.19,2.8-.38,5.71-.58,8.71l.65,0c.19-3,.37-5.91.55-8.71Z"/><path class="cls-2" d="M77.19,112.17q-.25,4.24-.5,8.1l.55,0c.17-2.57.36-5.27.55-8.1Z"/><path class="cls-2" d="M83.27,19.14c-.19,2.74-.4,5.7-.61,8.85l.56,0q.28-4.74.54-8.86Z"/><path class="cls-2" d="M76.65,120.92q-.3,5-.55,9.21l.45,0q.3-4.22.64-9.2Z"/><path class="cls-2" d="M80.86,65.59l-.7,0q-.24,3.61-.48,7.34l-.09,1.41.7,0,.09-1.41Q80.62,69.22,80.86,65.59Z"/><path class="cls-2" d="M75.82,140.32l-.31,0c0,.6-.06,1.17-.09,1.7l.28,0C75.74,141.49,75.78,140.92,75.82,140.32Z"/><path class="cls-2" d="M77.8,102.46q-.3,4.71-.57,9.06l.6,0q.3-4.35.61-9Z"/><path class="cls-2" d="M78.36,93.56c-.18,2.82-.36,5.58-.52,8.26l.64,0c.18-2.68.36-5.44.55-8.26Z"/><path class="cls-2" d="M83.84,11l.4,0c.19-3.3.34-6.05.46-8.2l-.26,0C84.28,5,84.07,7.75,83.84,11Z"/><path class="cls-2" d="M81.37,47.09q-.27,4.2-.56,8.61l.68,0c.18-2.93.36-5.81.54-8.6Z"/><path class="cls-2" d="M83.79,11.69c-.14,2.07-.3,4.35-.48,6.8l.49,0c.14-2.46.28-4.73.4-6.81Z"/><path class="cls-2" d="M79,84q-.3,4.55-.57,8.9l.67,0q.29-4.35.59-8.9Z"/><path class="cls-2" d="M94.86,132c-.2,3.38-.37,6.35-.51,8.84l.33,0c.18-2.49.39-5.45.63-8.83Z"/><path class="cls-2" d="M102.64,12.24l.4,0c.19-3.21.34-5.89.45-8l-.26,0C103.07,6.36,102.87,9,102.64,12.24Z"/><path class="cls-2" d="M97.77,85.25c-.2,3-.38,6-.57,8.86l.68,0q.28-4.34.58-8.85Z"/><path class="cls-2" d="M96,113.41c-.17,2.82-.34,5.51-.49,8.06l.54,0c.17-2.56.36-5.24.55-8.06Z"/><path class="cls-2" d="M98.35,76.19q-.27,4.25-.54,8.37l.69,0q.27-4.11.55-8.36Z"/><path class="cls-2" d="M99.56,57.59c-.18,2.78-.37,5.62-.55,8.51l.69.05c.19-2.9.37-5.73.54-8.52Z"/><path class="cls-2" d="M100.8,39q-.28,4.19-.58,8.67l.65,0q.28-4.48.55-8.67Z"/><path class="cls-2" d="M96.6,103.71q-.3,4.68-.57,9l.6,0q.3-4.33.61-9Z"/><path class="cls-2" d="M95.45,122.17q-.3,5-.55,9.16l.46,0c.19-2.8.41-5.85.63-9.16Z"/><path class="cls-2" d="M101,35.55c-.06.9-.12,1.82-.18,2.74l.61,0c.05-.81.1-1.6.15-2.39C101.41,35.82,101.23,35.68,101,35.55Z"/><path class="cls-2" d="M103,13l-.41,0c0,.8-.11,1.62-.17,2.48l.44-.05C102.91,14.53,103,13.73,103,13Z"/><path class="cls-2" d="M97.16,94.8Q96.89,99,96.64,103l.65,0q.25-4,.54-8.21Z"/><path class="cls-2" d="M99.66,66.84l-.7,0c-.16,2.47-.32,5-.49,7.51,0,.4,0,.8-.07,1.2l.69,0c0-.4.06-.8.08-1.21Q99.43,70.55,99.66,66.84Z"/><path class="cls-2" d="M94.63,141.57l-.32,0c0,.65-.07,1.28-.1,1.86l.28,0C94.53,142.85,94.58,142.22,94.63,141.57Z"/><path class="cls-2" d="M100.18,48.34c-.19,2.78-.38,5.64-.57,8.56l.68,0c.18-2.92.37-5.78.54-8.56Z"/><path class="cls-2" d="M120.22,31.11c-.18,2.67-.37,5.48-.57,8.4l.61,0c.18-2.93.36-5.73.52-8.41Z"/><path class="cls-2" d="M114.79,114.63c-.17,2.82-.34,5.51-.49,8.07l.54,0c.18-2.56.36-5.24.55-8.06Z"/><path class="cls-2" d="M119.6,40.21c-.18,2.78-.38,5.68-.58,8.66l.66,0c.18-3,.37-5.88.54-8.66Z"/><path class="cls-2" d="M113.43,142.79l-.32,0c0,.73-.08,1.41-.11,2l.28,0C113.32,144.2,113.38,143.52,113.43,142.79Z"/><path class="cls-2" d="M121.45,13.46l.39,0c.18-3.12.33-5.74.44-7.8l-.26,0C121.86,7.73,121.67,10.34,121.45,13.46Z"/><path class="cls-2" d="M119,49.56c-.19,2.78-.38,5.64-.57,8.56l.68,0c.19-2.92.37-5.78.54-8.56Z"/><path class="cls-2" d="M116,96q-.27,4.22-.52,8.22l.65,0c.18-2.66.36-5.41.54-8.21Z"/><path class="cls-2" d="M118.37,58.81c-.19,2.78-.37,5.62-.56,8.51l.69.05q.28-4.34.55-8.52Z"/><path class="cls-2" d="M121.8,14.18l-.4,0c-.15,2.06-.31,4.32-.48,6.76l.48,0C121.55,18.5,121.68,16.24,121.8,14.18Z"/><path class="cls-2" d="M115.4,104.93q-.3,4.68-.56,9l.6,0q.28-4.33.6-9Z"/><path class="cls-2" d="M120.82,30.45q.3-4.71.54-8.82l-.49,0q-.28,4.09-.6,8.81Z"/><path class="cls-2" d="M116.57,86.47q-.28,4.53-.57,8.86l.68,0c.19-2.89.38-5.85.58-8.86Z"/><path class="cls-2" d="M113.66,133.25c-.2,3.36-.37,6.33-.51,8.83l.33,0c.18-2.49.39-5.46.63-8.83Z"/><path class="cls-2" d="M114.25,123.39c-.2,3.3-.38,6.36-.55,9.16l.46,0q.3-4.2.63-9.16Z"/><path class="cls-2" d="M118.46,68.06l-.7,0q-.24,3.8-.5,7.69l-.06,1,.7,0,.06-1C118.13,73.16,118.29,70.59,118.46,68.06Z"/><path class="cls-2" d="M117.15,77.42q-.27,4.24-.54,8.36l.7,0c.17-2.74.36-5.53.54-8.36Z"/><path class="cls-2" d="M131.5,134.38c-.2,3.38-.37,6.37-.51,8.88l.33,0c.18-2.51.4-5.49.63-8.87Z"/><path class="cls-2" d="M132.63,115.77c-.17,2.83-.34,5.54-.5,8.11l.55,0q.27-3.85.55-8.1Z"/><path class="cls-2" d="M136.21,60c-.19,2.8-.37,5.65-.56,8.55l.69,0q.28-4.36.55-8.56Z"/><path class="cls-2" d="M136.3,69.2l-.7,0c-.16,2.6-.34,5.23-.51,7.9,0,.28,0,.57-.05.85l.69,0,.06-.86C136,74.43,136.13,71.79,136.3,69.2Z"/><path class="cls-2" d="M137.45,41.35c-.19,2.79-.39,5.7-.59,8.7l.65,0c.19-3,.38-5.91.55-8.71Z"/><path class="cls-2" d="M131.27,143.93l-.32,0c0,.8-.09,1.55-.12,2.25l.27,0C131.16,145.48,131.21,144.73,131.27,143.93Z"/><path class="cls-2" d="M138.06,32.25c-.18,2.68-.37,5.5-.57,8.44l.61,0c.18-2.94.36-5.76.52-8.45Z"/><path class="cls-2" d="M135,78.56q-.27,4.26-.54,8.4l.69.05c.18-2.76.37-5.57.55-8.41Z"/><path class="cls-2" d="M134.41,87.61q-.28,4.55-.57,8.9l.68,0q.28-4.36.58-8.91Z"/><path class="cls-2" d="M139.64,15.32l-.4,0q-.23,3.11-.48,6.8l.48,0Q139.46,18.43,139.64,15.32Z"/><path class="cls-2" d="M139.68,14.67l0-.55c-.13.17-.28.31-.42.47v.05Z"/><path class="cls-2" d="M132.09,124.53c-.2,3.31-.38,6.39-.55,9.2l.46,0q.3-4.22.64-9.2Z"/><path class="cls-2" d="M138.66,31.63q.3-4.74.54-8.86l-.48,0c-.19,2.74-.4,5.7-.61,8.85Z"/><path class="cls-2" d="M133.24,106.07q-.3,4.7-.57,9.05l.61,0q.28-4.35.6-9Z"/><path class="cls-2" d="M133.8,97.16q-.27,4.25-.52,8.26l.65,0c.17-2.68.36-5.43.54-8.25Z"/><path class="cls-2" d="M136.82,50.7q-.28,4.19-.57,8.6l.68,0c.19-2.93.37-5.81.54-8.6Z"/><path class="cls-2" d="M152.25,88.72c-.19,3.06-.38,6.07-.57,9l.68,0q.28-4.4.59-9Z"/><path class="cls-2" d="M152.84,79.67q-.28,4.32-.55,8.5l.69,0q.27-4.18.56-8.5Z"/><path class="cls-2" d="M154.66,51.81c-.18,2.82-.38,5.72-.57,8.69l.68,0q.28-4.45.55-8.7Z"/><path class="cls-2" d="M149.34,135.5c-.2,3.41-.37,6.42-.52,9l.34,0c.19-2.53.4-5.54.64-8.95Z"/><path class="cls-2" d="M157.08,23.33q.19-3.37.37-6.26c-.15.1-.28.21-.43.29l-.42,5.93Z"/><path class="cls-2" d="M149.12,145.05l-.33,0c0,.88-.09,1.71-.13,2.47l.27,0C149,146.76,149.05,145.93,149.12,145.05Z"/><path class="cls-2" d="M151.65,98.28c-.19,2.85-.36,5.64-.53,8.34l.64,0c.19-2.71.37-5.5.56-8.35Z"/><path class="cls-2" d="M149.94,125.64c-.21,3.35-.39,6.46-.56,9.3l.46,0c.2-2.84.41-5.95.64-9.3Z"/><path class="cls-2" d="M154.05,61.06q-.27,4.25-.56,8.65l.69.05c.19-2.94.37-5.83.55-8.65Z"/><path class="cls-2" d="M150.48,116.89q-.27,4.29-.51,8.19l.55,0c.18-2.6.36-5.33.56-8.2Z"/><path class="cls-2" d="M151.08,107.18q-.3,4.75-.57,9.14l.6.05q.3-4.4.62-9.15Z"/><path class="cls-2" d="M156.5,32.84c.2-3.2.38-6.19.54-9l-.48,0c-.19,2.76-.4,5.75-.62,8.94Z"/><path class="cls-2" d="M155.91,33.36q-.28,4.06-.58,8.54l.61,0q.27-4.47.53-8.54Z"/><path class="cls-2" d="M155.29,42.46c-.19,2.82-.39,5.77-.59,8.79l.65,0c.19-3,.38-6,.55-8.8Z"/><path class="cls-2" d="M154.14,70.31l-.69,0c-.18,2.67-.35,5.37-.53,8.12,0,.24,0,.48,0,.72l.7,0c0-.25,0-.49.05-.73Q153.89,74.32,154.14,70.31Z"/><path class="cls-2" d="M73.83,18.5c-.19,2.76-.39,5.74-.61,8.9l.56,0c.2-3.17.38-6.15.55-8.91Z"/><path class="cls-2" d="M66.63,130.14c-.21,3.45-.38,6.44-.52,8.93l.32,0c.18-2.49.4-5.47.64-8.92Z"/><path class="cls-2" d="M67.76,111.53q-.27,4.27-.5,8.15l.54,0c.17-2.58.36-5.3.55-8.15Z"/><path class="cls-2" d="M69.53,83.37q-.28,4.57-.57,8.95l.68,0q.28-4.36.58-8.94Z"/><path class="cls-2" d="M72.57,37.1q-.28,4.23-.59,8.76l.66,0q.28-4.53.54-8.76Z"/><path class="cls-2" d="M68.36,101.83c-.2,3.15-.38,6.19-.57,9.1l.6,0c.2-2.91.4-6,.61-9.1Z"/><path class="cls-2" d="M73.18,28c-.18,2.71-.38,5.54-.57,8.5l.61,0c.19-3,.36-5.79.53-8.5Z"/><path class="cls-2" d="M66.39,139.69l-.31,0q0,.86-.09,1.62l.28,0Q66.32,140.55,66.39,139.69Z"/><path class="cls-2" d="M71.42,65l-.69,0c-.16,2.34-.31,4.69-.46,7.08,0,.58-.08,1.15-.11,1.72l.69.05c0-.58.08-1.15.11-1.72Q71.2,68.46,71.42,65Z"/><path class="cls-2" d="M68.92,92.92q-.27,4.26-.52,8.3l.64,0c.18-2.68.37-5.46.56-8.29Z"/><path class="cls-2" d="M71.33,55.71c-.19,2.81-.37,5.68-.56,8.6l.69,0c.19-2.92.37-5.78.55-8.6Z"/><path class="cls-2" d="M70.12,74.31q-.28,4.29-.55,8.46l.69,0c.18-2.77.37-5.59.55-8.45Z"/><path class="cls-2" d="M71.94,46.46c-.19,2.81-.38,5.7-.57,8.65l.68,0c.19-2.95.37-5.84.55-8.65Z"/><path class="cls-2" d="M74.36,17.93c.12-2,.24-3.94.34-5.72l-.42-.11c-.12,1.8-.26,3.74-.4,5.8Z"/><path class="cls-2" d="M67.22,120.29c-.2,3.34-.39,6.44-.56,9.25l.45,0c.2-2.81.42-5.9.65-9.24Z"/><path class="cls-2" d="M90.54,47.7q-.27,4.19-.56,8.58l.68,0c.18-2.92.37-5.79.54-8.57Z"/><path class="cls-2" d="M87,103.07q-.3,4.7-.57,9l.6,0q.3-4.33.61-9Z"/><path class="cls-2" d="M85.82,121.53c-.2,3.32-.38,6.39-.55,9.18l.45,0c.2-2.79.41-5.86.64-9.17Z"/><path class="cls-2" d="M85,140.93l-.31,0c0,.63-.06,1.22-.09,1.78l.27,0C84.9,142.15,84.94,141.56,85,140.93Z"/><path class="cls-2" d="M91.79,29.25q-.29,4-.58,8.42l.62,0c.18-2.93.36-5.74.52-8.42Z"/><path class="cls-2" d="M88.14,84.62c-.2,3-.38,6-.57,8.87l.67.05c.2-2.9.39-5.85.59-8.88Z"/><path class="cls-2" d="M88.72,75.56c-.18,2.83-.36,5.63-.54,8.38l.69,0c.18-2.74.36-5.54.55-8.37Z"/><path class="cls-2" d="M91.17,38.35q-.28,4.2-.58,8.68l.65,0q.29-4.49.55-8.68Z"/><path class="cls-2" d="M85.23,131.39c-.2,3.41-.37,6.38-.51,8.85l.32,0c.18-2.47.4-5.43.64-8.84Z"/><path class="cls-2" d="M90,66.2l-.7,0c-.15,2.32-.3,4.66-.46,7,0,.56-.07,1.12-.11,1.69l.7,0c0-.56.07-1.12.11-1.69Q89.81,69.69,90,66.2Z"/><path class="cls-2" d="M87.53,94.17c-.18,2.81-.35,5.56-.52,8.23l.64,0c.18-2.67.36-5.42.55-8.23Z"/><path class="cls-2" d="M93.18,15.59c0-.75.09-1.47.13-2.17l-.42-.16c-.06.82-.12,1.68-.18,2.57A3.48,3.48,0,0,1,93.18,15.59Z"/><path class="cls-2" d="M89.93,57c-.18,2.79-.37,5.64-.56,8.53l.7,0q.29-4.35.54-8.53Z"/><path class="cls-2" d="M86.36,112.78c-.17,2.82-.34,5.52-.49,8.08l.54,0c.17-2.55.36-5.25.55-8.07Z"/><path class="cls-2" d="M92.11,24.55c-.09,1.3-.18,2.64-.28,4l.56,0c.08-1.28.16-2.52.23-3.74A5.43,5.43,0,0,1,92.11,24.55Z"/><path class="cls-2" d="M103.6,142.16l-.31,0c0,.69-.07,1.34-.11,1.94l.27,0C103.5,143.5,103.54,142.85,103.6,142.16Z"/><path class="cls-2" d="M106.13,95.39c-.17,2.8-.35,5.55-.51,8.21h.14l.5,0q.27-4,.55-8.21Z"/><path class="cls-2" d="M109.15,48.92c-.18,2.78-.37,5.64-.56,8.56l.68,0c.18-2.92.36-5.78.54-8.55Z"/><path class="cls-2" d="M107.33,76.78q-.28,4.25-.54,8.36l.35,0,.34,0c.18-2.74.36-5.53.54-8.35Z"/><path class="cls-2" d="M110,37c0,.63-.08,1.25-.13,1.89l.62,0c0-.71.09-1.4.13-2.1C110.36,36.88,110.16,36.92,110,37Z"/><path class="cls-2" d="M108.54,58.17c-.18,2.79-.37,5.62-.56,8.51l.55,0h.15q.27-4.34.54-8.51Z"/><path class="cls-2" d="M111.79,16.76c0-.75.09-1.47.13-2.18-.15-.08-.27-.18-.41-.26-.05.72-.1,1.47-.16,2.25Z"/><path class="cls-2" d="M109.78,39.57c-.19,2.79-.38,5.67-.58,8.66l.65,0q.29-4.47.54-8.66Z"/><path class="cls-2" d="M107.1,85.86l-.36,0q-.28,4.51-.56,8.85l.67,0c.19-2.88.39-5.83.58-8.85Z"/><path class="cls-2" d="M105.71,104.3h-.14c-.19,3.12-.38,6.13-.56,9l.6,0c.19-2.88.4-5.89.6-9Z"/><path class="cls-2" d="M108.63,67.42h-.15l-.54,0c-.15,2.31-.31,4.65-.46,7,0,.57-.07,1.12-.11,1.68l.7,0c0-.56.07-1.12.11-1.68Q108.41,70.9,108.63,67.42Z"/><path class="cls-2" d="M103.84,132.61c-.2,3.4-.37,6.36-.51,8.83l.32,0c.18-2.47.39-5.42.63-8.82Z"/><path class="cls-2" d="M104.43,122.75c-.2,3.31-.38,6.37-.55,9.16l.45,0c.2-2.79.41-5.85.64-9.15Z"/><path class="cls-2" d="M105,114c-.18,2.81-.34,5.5-.5,8.06l.54,0c.18-2.55.36-5.24.55-8Z"/><path class="cls-2" d="M127.24,68.62l-.7,0c-.15,2.31-.3,4.66-.45,7,0,.57-.08,1.13-.11,1.69l.7,0c0-.57.07-1.13.11-1.7Q127,72.1,127.24,68.62Z"/><path class="cls-2" d="M129,31.67q-.27,4-.57,8.42l.61,0c.19-2.93.36-5.74.53-8.42Z"/><path class="cls-2" d="M128.38,40.77q-.28,4.2-.58,8.68l.66,0q.28-4.49.54-8.68Z"/><path class="cls-2" d="M125.35,87q-.28,4.53-.56,8.87l.67,0q.29-4.33.58-8.87Z"/><path class="cls-2" d="M125.93,78c-.18,2.83-.36,5.63-.54,8.38l.7,0c.17-2.74.36-5.54.54-8.37Z"/><path class="cls-2" d="M124.18,105.49c-.2,3.13-.38,6.14-.56,9l.6,0q.28-4.34.6-9Z"/><path class="cls-2" d="M127.76,50.12q-.29,4.18-.57,8.58l.68,0c.19-2.92.37-5.79.54-8.57Z"/><path class="cls-2" d="M122.2,143.36l-.3,0c0,.77-.08,1.48-.12,2.14l.26,0C122.09,144.84,122.15,144.13,122.2,143.36Z"/><path class="cls-2" d="M122.45,133.81c-.21,3.41-.38,6.37-.51,8.85l.31,0c.19-2.47.4-5.43.64-8.84Z"/><path class="cls-2" d="M123.58,115.2c-.18,2.82-.35,5.52-.5,8.08l.54,0c.17-2.55.36-5.25.55-8.07Z"/><path class="cls-2" d="M127.15,59.37c-.19,2.79-.37,5.63-.56,8.53l.69,0q.28-4.35.55-8.53Z"/><path class="cls-2" d="M124.74,96.59c-.18,2.81-.35,5.56-.52,8.23l.65,0c.17-2.67.36-5.42.54-8.23Z"/><path class="cls-2" d="M129.61,31c.19-3.14.37-6.09.53-8.83l-.49,0c-.19,2.73-.39,5.69-.61,8.82Z"/><path class="cls-2" d="M130.18,21.52c.13-2.12.25-4.12.36-6-.14-.09-.28-.17-.41-.27-.13,1.91-.28,4-.43,6.21Z"/><path class="cls-2" d="M123,124c-.2,3.32-.39,6.39-.55,9.18l.45,0c.19-2.79.41-5.86.63-9.17Z"/><path class="cls-2" d="M140.27,134.94c-.2,3.38-.38,6.38-.52,8.9l.34,0c.18-2.53.39-5.52.63-8.91Z"/><path class="cls-2" d="M143.76,79.11c-.18,2.85-.37,5.67-.54,8.44l.69,0c.18-2.78.36-5.59.55-8.45Z"/><path class="cls-2" d="M148.16,15.24l-.1-.14v.13Z"/><path class="cls-2" d="M140.86,125.08c-.2,3.32-.39,6.41-.56,9.24l.47,0c.19-2.82.41-5.91.63-9.24Z"/><path class="cls-2" d="M146.21,41.9c-.19,2.8-.38,5.73-.58,8.74l.65,0c.19-3,.37-5.94.55-8.75Z"/><path class="cls-2" d="M146.83,32.8c-.18,2.69-.38,5.53-.58,8.48l.61,0c.19-3,.36-5.79.53-8.49Z"/><path class="cls-2" d="M145.07,69.75l-.7,0q-.26,4-.53,8.18l0,.6.7.05c0-.2,0-.4,0-.6C144.72,75.17,144.89,72.44,145.07,69.75Z"/><path class="cls-2" d="M142,106.62q-.28,4.71-.56,9.09l.6,0c.2-2.91.4-6,.61-9.09Z"/><path class="cls-2" d="M145.59,51.25q-.28,4.2-.58,8.64l.68,0q.28-4.43.55-8.64Z"/><path class="cls-2" d="M145,60.5q-.27,4.22-.56,8.59l.69,0c.19-2.92.38-5.79.55-8.6Z"/><path class="cls-2" d="M142.57,97.72c-.18,2.83-.36,5.6-.53,8.29l.65,0c.18-2.69.36-5.46.55-8.29Z"/><path class="cls-2" d="M139.71,144.46c0,.84-.09,1.63-.13,2.35l.29,0c0-.73.11-1.51.17-2.36Z"/><path class="cls-2" d="M147.43,32.22q.28-4.77.53-8.9l-.48,0c-.19,2.75-.39,5.72-.61,8.89Z"/><path class="cls-2" d="M148,22.71c.15-2.48.28-4.77.4-6.84l-.39,0q-.22,3.12-.48,6.84Z"/><path class="cls-2" d="M143.18,88.16c-.2,3-.39,6-.57,8.94l.67,0q.28-4.36.59-8.94Z"/><path class="cls-2" d="M141.4,116.32c-.18,2.85-.34,5.56-.5,8.15l.55,0c.17-2.58.36-5.3.55-8.14Z"/><path class="cls-2" d="M48.47,128.89l8.79.61.45,0,8.92.61.44,0,9,.61.45,0,8.72.58.45,0,9.18.6.45,0,8.53.56.44,0,.43,0,9,.58.45,0,8.34.54.44,0,8.61.54.45,0,8.32.53.45,0,8.62.54.46,0,3,.18,0-.54-3-.2-.46,0-8.61-.59-.47,0-8.3-.56-.46,0-8.6-.57-.45,0-8.33-.55-.46,0-9-.58-.42,0-.45,0-8.52-.55-.46,0-9.18-.59-.45,0-8.72-.55-.45,0-9-.56-.45,0L57.75,129l-.46,0-8.79-.53-.45,0-11.13-.64,0,.3,11.14.8Z"/><path class="cls-2" d="M47.48,138.38l.31,0,8.92.62.31,0,9.06.62.31,0,9.12.61.31,0,8.86.59.31,0,9.32.62.32,0,8.66.57.31,0,1.17.07,8.34.54.32,0,8.47.55.3,0,8.75.55.32,0,8.44.53.33,0,8.75.55.33,0,3,.18,0-.54-3-.21-.34,0-8.73-.59-.34,0-8.43-.56-.33,0-8.74-.58-.31,0-8.46-.56-.33,0-8.33-.55-1.17-.07-.32,0-8.65-.56-.33,0-9.31-.6-.32,0-8.85-.56-.32,0-9.12-.57-.32,0-9-.56-.32,0L47.82,138l-.32,0-11.3-.65,0,.29Z"/><path class="cls-2" d="M49.75,110.29l8.64.6.6,0,8.77.6.59,0,8.84.6.6,0,8.57.57.6,0,9,.59.6,0L105,114l.59,0,.36,0,8.87.57.6,0,8.19.53.59,0,8.46.53.6,0,8.17.51.6,0,8.48.53.6,0,3.12.2,0-.54-3.13-.21-.6-.05-8.47-.57-.6,0-8.16-.55-.61,0-8.45-.56-.6,0-8.18-.54-.6,0-8.88-.58-.35,0-.6,0-8.38-.54-.6,0-9-.58-.6,0-8.57-.54-.6,0L68.39,111l-.6,0L59,110.39l-.59,0-8.65-.52-.6,0-10.87-.63,0,.31,10.87.78Z"/><path class="cls-2" d="M51,91.69l8.57.59.67,0,8.69.59.68,0,8.76.59.67,0,8.5.57.67,0,9,.59.67,0,8.3.54.68,0,.32,0L116,96l.67,0,8.11.52.67,0,8.39.53.67,0,8.1.51.67,0,8.41.52.67,0,3.28.2,0-.53-3.28-.23-.68,0-8.4-.58-.67,0-8.09-.54-.68,0L125.46,96l-.67,0-8.11-.53-.68,0-8.83-.58-.32,0-.67,0-8.3-.54-.68,0-9-.57-.67-.05L79.07,93l-.67,0-8.76-.55-.68,0-8.69-.54-.68,0L51,91.22l-.67,0-10.64-.62,0,.32,10.64.76Z"/><path class="cls-2" d="M52.21,73.08l8.54.59.7,0,8.67.59.69,0,8.74.59.7,0,8.47.56.7,0,8.93.58.7,0,8.28.54.69,0,.31,0,8.82.57.7,0,8.08.52.7,0,8.36.53.7,0,8.07.51.7,0,8.38.52.7,0,3.45.22,0-.54-3.46-.23-.7,0-8.37-.57-.7-.05L135.73,78l-.69,0-8.36-.55-.7,0-8.08-.53-.7,0-8.82-.57-.31,0-.7,0-8.28-.53-.69,0-8.94-.57-.7,0-8.47-.54-.7,0-8.74-.54-.69-.05-8.68-.53-.69-.05-8.55-.51-.7-.05L41.1,72l0,.31c2.83.21,6.34.47,10.43.75Z"/><path class="cls-2" d="M53.41,54.47l8.55.6.69,0,8.68.59.68,0,8.75.59.68,0,8.49.56.68,0,9,.59.68,0,8.3.54.68,0,.32,0,8.83.57.68,0,8.1.52.68.05,8.38.53.68,0,8.08.51.68,0,8.4.52.68,0,3.66.22,0-.53-3.66-.25-.68,0-8.4-.57-.68,0-8.08-.55-.68,0-8.38-.56-.68,0-8.1-.54-.68,0-8.82-.58-.32,0-.68,0-8.3-.54-.68,0-9-.58-.68,0-8.49-.54-.68,0-8.76-.55-.68,0-8.69-.54-.68,0L53.44,54l-.68,0-10.26-.6,0,.32,10.26.74Z"/><path class="cls-2" d="M54.58,35.87l8.62.59.62,0,8.75.59.61,0,8.82.6.62,0,8.55.57.62,0,9,.59.62,0,8.36.55.61,0,.36,0,8.85.58.62,0,8.16.52.62,0,8.45.54.61,0,8.15.52.62,0,8.46.53.61,0,3.88.24,0-.53-3.88-.27-.61,0-8.47-.58-.61,0-8.15-.55-.61,0L129,40.13l-.61,0-8.17-.54-.61,0-8.85-.57-.36,0-.62,0-8.36-.54-.61,0-9-.58-.62,0-8.55-.54-.62,0-8.82-.55-.61,0L63.85,36l-.61,0-8.63-.52-.62,0-10.1-.58,0,.32L54,35.82Z"/><path class="cls-2" d="M55.72,17.25l8.75.61.49,0,8.87.6.5,0,8.94.61.49,0,6.33.42a4.54,4.54,0,0,1,.14-.66l-6.43-.41-.49,0-9-.56-.48,0L65,17.35l-.48,0-8.76-.53-.49,0-10-.58,0,.32c2.76.21,6.11.45,10,.72Z"/><path class="cls-2" d="M156.6,23.29l-8.6-.58-.47,0-8.29-.56-.48,0-8.58-.57-.48,0-8.3-.55-.48,0-4.69-.31c.16.24.3.48.44.73l4.2.27.49,0,8.29.54.49,0,8.58.54.48,0,8.28.52.48,0,8.6.54.48,0,4.14.25,0-.53-4.14-.28Z"/><path class="cls-2" d="M52.31,9.11l-6.46-.38,0,.33,7,.5C52.63,9.42,52.47,9.26,52.31,9.11Z"/><path class="cls-2" d="M161.78,16.17,158.73,16a6.14,6.14,0,0,1-.5.52l3.51.21Z"/><path class="cls-2" d="M65.4,10.44l6.62.45a6.55,6.55,0,0,1-.66-.63L65.43,9.9l-.4,0L60.9,9.62a7.12,7.12,0,0,1-.66.46l4.75.33Z"/><path class="cls-2" d="M84.2,11.71l7,.47a7.1,7.1,0,0,1-.73-.72l-6.24-.39-.4,0-3.24-.2a8.19,8.19,0,0,1-.83.58l4,.27Z"/><path class="cls-2" d="M103,13l7.37.48a8,8,0,0,1-.68-.74L103,12.27l-.4,0-2.46-.16a7.33,7.33,0,0,1-.83.64l3.24.21Z"/><path class="cls-2" d="M121.8,14.18l7.71.49a6,6,0,0,1-.6-.72l-7.07-.46-.39,0-1.73-.11A7.89,7.89,0,0,1,119,14l2.44.15Z"/><path class="cls-2" d="M139.64,15.32l8.37.52.39,0h.21a5.67,5.67,0,0,1-.45-.64h-.11l-8.37-.56-.39,0h0a6.15,6.15,0,0,1-.64.61l.64,0Z"/><path class="cls-2" d="M55.15,26.76l8.67.61.56,0c2.78.2,5.72.4,8.8.6l.57,0,8.87.6.56,0,8.61.57.56,0,4,.26c-.09-.23-.19-.46-.27-.7l-3.72-.24-.56,0L83.22,28l-.56,0-8.88-.55-.56,0-8.8-.54-.57,0-8.68-.52-.56,0-10-.58,0,.32c2.77.21,6.14.45,10,.72Z"/><path class="cls-2" d="M155.94,32.8l-8.51-.58-.56,0-8.21-.55-.55,0-8.5-.56L129,31l-8.22-.54-.55,0-3-.19c-.08.23-.17.45-.27.68l3.22.21.56,0,8.22.53.57,0,8.49.54.56,0,8.21.52.56,0,8.52.53.56,0,4,.24,0-.53-4-.27Z"/><path class="cls-2" d="M54,45.22l8.58.6.65,0,8.71.6.66,0,8.77.59.66,0,8.51.56.66,0,9,.59.65,0,8.32.54.66,0h.06l9.11.59.65,0,8.13.52.65.05,8.41.53.65,0,8.12.51.65,0,8.42.52.66,0,3.76.23,0-.52-3.77-.26-.65,0-8.42-.57-.65,0-8.12-.55-.65,0-8.4-.56-.66,0-8.12-.54-.66,0-9.11-.6h-.06l-.65,0-8.33-.54-.65,0-9-.58-.65,0-8.52-.54-.65,0-8.78-.55-.66,0-8.71-.54-.66,0c-3.07-.19-5.94-.37-8.59-.52l-.65,0-10.18-.6,0,.33,10.17.73Z"/><path class="cls-2" d="M52.82,63.68l8.54.6.7,0,8.67.59.69,0,8.74.59.7,0,8.47.57.7,0,8.93.59.7,0,8.28.54.54,0h.15l9.13.6.7,0,8.08.52.7,0,8.36.53.7,0,8.07.51.7,0,8.38.52.69,0,3.56.22,0-.53-3.56-.24-.69-.05-8.39-.57-.69,0-8.07-.54-.69,0L127.28,68l-.69,0-8.09-.53-.69-.05-9.13-.59h-.15l-.55,0-8.28-.53L99,66.1l-8.94-.57-.7,0L80.9,65l-.7,0-8.74-.55-.69,0-8.68-.54-.69,0-8.55-.52-.7,0-10.34-.6,0,.32,10.34.74Z"/><path class="cls-2" d="M51.62,82.14l8.55.59.69,0,8.67.59.69,0L79,84l.69,0,8.48.57.69,0,8.94.59.69,0,8.28.54.36,0,.33,0,9.14.59.69,0,8.09.52.69,0,8.37.53.69,0,8.08.51.69,0,8.38.52.7,0,3.36.2,0-.53L153,88.21l-.69,0-8.38-.57-.69,0L135.14,87l-.69-.05-8.36-.56-.7,0-8.08-.54-.7,0-9.13-.6-.34,0-.35,0L98.5,84.6l-.69,0L88.87,84l-.69,0L79.7,83.4l-.69,0-8.75-.55-.69,0-8.68-.54-.69,0-8.55-.52-.69,0c-4.1-.25-7.65-.46-10.54-.62l0,.33,10.53.75Z"/><path class="cls-2" d="M50.4,100.6l8.6.59.64,0,8.72.59.64,0,8.8.59.64.05,8.53.56.64.05,9,.59.64,0,8.33.54h.14l.5,0,9.19.59.64,0,8.14.52.64,0,8.42.54.64,0,8.12.51.65,0,8.43.52.65,0,3.2.2,0-.53-3.21-.22-.64,0-8.43-.57-.65,0-8.11-.55-.65,0-8.41-.56-.65,0-8.13-.54-.65,0-9.18-.6-.5,0h-.14l-8.33-.54-.65,0-9-.58-.64,0-8.53-.54-.64,0-8.8-.56-.64,0-8.72-.54-.65,0-8.6-.52-.64,0L39,99.46l0,.32c2.94.22,6.55.48,10.75.77Z"/><path class="cls-2" d="M49.15,119.05l8.7.6.54,0,8.83.6.54,0,8.89.59.54,0,8.63.57.54,0,9.09.6.54,0,8.34.55h.1l.54,0,9.28.6.54,0L123,124l.53,0,8.52.54.55,0,8.22.52.54,0,8.54.53.54,0,3.06.19,0-.53-3.06-.21-.55,0-8.52-.58-.55,0-8.22-.56-.55,0-8.51-.57-.54,0-8.24-.55-.54,0-9.29-.61-.54,0h-.09L96,121.51l-.54,0-9.09-.58-.54,0-8.63-.55-.55,0-8.89-.55-.54,0-8.83-.54-.54,0-8.7-.53-.54,0-11-.64,0,.32c3,.23,6.69.49,11,.79Z"/><path class="cls-2" d="M100.24,35c.25.2.53.36.79.53s.38.27.58.39A11.41,11.41,0,0,0,110,37c.21-.06.41-.1.62-.17a10.13,10.13,0,0,0,3-1.51A10.64,10.64,0,0,0,117,30.9c.1-.23.19-.45.27-.68a11,11,0,0,0,0-7.76,8.41,8.41,0,0,0-.55-1.13c-.14-.25-.28-.49-.44-.73a11.37,11.37,0,0,0-4.44-3.84l-.44-.19a10.65,10.65,0,0,0-5.51-.88A8.68,8.68,0,1,1,96,28.46c0,.13.09.26.14.39s.18.47.27.7A13.21,13.21,0,0,0,100.24,35Z"/><path class="cls-3" d="M99.88,17.53a6.19,6.19,0,0,0,2.6.22c1.64-.24,2.66-1.28,2.8-1.14s-.09.41-.54.83a4.27,4.27,0,0,1-2.16,1,4.2,4.2,0,0,1-2.28-.3,5.44,5.44,0,0,1,.23,4.66,5.15,5.15,0,0,1-3.76,2.92,4.95,4.95,0,0,1,3.15,3.86c.1.73,0,1.17-.11,1.17S99.54,29,98.17,27.5a6.75,6.75,0,0,0-2.75-1.74,4.42,4.42,0,0,1-.53-.11A8.55,8.55,0,0,0,96,28.46a8.66,8.66,0,1,0,7.65-13.12,6.37,6.37,0,0,0-.76,0l-.44.05a8.48,8.48,0,0,0-3.5,1.2A3.54,3.54,0,0,1,99.88,17.53Z"/><path class="cls-3" d="M92.11,24.55a5.43,5.43,0,0,0,.51.32,5.09,5.09,0,0,0,2,.65c-.07,0-.11-.07-.1-.08s.79.1,2-.16a5,5,0,0,0,3.44-2.75,5.38,5.38,0,0,0-.19-4.43,19.68,19.68,0,0,0-1.11-1.63s0,0,.06,0a5.09,5.09,0,0,0-5.47-.89,3.48,3.48,0,0,0-.47.24,5.2,5.2,0,0,0-2.48,3.1,4.54,4.54,0,0,0-.14.66,3.72,3.72,0,0,0-.08.67A5.19,5.19,0,0,0,92.11,24.55Z"/><path class="cls-2" d="M99.7,18.1a5.38,5.38,0,0,1,.19,4.43,5,5,0,0,1-3.44,2.75c-1.17.26-1.94,0-2,.16s0,0,.1.08a1.47,1.47,0,0,0,.3.13,4.42,4.42,0,0,0,.53.11c-.22-.09-.36-.15-.35-.2s.47-.16,1.18,0a3.05,3.05,0,0,1,.52.16,5.15,5.15,0,0,0,3.76-2.92,5.44,5.44,0,0,0-.23-4.66l-.07,0c-.56-.26-.82-.55-.77-.63s.19,0,.42,0a3.54,3.54,0,0,0-1-.92.72.72,0,0,0-.27-.13s-.05,0-.06,0A19.68,19.68,0,0,1,99.7,18.1Z"/><path class="cls-2" d="M102.58,18.45a4.27,4.27,0,0,0,2.16-1c.45-.42.61-.77.54-.83s-1.16.9-2.8,1.14a6.19,6.19,0,0,1-2.6-.22c-.23-.06-.39-.09-.42,0s.21.37.77.63l.07,0A4.2,4.2,0,0,0,102.58,18.45Z"/><path class="cls-2" d="M99.81,30.76c.09,0,.21-.44.11-1.17a4.95,4.95,0,0,0-3.15-3.86,3.05,3.05,0,0,0-.52-.16c-.71-.17-1.17-.1-1.18,0s.13.11.35.2a6.75,6.75,0,0,1,2.75,1.74C99.54,29,99.61,30.78,99.81,30.76Z"/><path class="cls-3" d="M432.71,167.44s-4.8-3.95-12.39,7.72a160.8,160.8,0,0,0-10.71,18.54s-1.94,2.41-3.53.53-3.53-6.92-6.64-6.38-4.62,4-4.56,9.14-.24,16.58-.27,17.61-.76,2.43-2.05,1.33-8.37-10.88-12.81-7.24-1.9,18.08-1.66,19.66-.12,2.21-.89,2.52-2.84-3.21-5-5.9-5.07-5.46-7.45-3.14-4.17,12.76,4,30.9l4.36,8.16,9.28.46c19.92-.22,28.63-6.26,29.72-9.39s-2.65-4.64-6-5.43-7.4-1.18-7.45-2,.36-1.43,1.9-1.87,15.7-4.26,17.12-9.82-10.43-7.84-12-8.54-.57-2,.33-2.42,11.11-5.54,15.84-7.69,7.21-4.84,6.36-8-6.21-2.66-8.58-3.31-1-3.43-1-3.43A162.44,162.44,0,0,0,431,181.89c7.37-11.8,1.6-14.52,1.6-14.52"/><path class="cls-2" d="M371.53,262.39c5.45-8.65,15.39-23.86,23.86-37s16.12-25,21.61-33.59c2.74-4.31,5-7.8,6.49-10.22l1.77-2.78c.2-.31.36-.54.47-.72a1.41,1.41,0,0,1,.17-.23l-.15.25c-.1.18-.25.42-.44.73l-1.72,2.81c-1.5,2.43-3.69,5.94-6.42,10.27-5.45,8.65-13.07,20.53-21.54,33.63s-18.43,28.3-23.92,36.92"/><path class="cls-2" d="M401.85,195a3,3,0,0,1,.17.65c.09.42.2,1,.34,1.79.26,1.51.57,3.61.86,5.94s.55,4.37.75,5.95c.09.72.17,1.32.23,1.8a2.8,2.8,0,0,1,.06.67,3,3,0,0,1-.17-.65c-.09-.42-.2-1-.33-1.79-.24-1.52-.52-3.62-.82-5.95s-.58-4.36-.78-5.94c-.1-.72-.18-1.32-.25-1.8A5.41,5.41,0,0,1,401.85,195Z"/><path class="cls-2" d="M405.09,212.07c0-.08,4.29-.9,9.61-1.84s9.65-1.64,9.66-1.56-4.29.9-9.61,1.84S405.1,212.15,405.09,212.07Z"/><path class="cls-2" d="M391.18,231.61a2.69,2.69,0,0,1,.68,0l1.85.2c1.56.17,3.71.39,6.09.55s4.55.23,6.12.27l1.85.05a2.83,2.83,0,0,1,.68.05,3.1,3.1,0,0,1-.68.06c-.44,0-1.07,0-1.86,0-1.57,0-3.74,0-6.13-.19s-4.54-.41-6.1-.63c-.77-.11-1.4-.21-1.83-.29A3.46,3.46,0,0,1,391.18,231.61Z"/><path class="cls-2" d="M384.86,216.83a2.44,2.44,0,0,1,.31.55l.73,1.55c.61,1.31,1.44,3.14,2.33,5.16s1.69,3.86,2.26,5.19c.26.63.47,1.16.65,1.59a2.33,2.33,0,0,1,.2.6,3.46,3.46,0,0,1-.3-.56c-.2-.42-.45-.93-.74-1.55-.61-1.31-1.43-3.13-2.33-5.15s-1.69-3.86-2.25-5.2l-.66-1.58A3,3,0,0,1,384.86,216.83Z"/><path class="cls-2" d="M370.39,232.51a5.29,5.29,0,0,1,.38.71l1,2c.79,1.68,1.86,4,3,6.58s2.21,4.93,3,6.63l.87,2a3.85,3.85,0,0,1,.28.76,5.29,5.29,0,0,1-.38-.71l-1-2c-.79-1.68-1.86-4-3-6.59s-2.21-4.92-3-6.62l-.87-2A3.85,3.85,0,0,1,370.39,232.51Z"/><path class="cls-2" d="M378.8,250.69a4.77,4.77,0,0,1,.87,0l2.35.17c2,.14,4.72.33,7.75.45s5.78.16,7.76.18h2.36a5.37,5.37,0,0,1,.86,0,4.55,4.55,0,0,1-.86.08l-2.36.07c-2,0-4.74,0-7.77-.1s-5.78-.33-7.76-.53c-1-.1-1.79-.18-2.34-.26A4.79,4.79,0,0,1,378.8,250.69Z"/><path class="cls-2" d="M90.38,86.55S80,204.21,83.76,272.89c3.23,59.57,8.92,79.64,8.92,79.64l33.91,0Z"/></g><g id="Plants"><path class="cls-4" d="M50,286.09a12.09,12.09,0,0,1,1.35-9.39,21.28,21.28,0,0,1,6.8-6.88c5.22-3.51,12.33-4.9,18.62-5.22-.09,7-5.42,13.11-8.31,16-4.58,4.63-15.66,10.24-18.46,5.45"/><path class="cls-4" d="M80.65,253.25A10.33,10.33,0,0,1,71,257.07a13.72,13.72,0,0,1-9-5.66c-1-1.36-1.79-3-1.36-4.68A4.4,4.4,0,0,1,64,243.78a8.88,8.88,0,0,1,4.64.41c5.14,1.62,9.81,4.13,12,9.06"/><path class="cls-5" d="M99.63,246a6.89,6.89,0,0,1-1.1.69l-3.06,1.77a36.14,36.14,0,0,1-10.77,4.45,22.08,22.08,0,0,1-11.6-.58,15,15,0,0,1-3.2-1.54,8,8,0,0,1-.78-.56,1.22,1.22,0,0,1-.26-.22,25.19,25.19,0,0,0,4.34,2,23.1,23.1,0,0,0,11.41.44,39,39,0,0,0,10.71-4.3c1.31-.7,2.38-1.26,3.13-1.63A7.23,7.23,0,0,1,99.63,246Z"/><path class="cls-5" d="M58.05,281.08a2.39,2.39,0,0,1,.39-.42l1.16-1.11c1-1,2.51-2.34,4.37-4,3.71-3.37,8.9-7.95,14.75-12.88s11.25-9.28,15.2-12.36c2-1.55,3.58-2.79,4.7-3.63l1.3-1a3.38,3.38,0,0,1,.47-.31s-.13.15-.42.39l-1.24,1-4.61,3.74c-3.9,3.15-9.26,7.53-15.11,12.46S68,272.46,64.18,275.76l-4.46,3.92-1.22,1.05A2.64,2.64,0,0,1,58.05,281.08Z"/><path class="cls-4" d="M89.45,257.73a24.21,24.21,0,0,0-4.94,21.53c.5,1.89,1.57,4,3.5,4.25s3.52-1.52,4.45-3.24a20.67,20.67,0,0,0-2.53-22.78"/><path class="cls-5" d="M88.48,274.77a5.69,5.69,0,0,1-.35-1.17,10,10,0,0,1-.31-1.4c-.08-.55-.23-1.17-.27-1.87a20.15,20.15,0,0,1-.14-2.3,21.83,21.83,0,0,1,.09-2.64,26.47,26.47,0,0,1,1.23-5.93A26.11,26.11,0,0,1,91.36,254a22.18,22.18,0,0,1,1.56-2.13,19.14,19.14,0,0,1,1.53-1.72,17.56,17.56,0,0,1,1.39-1.3A11,11,0,0,1,97,248a5.13,5.13,0,0,1,1-.68c.06.08-1.38,1.07-3.29,3.09-.46.52-1,1.07-1.47,1.73a25.47,25.47,0,0,0-1.5,2.13,27.85,27.85,0,0,0-2.55,5.37,27.46,27.46,0,0,0-1.24,5.83,23.68,23.68,0,0,0-.13,2.6c0,.81,0,1.57.08,2.27C88.1,273.07,88.58,274.75,88.48,274.77Z"/><path class="cls-6" d="M108.94,227.69c12.91-17.77,9.14-41.16,1.61-60.76-1.26-3.27-2.1-6.89-4.68-9.25s-6.94-3.07-9.42-.66c-2.06,2-2.14,5.24-2.7,8.08a20.48,20.48,0,0,1-5.2,10.1c-1.73,1.82-4.11,3.4-6.58,3-3.4-.59-5.1-4.42-6.22-7.72L69.5,152c-1.12-3.3-2.27-6.66-4.38-9.43s-5.37-4.89-8.8-4.69-6.69,3.35-6.23,6.8a32,32,0,0,0,1.32,4.13c.38,1.4.27,3.14-.9,4s-2.82.37-4.14-.26c-4.54-2.15-8.33-5.63-12-9.14s-7.22-7.16-11.56-9.72-9.6-4-14.4-2.59-8.83,6-8.42,11.05,4.74,8.83,9,11.57A78,78,0,0,0,29.36,163a6.44,6.44,0,0,1,3.52,1.87c1.47,1.95.14,4.85-1.77,6.32-2.18,1.66-4.93,2.33-7.39,3.52s-4.85,3.28-5,6c-.19,3.84,3.84,6.39,7.41,7.74a66.65,66.65,0,0,0,22.35,4.32c2.73.05,5.55-.06,8.09,1s4.74,3.58,4.37,6.3-3.15,4.52-5.85,4.93-5.45-.19-8.18-.26c-5.12-.15-10.85,2.19-12.4,7.1-1,3.23,0,6.86,2.08,9.59a25.39,25.39,0,0,0,7.8,6.42A67,67,0,0,0,78,237.48c11.75,0,21.82-2.37,30.93-9.79"/><path class="cls-5" d="M109.77,233.66c-3.44-7.61-3.85-7.65-10.24-16.63a311,311,0,0,0-22.7-27.72l-6.32-7c-2.08-2.27-4.14-4.54-6.29-6.62a155.45,155.45,0,0,0-13.07-11.28c-4.33-3.39-8.56-6.44-12.54-9.27s-7.74-5.38-11.27-7.57a124,124,0,0,0-17.41-9.07c-2.13-.9-3.81-1.55-4.95-2l-1.31-.47a2.62,2.62,0,0,0-.45-.14,2.53,2.53,0,0,0,.43.2l1.28.54c1.13.46,2.79,1.15,4.9,2.09A130.31,130.31,0,0,1,27.1,148c3.5,2.21,7.24,4.78,11.21,7.62s8.17,5.91,12.48,9.3a158.39,158.39,0,0,1,13,11.26c2.14,2.08,4.18,4.32,6.27,6.61l6.31,7a319.58,319.58,0,0,1,22.69,27.62c6.4,8.94,6.83,8.92,10.3,16.48"/><path class="cls-5" d="M64,175.77a6.13,6.13,0,0,0-.16-1.52c-.14-1-.39-2.37-.73-4.09-.67-3.43-1.75-8.15-3-13.35s-2.24-9.92-2.85-13.36c-.31-1.72-.55-3.11-.7-4.08a7.68,7.68,0,0,0-.31-1.49,6.51,6.51,0,0,0,.06,1.52c.08,1,.25,2.39.51,4.12.5,3.47,1.44,8.23,2.66,13.43s2.31,9.76,3.15,13.31l.93,4A7.94,7.94,0,0,0,64,175.77Z"/><path class="cls-5" d="M19,182.49a10.61,10.61,0,0,0,1.76-.38c1.12-.28,2.73-.69,4.75-1.14,4-.92,9.62-2,15.85-2.92s11.91-1.49,16-1.79c2.06-.17,3.73-.26,4.88-.33a9.93,9.93,0,0,0,1.79-.16,8.53,8.53,0,0,0-1.8-.09c-1.15,0-2.83,0-4.9.12-4.14.18-9.84.7-16.1,1.61a157.37,157.37,0,0,0-15.86,3.12c-2,.5-3.61,1-4.71,1.34A9.15,9.15,0,0,0,19,182.49Z"/><path class="cls-5" d="M98.74,216.43a2.41,2.41,0,0,0,.11-.62c.05-.48.11-1.07.19-1.78.16-1.55.34-3.79.52-6.57.37-5.56.63-13.25.81-21.73s.37-16.18.62-21.73c.12-2.71.23-4.93.31-6.58,0-.72,0-1.31.07-1.79a2.78,2.78,0,0,0,0-.63,2.41,2.41,0,0,0-.11.62c-.06.48-.12,1.06-.2,1.78-.16,1.54-.34,3.79-.52,6.57-.36,5.55-.63,13.24-.8,21.73s-.37,16.18-.62,21.73c-.13,2.7-.24,4.93-.32,6.58,0,.72-.05,1.31-.07,1.79A1.92,1.92,0,0,0,98.74,216.43Z"/><path class="cls-5" d="M36.22,217.75a2.63,2.63,0,0,0,.64,0h1.82l6.7-.13c5.65-.11,13.47-.17,22.1-.23s16.46-.19,22.11-.41c2.83-.11,5.12-.23,6.7-.34l1.81-.14a2.76,2.76,0,0,0,.64-.09,3.08,3.08,0,0,0-.64,0l-1.82,0-6.7.13c-5.66.11-13.47.17-22.11.22s-16.45.19-22.11.42c-2.83.11-5.11.22-6.69.34l-1.82.13A1.86,1.86,0,0,0,36.22,217.75Z"/></g><g id="Notes"><path class="cls-2" d="M91.35,83.59s-2.69,160.79,19.52,268.94l276.73-.86L315.16,82.3Z"/><path class="cls-5" d="M91.35,83.59l223.81-1.5h.17l0,.15L387.85,351.6l.09.33h-.34l-22,.07-254.73.76h-.19l0-.18q-1.38-7.45-2.74-14.75c-.44-2.44-.94-4.85-1.31-7.27s-.74-4.82-1.11-7.21q-1.08-7.19-2.15-14.19-.89-7-1.75-13.9-.44-3.42-.86-6.81c-.28-2.26-.48-4.51-.72-6.75q-.7-6.69-1.38-13.21c-.49-4.34-.79-8.64-1.17-12.87s-.72-8.39-1.07-12.48C93.85,210.33,92.68,181.63,92,158s-.79-42.25-.79-54.94c0-6.35,0-11.21.07-14.49,0-1.64,0-2.88,0-3.72s0-1.14,0-1.25c0,.48,0,6.83,0,19.46s.22,31.29.92,54.93,1.94,52.33,4.52,85.13q.53,6.13,1.08,12.48c.38,4.22.68,8.52,1.17,12.86s.92,8.75,1.39,13.21c.24,2.23.45,4.48.73,6.74s.57,4.53.86,6.81q.87,6.85,1.77,13.89,1.07,7,2.15,14.18.56,3.59,1.11,7.21c.38,2.42.88,4.82,1.32,7.26q1.35,7.29,2.74,14.74l-.22-.18,254.73-.84,22-.06-.25.32C360.44,251.62,335.57,159.05,315,82.35l.2.16Z"/><path class="cls-3" d="M91.35,83.59s-.23,21.19,3.35,58.91c2.38,25,2.11,57.76,8.73,99.54,14,88.27,21.36,101.77,21.36,101.77L394.73,342,322.85,79.64Z"/><path class="cls-5" d="M91.35,83.59l231.5-4.17H323l0,.16C343.65,154.68,368.36,244.84,395,342l.09.33h-.34l-14.71.1L124.79,344h-.15l0-.12a54,54,0,0,1-2.48-7c-.72-2.33-1.36-4.68-2-7s-1.2-4.66-1.74-7-1.09-4.63-1.61-6.93q-3.06-13.81-5.5-27.09c-3.31-17.67-6.09-34.5-8.56-50.34-1.21-7.92-2.17-15.63-3-23.08S98.35,200.87,97.86,194c-1-13.85-1.55-26.59-2.27-38.08-.34-5.75-.8-11.18-1.27-16.29s-.86-9.9-1.2-14.36c-.66-8.93-1.09-16.53-1.36-22.7s-.37-10.9-.41-14.1c0-1.59,0-2.8,0-3.61s0-1.22,0-1.22c0,.23,0,1.7.07,4.83s.2,7.93.48,14.09.74,13.77,1.43,22.69c.34,4.46.74,9.26,1.22,14.36s1,10.54,1.31,16.29c.74,11.5,1.3,24.24,2.32,38.07q.75,10.38,1.94,21.56c.78,7.44,1.75,15.14,3,23.06,2.48,15.83,5.27,32.65,8.59,50.31q2.46,13.26,5.53,27.07c.52,2.3,1,4.62,1.61,6.93s1.13,4.65,1.74,7,1.26,4.66,2,7A56.78,56.78,0,0,0,125,343.7l-.2-.12L380,341.86l14.71-.1-.25.33C367.89,245,343.2,154.8,322.65,79.7l.21.16Z"/><path class="cls-1" d="M347.28,92.11,91.57,96.46C90.49,165.81,114.9,274.05,132.81,331l268.35-2.81C373.69,255.22,342.09,172.28,347.28,92.11Z"/><path class="cls-5" d="M347.28,92.11c0,.23,0,1.56-.14,4.44q-.08,2.22-.18,5.49c0,2.18-.24,4.71-.13,7.56.14,5.71.09,12.76.79,21,.14,2.07.29,4.21.43,6.43s.5,4.49.75,6.85.54,4.8.82,7.3.74,5.07,1.12,7.7.82,5.35,1.24,8.12,1,5.59,1.59,8.49,1.06,5.87,1.74,8.87,1.36,6.08,2.07,9.22c.36,1.57.69,3.16,1.08,4.75l1.22,4.82q1.24,4.86,2.53,9.91c1,3.34,1.9,6.75,2.88,10.21.49,1.73,1,3.48,1.49,5.23s1.07,3.51,1.62,5.29c8.54,28.5,20.21,60,33.17,94.3l.11.3h-.32l-259.45,2.76-8.9.09h-.19l-.06-.18c-6.47-20.85-12-41.63-16.85-62.09s-9.1-40.62-12.68-60.34-6.51-39-8.6-57.76a441.43,441.43,0,0,1-3.09-54.42v-.22h.22l255.72-4.13L91.57,96.69l.22-.22a442.73,442.73,0,0,0,3.12,54.36c2.1,18.73,5,38,8.61,57.72s7.82,39.86,12.69,60.31,10.38,41.22,16.85,62.05l-.26-.18,8.91-.09L401.16,328l-.21.3c-12.93-34.3-24.58-65.83-33.1-94.35l-1.61-5.3c-.53-1.75-1-3.51-1.49-5.24q-1.46-5.19-2.86-10.21t-2.52-9.92l-1.22-4.82c-.39-1.6-.72-3.19-1.08-4.76-.7-3.14-1.38-6.21-2.05-9.23s-1.16-6-1.73-8.88-1.11-5.72-1.58-8.49l-1.23-8.13c-.37-2.64-.84-5.2-1.1-7.71s-.55-4.94-.81-7.3-.52-4.65-.73-6.86-.28-4.37-.42-6.43c-.68-8.27-.61-15.32-.72-21-.11-2.86.11-5.36.16-7.54s.16-4,.22-5.47C347.21,93.69,347.27,92.34,347.28,92.11Z"/><path class="cls-7" d="M347.74,79.22,91.35,83.59c-1.08,69.34,10.29,133,28.19,190l74,45.82,214.76-3.66C380.81,242.78,342.56,159.39,347.74,79.22Z"/><path class="cls-5" d="M347.74,79.22c0,.23-.06,1.58-.18,4.49-.07,1.49-.16,3.35-.16,5.54s-.11,4.74,0,7.62a292.39,292.39,0,0,0,5.08,49.6c3.84,21.18,10.62,46.49,20.41,74.85,4.87,14.19,10.45,29.15,16.5,44.86s12.59,32.18,19.12,49.48l.11.3h-.31l-214.77,3.7h-.08l-.06,0-32-19.84-41.94-26-.08-.05,0-.09a621,621,0,0,1-22.4-98.57,593.64,593.64,0,0,1-5.77-91.51v-.22h.22l256.4-4.14L91.35,83.81l.22-.22A594,594,0,0,0,97.38,175a621.11,621.11,0,0,0,22.41,98.48l-.11-.14,41.93,26,32,19.85-.14,0,214.77-3.62-.21.3c-6.52-17.3-13-33.77-19.08-49.49s-11.61-30.69-16.47-44.89c-9.76-28.38-16.51-53.73-20.32-74.92a290.34,290.34,0,0,1-5-49.65c-.08-2.88,0-5.43.05-7.62s.12-4,.2-5.52C347.66,80.81,347.73,79.45,347.74,79.22Z"/><polygon class="cls-2" points="119.75 273.56 184.9 266.56 193.52 319.4 119.75 273.56"/><path class="cls-5" d="M193.52,319.4a1.23,1.23,0,0,1-.07-.26l-.15-.78-.54-3c-.46-2.67-1.1-6.47-1.91-11.19-1.57-9.52-3.75-22.71-6.2-37.55l.28.22-6.06.65-41.94,4.43-12.72,1.28-3.46.32-.9.08h-.31l.3-.06.9-.12,3.45-.42,12.7-1.45L178.81,267l6.07-.65.24,0,0,.25c2.39,14.85,4.51,28.05,6,37.58.74,4.72,1.33,8.54,1.75,11.21.19,1.29.34,2.3.44,3l.11.79C193.52,319.31,193.52,319.4,193.52,319.4Z"/><path class="cls-5" d="M299.61,151.54c0,.14-34.54.85-77.16,1.58s-77.18,1.19-77.18,1,34.54-.85,77.17-1.58S299.61,151.4,299.61,151.54Z"/><path class="cls-5" d="M303.92,175.59c0,.14-34.55.85-77.16,1.58s-77.18,1.19-77.18,1.05,34.54-.85,77.17-1.58S303.92,175.45,303.92,175.59Z"/><path class="cls-5" d="M313.58,199.55c0,.14-34.54.85-77.16,1.57s-77.17,1.2-77.18,1.06,34.54-.85,77.17-1.58S313.58,199.4,313.58,199.55Z"/><path class="cls-5" d="M323.72,226.71c0,.15-34.54.85-77.16,1.58s-77.18,1.2-77.18,1.05,34.54-.84,77.17-1.57S323.72,226.57,323.72,226.71Z"/><path class="cls-5" d="M335.15,252c0,.14-34.55.85-77.17,1.57s-77.17,1.2-77.18,1.06,34.55-.85,77.17-1.58S335.14,251.83,335.15,252Z"/><path class="cls-5" d="M426.52,330.11c-.08-.07,1.19-1.44,2.8-3.94a33.8,33.8,0,0,0,2.48-4.61,34.83,34.83,0,0,0,3-12.38,36.09,36.09,0,0,0-.12-5.22c-.3-3-.81-4.76-.71-4.79a7.44,7.44,0,0,1,.4,1.25,12.52,12.52,0,0,1,.34,1.49,18.33,18.33,0,0,1,.33,2,30.86,30.86,0,0,1,.23,5.29,34.91,34.91,0,0,1-.89,6.42,35.76,35.76,0,0,1-2.12,6.13,31.28,31.28,0,0,1-2.61,4.61c-.4.64-.84,1.16-1.2,1.64a13.8,13.8,0,0,1-1,1.17A7.42,7.42,0,0,1,426.52,330.11Z"/><path class="cls-5" d="M411.14,335.81c-.07-.07,1.18-1.2,3-3.24a45.93,45.93,0,0,0,5.94-8.69,46.42,46.42,0,0,0,3.75-9.85c.66-2.62.88-4.29,1-4.28a5.31,5.31,0,0,1-.08,1.19,28,28,0,0,1-.54,3.18,40.28,40.28,0,0,1-3.64,10,40.81,40.81,0,0,1-6.13,8.7,28.7,28.7,0,0,1-2.3,2.26A5,5,0,0,1,411.14,335.81Z"/></g><g id="Button"><circle class="cls-4" cx="355.78" cy="142.09" r="37.17" transform="translate(-26.91 159.82) rotate(-24.42)"/><path class="cls-8" d="M354.88,129.13q.21,12.93.44,25.86c.05,3.21,5.05,3.22,5,0q-.22-12.93-.44-25.86c-.06-3.21-5.06-3.22-5,0Z"/><path class="cls-8" d="M343.76,144.8l27.67-.48c3.21,0,3.22-5,0-5l-27.67.48c-3.21,0-3.22,5,0,5Z"/></g></g></svg>