<svg width="384" height="512" viewBox="0 0 384 512" fill="none" xmlns="http://www.w3.org/2000/svg">
<path d="M41.3799 214.6C28.8799 202.1 28.8799 181.85 41.3799 169.35L169.38 41.35C181.88 28.85 202.13 28.85 214.63 41.35L342.63 169.35C355.13 181.85 355.13 202.1 342.63 214.6C336.4 220.9 328.2 224 320 224C311.8 224 303.62 220.875 297.38 214.625L224 141.3V320C224 337.69 209.69 352 192 352C174.31 352 160 337.69 160 320V141.3L86.6299 214.6C74.1299 227.1 53.8799 227.1 41.3799 214.6Z" fill="white"/>
<path opacity="0.4" d="M352 416H32C14.31 416 0 430.31 0 448C0 465.69 14.31 480 32 480H352C369.69 480 384 465.69 384 448C384 430.31 369.7 416 352 416Z" fill="white"/>
</svg>
