<svg width="448" height="512" viewBox="0 0 448 512" fill="none" xmlns="http://www.w3.org/2000/svg">
<g clip-path="url(#clip0_289_1145)">
<path d="M265.4 105.4C277.9 92.8999 298.15 92.8999 310.65 105.4L438.65 233.4C451.15 245.9 451.15 266.15 438.65 278.65L310.65 406.65C298.15 419.15 277.9 419.15 265.4 406.65C259.1 400.4 256 392.2 256 384C256 375.8 259.125 367.62 265.375 361.38L338.8 288H160C142.3 288 128 273.7 128 256C128 238.3 142.31 224 160 224H338.8L265.42 150.62C252.9 138.1 252.9 117.9 265.4 105.4Z" fill="white"/>
<path opacity="0.4" d="M64 416V96C64 78.31 49.69 64 32 64C14.31 64 0 78.31 0 96V416C0 433.69 14.31 448 32 448C49.69 448 64 433.7 64 416Z" fill="white"/>
</g>
<defs>
<clipPath id="clip0_289_1145">
<rect width="448" height="512" fill="white"/>
</clipPath>
</defs>
</svg>
