<svg width="62" height="81" viewBox="0 0 62 81" fill="none" xmlns="http://www.w3.org/2000/svg">
<path d="M35.7693 76.2355H26.2309C25.9177 76.2353 25.6076 76.2968 25.3182 76.4165C25.0288 76.5361 24.7659 76.7116 24.5444 76.9328C24.323 77.1541 24.1473 77.4168 24.0276 77.7059C23.9078 77.995 23.8462 78.3048 23.8464 78.6177C23.8462 78.9306 23.9078 79.2405 24.0276 79.5296C24.1473 79.8187 24.323 80.0814 24.5444 80.3027C24.7659 80.5239 25.0288 80.6994 25.3182 80.819C25.6076 80.9387 25.9177 81.0002 26.2309 81H35.7693C37.0875 81 38.1539 79.9344 38.1539 78.6177C38.1539 77.3011 37.0872 76.2355 35.7693 76.2355ZM54.8461 26.206H62V21.4412C62 15.618 57.7966 10.7577 52.2613 9.72942C51.232 4.19941 46.3674 0 40.5384 0C36.6424 0 33.1773 1.87749 31 4.77177C28.8227 1.87749 25.3573 0 21.4616 0C15.6329 0 10.768 4.19941 9.73868 9.72942C4.2034 10.7577 0 15.6178 0 21.4412V26.206H7.15387C7.46706 26.2058 7.77721 26.2673 8.0666 26.387C8.35598 26.5066 8.61892 26.6821 8.84038 26.9034C9.06184 27.1246 9.23747 27.3873 9.35725 27.6764C9.47702 27.9655 9.53858 28.2754 9.5384 28.5883C9.53858 28.9012 9.47702 29.211 9.35725 29.5001C9.23747 29.7892 9.06184 30.0519 8.84038 30.2732C8.61892 30.4944 8.35598 30.6699 8.0666 30.7896C7.77721 30.9092 7.46706 30.9707 7.15387 30.9705H0V35.7353C0 41.5585 4.2034 46.4188 9.73868 47.4471C10.768 52.9771 15.6329 57.1765 21.4616 57.1765C25.3576 57.1765 28.8227 55.299 31 52.4048C33.1773 55.299 36.6427 57.1765 40.5384 57.1765C46.3671 57.1765 51.232 52.9771 52.2613 47.4471C57.7966 46.4188 62 41.5588 62 35.7353V30.9705H54.8461C53.5282 30.9705 52.4616 29.9049 52.4616 28.5883C52.4616 27.2716 53.5282 26.206 54.8461 26.206ZM21.4616 42.8824C21.1484 42.8826 20.8383 42.8211 20.5489 42.7014C20.2595 42.5818 19.9965 42.4063 19.7751 42.185C19.5536 41.9638 19.378 41.7011 19.2582 41.412C19.1384 41.1229 19.0769 40.813 19.0771 40.5001C19.0771 39.1856 18.0083 38.1179 16.6923 38.1179C16.3791 38.118 16.0689 38.0565 15.7795 37.9369C15.4902 37.8172 15.2272 37.6418 15.0058 37.4205C14.7843 37.1993 14.6087 36.9366 14.4889 36.6475C14.3691 36.3584 14.3076 36.0485 14.3077 35.7356C14.3076 35.4227 14.3691 35.1129 14.4889 34.8237C14.6087 34.5346 14.7843 34.2719 15.0058 34.0507C15.2272 33.8294 15.4902 33.654 15.7795 33.5343C16.0689 33.4147 16.3791 33.3532 16.6923 33.3533C20.6371 33.3533 23.8461 36.5593 23.8461 40.5004C23.8463 40.8133 23.7847 41.1231 23.6649 41.4122C23.5451 41.7013 23.3695 41.9639 23.148 42.1851C22.9266 42.4064 22.6636 42.5818 22.3743 42.7015C22.0849 42.8211 21.7748 42.8826 21.4616 42.8824ZM16.6923 23.8235C15.3744 23.8235 14.3077 22.7579 14.3077 21.4412C14.3077 20.1245 15.3744 19.0589 16.6923 19.0589C18.008 19.0589 19.0771 17.9912 19.0771 16.6767C19.0771 15.3597 20.1437 14.2944 21.4616 14.2944C22.7795 14.2944 23.8461 15.36 23.8461 16.6767C23.8461 20.6175 20.6371 23.8235 16.6923 23.8235ZM33.3845 35.7353C33.3845 37.052 32.3179 38.1176 31 38.1176C29.6821 38.1176 28.6155 37.052 28.6155 35.7353V21.4412C28.6155 20.1243 29.6821 19.0589 31 19.0589C32.3179 19.0589 33.3845 20.1245 33.3845 21.4412V35.7353ZM45.3077 38.1179C43.992 38.1179 42.9229 39.1856 42.9229 40.5001C42.9229 41.8171 41.8563 42.8824 40.5384 42.8824C39.2205 42.8824 38.1539 41.8168 38.1539 40.5001C38.1539 36.559 41.3629 33.3531 45.3077 33.3531C45.6209 33.3529 45.9311 33.4144 46.2205 33.534C46.5098 33.6537 46.7728 33.8292 46.9942 34.0504C47.2157 34.2717 47.3913 34.5344 47.5111 34.8235C47.6309 35.1126 47.6924 35.4224 47.6923 35.7353C47.6925 36.0483 47.631 36.3582 47.5113 36.6473C47.3915 36.9365 47.2159 37.1992 46.9944 37.4205C46.7729 37.6418 46.51 37.8173 46.2206 37.9369C45.9311 38.0566 45.621 38.1181 45.3077 38.1179ZM45.3077 23.8235C41.3629 23.8235 38.1539 20.6175 38.1539 16.6764C38.1537 16.3635 38.2153 16.0536 38.335 15.7645C38.4548 15.4754 38.6304 15.2127 38.8519 14.9915C39.0733 14.7702 39.3363 14.5948 39.6257 14.4751C39.9151 14.3555 40.2252 14.294 40.5384 14.2941C40.8516 14.294 41.1617 14.3555 41.4511 14.4751C41.7405 14.5948 42.0034 14.7702 42.2249 14.9915C42.4464 15.2127 42.622 15.4754 42.7418 15.7645C42.8615 16.0536 42.9231 16.3635 42.9229 16.6764C42.9229 17.9909 43.9917 19.0587 45.3077 19.0587C46.6256 19.0587 47.6923 20.1243 47.6923 21.4409C47.6923 22.7576 46.6259 23.8235 45.3077 23.8235ZM31 58.9355C28.2265 60.8618 24.8918 61.9413 21.4616 61.9413C20.6527 61.9413 19.8586 61.8697 19.0771 61.7576V64.3239C19.0771 68.265 22.2861 71.4709 26.2309 71.4709H35.7693C39.7142 71.4709 42.9232 68.265 42.9232 64.3239V61.7576C42.1417 61.87 41.3476 61.9413 40.5387 61.9413C37.1082 61.9413 33.7735 60.8618 31 58.9355Z" fill="#00C0FF"/>
</svg>
