<svg width="75" height="75" viewBox="0 0 75 75" fill="none" xmlns="http://www.w3.org/2000/svg">
<path d="M65.7757 9.2245C59.8274 3.27591 51.9186 0 43.5062 0H39.1118C39.1118 8.07715 45.6829 14.6483 53.7601 14.6483C54.3429 14.6483 54.9018 14.8798 55.3139 15.2919C55.726 15.704 55.9575 16.2629 55.9575 16.8457C55.9575 17.4285 55.726 17.9874 55.3139 18.3995C54.9018 18.8115 54.3429 19.043 53.7601 19.043C49.0758 19.043 44.7822 17.3421 41.4618 14.5267C39.5695 15.8583 37.4216 16.783 35.1536 17.2421C34.8709 17.2994 34.5796 17.3004 34.2964 17.2451C34.0132 17.1898 33.7436 17.0793 33.5032 16.9199C33.2627 16.7604 33.056 16.5552 32.8948 16.3159C32.7337 16.0765 32.6212 15.8078 32.5639 15.525C32.5066 15.2422 32.5056 14.9509 32.5608 14.6677C32.6161 14.3845 32.7266 14.115 32.8861 13.8745C33.0455 13.634 33.2508 13.4273 33.4901 13.2662C33.7294 13.105 33.9982 12.9926 34.281 12.9353C35.7511 12.6378 37.1547 12.075 38.4231 11.2743C36.0951 8.11589 34.7171 4.21614 34.7171 0.000248208H31.4943C23.0819 0.000248208 15.1731 3.27616 9.2245 9.22475C6.92037 11.5291 5.01904 14.1286 3.55182 16.9366C9.88758 17.9831 14.6486 23.4556 14.6486 30.0296C14.6486 30.6123 14.4171 31.1712 14.005 31.5833C13.5929 31.9954 13.034 32.2269 12.4512 32.2269C11.8685 32.2269 11.3096 31.9954 10.8975 31.5833C10.4854 31.1712 10.2539 30.6123 10.2539 30.0296C10.2539 25.2733 6.52848 21.376 1.77293 21.157C1.75877 21.1562 1.74536 21.154 1.73146 21.153C0.59404 24.4349 0 27.9186 0 31.4945V41.0161H50.2435C50.5403 38.7857 51.2813 36.6374 52.4228 34.6984C50.9553 33.5987 49.2614 32.8395 47.4641 32.4757C47.1813 32.4185 46.9125 32.3061 46.6732 32.1449C46.4338 31.9838 46.2285 31.777 46.0691 31.5366C45.9096 31.2961 45.7991 31.0265 45.7439 30.7433C45.6886 30.4601 45.6897 30.1688 45.747 29.886V29.8858C45.8043 29.603 45.9167 29.3342 46.0778 29.0948C46.239 28.8555 46.4457 28.6502 46.6862 28.4908C46.9267 28.3313 47.1962 28.2208 47.4794 28.1656C47.7626 28.1103 48.054 28.1114 48.3368 28.1687C50.7991 28.6669 53.1176 29.7132 55.1203 31.2298C57.3857 28.9873 60.2906 27.3695 63.5774 26.7037C63.8602 26.6464 64.1516 26.6453 64.4348 26.7005C64.718 26.7558 64.9876 26.8663 65.2281 27.0258C65.4686 27.1853 65.6753 27.3906 65.8364 27.63C65.9976 27.8694 66.1099 28.1382 66.1671 28.421C66.2245 28.7038 66.2255 28.9952 66.1703 29.2784C66.115 29.5616 66.0045 29.8312 65.845 30.0717C65.6855 30.3121 65.4802 30.5189 65.2408 30.68C65.0014 30.8411 64.7327 30.9535 64.4498 31.0108C59.4102 32.0317 55.578 36.0762 54.6887 41.0161H65.4785C70.7372 41.0161 75 36.7532 75 31.4945C75.0003 23.0816 71.7243 15.1728 65.7757 9.2245ZM31.4943 27.832C29.475 27.832 27.8322 29.4748 27.8322 31.494C27.8322 32.0768 27.6007 32.6357 27.1886 33.0478C26.7765 33.4599 26.2176 33.6914 25.6349 33.6914C25.0521 33.6914 24.4932 33.4599 24.0811 33.0478C23.669 32.6357 23.4375 32.0768 23.4375 31.494C23.4375 29.4087 24.2337 27.5061 25.5382 26.0739C22.5132 24.115 20.5078 20.7104 20.5078 16.8457C20.5078 16.2629 20.7393 15.704 21.1514 15.2919C21.5635 14.8798 22.1224 14.6483 22.7051 14.6483C23.2879 14.6483 23.8468 14.8798 24.2589 15.2919C24.671 15.704 24.9025 16.2629 24.9025 16.8457C24.9025 20.4805 27.8595 23.4375 31.4943 23.4375C32.073 23.4437 32.6259 23.6779 33.0329 24.0892C33.44 24.5006 33.6683 25.056 33.6683 25.6347C33.6683 26.2135 33.44 26.7688 33.0329 27.1802C32.6259 27.5916 32.073 27.8258 31.4943 27.832ZM0.000248208 45.4103H48.602C48.2265 50.3193 44.1149 54.1994 39.1115 54.1994H27.6591C26.6024 60.8325 20.8421 65.9183 13.9162 65.9183C6.24288 65.9183 0.000248208 59.6757 0.000248208 52.0023V45.4103ZM30.9981 58.5939H34.424V70.6055C34.424 73.0326 32.4566 75 30.0296 75C27.6025 75 25.6351 73.0326 25.6351 70.6055V66.0623C25.7094 66.0002 25.7839 65.9384 25.8574 65.8753C28.1423 63.9066 29.9078 61.406 30.9981 58.5939Z" fill="#54D8B4"/>
</svg>
