<?xml version="1.0" encoding="utf-8"?>
<!-- Generator: Adobe Illustrator 25.0.1, SVG Export Plug-In . SVG Version: 6.00 Build 0)  -->
<svg version="1.1" id="Layer_1" xmlns="http://www.w3.org/2000/svg" xmlns:xlink="http://www.w3.org/1999/xlink" x="0px" y="0px"
	 viewBox="0 0 24 24" style="enable-background:new 0 0 24 24;" xml:space="preserve">
<style type="text/css">
	.st0{fill:#FFFFFF;}
	.st1{opacity:0.5;fill:#FFFFFF;enable-background:new    ;}
	.st2{fill-rule:evenodd;clip-rule:evenodd;fill:#FFFFFF;}
</style>
<g>
	<path class="st0" d="M7,2c0.4,0,0.8,0.3,0.8,0.7v1.4c0.7,0,1.4,0,2.3,0h4c0.8,0,1.6,0,2.3,0V2.7C16.3,2.3,16.6,2,17,2
		c0.4,0,0.8,0.3,0.8,0.7v1.5c1.5,0.1,2.4,0.4,3.1,1c0.7,0.6,1,1.5,1.1,2.8v1H2V8c0.1-1.3,0.4-2.2,1.1-2.8c0.7-0.6,1.7-0.9,3.1-1V2.7
		C6.2,2.3,6.5,2,7,2z"/>
	<path class="st1" d="M22,14v-2c0-0.8,0-2.3,0-3H2c0,0.7,0,2.2,0,3v2c0,3.8,0,5.7,1.2,6.8C4.3,22,6.2,22,10,22h4
		c3.8,0,5.7,0,6.8-1.2C22,19.7,22,17.8,22,14z"/>
	<path class="st2" d="M12,11c0.7,0,1.2,0.6,1.2,1.2v2.1h2.1c0.7,0,1.2,0.6,1.2,1.2c0,0.7-0.6,1.2-1.2,1.2h-2.1v2.1
		c0,0.7-0.6,1.2-1.2,1.2s-1.2-0.6-1.2-1.2v-2.1H8.7c-0.7,0-1.2-0.6-1.2-1.2c0-0.7,0.6-1.2,1.2-1.2h2.1v-2.1C10.8,11.5,11.3,11,12,11
		z"/>
</g>
</svg>
