<svg width="26" height="26" viewBox="0 0 26 26" fill="none" xmlns="http://www.w3.org/2000/svg">
<g filter="url(#filter0_d_80_2238)">
<g clip-path="url(#clip0_80_2238)">
<circle cx="13" cy="12" r="9.375" fill="#22C55E" stroke="#16A34A" stroke-width="1.25"/>
</g>
</g>
<path d="M18.5917 8.00837C18.5142 7.93026 18.4221 7.86827 18.3205 7.82596C18.219 7.78365 18.11 7.76187 18 7.76187C17.89 7.76187 17.7811 7.78365 17.6796 7.82596C17.578 7.86827 17.4858 7.93026 17.4084 8.00837L11.2 14.225L8.59171 11.6084C8.51127 11.5307 8.41632 11.4696 8.31227 11.4286C8.20823 11.3876 8.09713 11.3675 7.98531 11.3694C7.87349 11.3713 7.76315 11.3953 7.66058 11.4398C7.55802 11.4844 7.46524 11.5488 7.38754 11.6292C7.30984 11.7096 7.24875 11.8046 7.20774 11.9086C7.16674 12.0127 7.14663 12.1238 7.14856 12.2356C7.1505 12.3474 7.17444 12.4578 7.21902 12.5603C7.2636 12.6629 7.32794 12.7557 7.40837 12.8334L10.6084 16.0334C10.6858 16.1115 10.778 16.1735 10.8796 16.2158C10.9811 16.2581 11.09 16.2799 11.2 16.2799C11.3101 16.2799 11.419 16.2581 11.5205 16.2158C11.6221 16.1735 11.7142 16.1115 11.7917 16.0334L18.5917 9.23337C18.6763 9.15533 18.7438 9.06063 18.79 8.95521C18.8361 8.84979 18.86 8.73595 18.86 8.62087C18.86 8.50579 18.8361 8.39195 18.79 8.28653C18.7438 8.18112 18.6763 8.08641 18.5917 8.00837Z" fill="white"/>
<defs>
<filter id="filter0_d_80_2238" x="0.5" y="0.75" width="25" height="25" filterUnits="userSpaceOnUse" color-interpolation-filters="sRGB">
<feFlood flood-opacity="0" result="BackgroundImageFix"/>
<feColorMatrix in="SourceAlpha" type="matrix" values="0 0 0 0 0 0 0 0 0 0 0 0 0 0 0 0 0 0 127 0" result="hardAlpha"/>
<feOffset dy="1.25"/>
<feGaussianBlur stdDeviation="1.25"/>
<feColorMatrix type="matrix" values="0 0 0 0 0 0 0 0 0 0 0 0 0 0 0 0 0 0 0.05 0"/>
<feBlend mode="normal" in2="BackgroundImageFix" result="effect1_dropShadow_80_2238"/>
<feBlend mode="normal" in="SourceGraphic" in2="effect1_dropShadow_80_2238" result="shape"/>
</filter>
<clipPath id="clip0_80_2238">
<rect x="3" y="2" width="20" height="20" rx="10" fill="white"/>
</clipPath>
</defs>
</svg>
