<?xml version="1.0" encoding="utf-8"?>
<!-- Generator: Adobe Illustrator 25.0.1, SVG Export Plug-In . SVG Version: 6.00 Build 0)  -->
<svg version="1.1" id="Layer_1" xmlns="http://www.w3.org/2000/svg" xmlns:xlink="http://www.w3.org/1999/xlink" x="0px" y="0px"
	 viewBox="0 0 512 512" style="enable-background:new 0 0 512 512;" xml:space="preserve">
<style type="text/css">
	.st0{opacity:0.5;}
</style>
<path d="M256,192c17.7,0,32-14.3,32-32s-14.3-32-32-32s-32,14.3-32,32S238.3,192,256,192z M296,336h-16v-88c0-13.2-10.7-24-24-24
	h-32c-13.2,0-24,10.8-24,24c0,13.2,10.8,24,24,24h8v64h-16c-13.2,0-24,10.8-24,24s10.8,24,24,24h80c13.2,0,24-10.8,24-24
	S309.3,336,296,336z"/>
<path class="st0" d="M256,0C114.6,0,0,114.6,0,256s114.6,256,256,256s256-114.6,256-256S397.4,0,256,0z M256,128
	c17.7,0,32,14.3,32,32s-14.3,32-32,32s-32-14.3-32-32S238.3,128,256,128z M296,384h-80c-13.2,0-24-10.7-24-24s10.8-24,24-24h16v-64
	h-8c-13.2,0-24-10.8-24-24s10.8-24,24-24h32c13.2,0,24,10.8,24,24v88h16c13.2,0,24,10.8,24,24S309.3,384,296,384z"/>
</svg>
