<svg width="17" height="13" viewBox="0 0 17 13" fill="none" xmlns="http://www.w3.org/2000/svg">
<path d="M6.60036 5.64711C6.25161 5.53086 6.25161 5.03838 6.60036 4.92213L8.64742 4.24049C9.09741 4.09045 9.50627 3.83766 9.8416 3.50215C10.1769 3.16664 10.4295 2.75764 10.5793 2.30756L11.2609 0.261565C11.3772 -0.0871854 11.8697 -0.0871854 11.9859 0.261565L12.6676 2.30862C12.8176 2.75862 13.0704 3.16748 13.4059 3.5028C13.7414 3.83813 14.1504 4.09069 14.6005 4.24049L16.6465 4.92213C16.7228 4.9472 16.7893 4.99574 16.8365 5.06083C16.8836 5.12593 16.909 5.20425 16.909 5.28462C16.909 5.365 16.8836 5.44332 16.8365 5.50841C16.7893 5.57351 16.7228 5.62205 16.6465 5.64711L14.5994 6.32876C14.1495 6.47869 13.7407 6.73132 13.4054 7.06664C13.0701 7.40195 12.8175 7.81074 12.6676 8.26062L11.9859 10.3077C11.9608 10.384 11.9123 10.4505 11.8472 10.4977C11.7821 10.5448 11.7038 10.5702 11.6234 10.5702C11.543 10.5702 11.4647 10.5448 11.3996 10.4977C11.3345 10.4505 11.286 10.384 11.2609 10.3077L10.5793 8.26062C10.4293 7.81074 10.1767 7.40195 9.8414 7.06664C9.50609 6.73132 9.0973 6.47869 8.64742 6.32876L6.60036 5.64711ZM1.21164 9.7296C1.16588 9.71445 1.12605 9.68525 1.09782 9.64617C1.0696 9.60709 1.0544 9.56011 1.0544 9.5119C1.0544 9.46369 1.0696 9.4167 1.09782 9.37762C1.12605 9.33854 1.16588 9.30935 1.21164 9.29419L2.43967 8.8852C2.9871 8.70237 3.41617 8.2733 3.599 7.72587L4.00799 6.49785C4.02314 6.45208 4.05233 6.41226 4.09141 6.38403C4.1305 6.3558 4.17748 6.34061 4.22569 6.34061C4.2739 6.34061 4.32088 6.3558 4.35997 6.38403C4.39905 6.41226 4.42824 6.45208 4.44339 6.49785L4.85238 7.72587C4.94234 7.99586 5.09393 8.24119 5.29516 8.44242C5.49639 8.64365 5.74172 8.79525 6.01171 8.8852L7.23974 9.29419C7.2855 9.30935 7.32533 9.33854 7.35356 9.37762C7.38178 9.4167 7.39698 9.46368 7.39698 9.51189C7.39698 9.5601 7.38178 9.60709 7.35356 9.64617C7.32533 9.68525 7.2855 9.71445 7.23974 9.7296L6.01171 10.1386C5.74172 10.2285 5.49639 10.3801 5.29516 10.5814C5.09393 10.7826 4.94234 11.0279 4.85238 11.2979L4.44339 12.5259C4.42824 12.5717 4.39905 12.6115 4.35997 12.6398C4.32088 12.668 4.2739 12.6832 4.22569 12.6832C4.17748 12.6832 4.1305 12.668 4.09141 12.6398C4.05233 12.6115 4.02314 12.5717 4.00799 12.5259L3.599 11.2979C3.50904 11.0279 3.35745 10.7826 3.15622 10.5814C2.95499 10.3801 2.70966 10.2285 2.43967 10.1386L1.21164 9.7296ZM0.103042 2.25895C0.0729506 2.24852 0.0468573 2.22897 0.0283902 2.20302C0.00992297 2.17707 -4.60594e-07 2.14602 -4.61986e-07 2.11417C-4.63378e-07 2.08232 0.00992296 2.05126 0.0283901 2.02531C0.0468573 1.99937 0.0729506 1.97982 0.103042 1.96938L0.921019 1.69672C1.28668 1.57519 1.57308 1.28879 1.69461 0.923134L1.96727 0.105156C1.9777 0.0750647 1.99725 0.0489712 2.0232 0.030504C2.04915 0.0120368 2.0802 0.00211357 2.11205 0.00211356C2.1439 0.00211356 2.17496 0.0120368 2.20091 0.030504C2.22686 0.0489712 2.2464 0.0750647 2.25684 0.105156L2.5295 0.923134C2.58944 1.10333 2.69057 1.26708 2.82486 1.40136C2.95914 1.53565 3.12289 1.63678 3.30309 1.69672L4.12106 1.96938C4.15116 1.97982 4.17725 1.99937 4.19572 2.02531C4.21418 2.05126 4.22411 2.08232 4.22411 2.11417C4.22411 2.14602 4.21418 2.17707 4.19572 2.20302C4.17725 2.22897 4.15116 2.24852 4.12106 2.25895L3.30309 2.53161C3.12289 2.59156 2.95914 2.69269 2.82486 2.82697C2.69057 2.96126 2.58944 3.125 2.5295 3.3052L2.25684 4.12212C2.24641 4.15221 2.22686 4.17831 2.20091 4.19677C2.17496 4.21524 2.1439 4.22516 2.11205 4.22516C2.0802 4.22516 2.04915 4.21524 2.0232 4.19677C1.99725 4.17831 1.9777 4.15221 1.96727 4.12212L1.69461 3.30415C1.57308 2.93849 1.28668 2.65209 0.921019 2.53055L0.104099 2.25895L0.103042 2.25895Z" fill="white"/>
</svg>
