<svg width="24" height="24" viewBox="0 0 24 24" fill="none" xmlns="http://www.w3.org/2000/svg">
<path opacity="0.5" d="M3 9.99976C3 6.22852 3 4.3429 4.17157 3.17133C5.34315 1.99976 7.22876 1.99976 11 1.99976H13C16.7712 1.99976 18.6569 1.99976 19.8284 3.17133C21 4.3429 21 6.22852 21 9.99976V13.9998C21 17.771 21 19.6566 19.8284 20.8282C18.6569 21.9998 16.7712 21.9998 13 21.9998H11C7.22876 21.9998 5.34315 21.9998 4.17157 20.8282C3 19.6566 3 17.771 3 13.9998V9.99976Z" fill="white"/>
<path fill-rule="evenodd" clip-rule="evenodd" d="M7.25 11.9998C7.25 11.5855 7.58579 11.2498 8 11.2498H16C16.4142 11.2498 16.75 11.5855 16.75 11.9998C16.75 12.414 16.4142 12.7498 16 12.7498H8C7.58579 12.7498 7.25 12.414 7.25 11.9998Z" fill="white"/>
<path fill-rule="evenodd" clip-rule="evenodd" d="M7.25 7.99976C7.25 7.58554 7.58579 7.24976 8 7.24976H16C16.4142 7.24976 16.75 7.58554 16.75 7.99976C16.75 8.41397 16.4142 8.74976 16 8.74976H8C7.58579 8.74976 7.25 8.41397 7.25 7.99976Z" fill="white"/>
<path fill-rule="evenodd" clip-rule="evenodd" d="M7.25 15.9998C7.25 15.5855 7.58579 15.2498 8 15.2498H13C13.4142 15.2498 13.75 15.5855 13.75 15.9998C13.75 16.414 13.4142 16.7498 13 16.7498H8C7.58579 16.7498 7.25 16.414 7.25 15.9998Z" fill="white"/>
</svg>
