<svg width="26" height="20" viewBox="0 0 26 20" fill="none" xmlns="http://www.w3.org/2000/svg">
<path d="M23.5625 0C24.9082 0 26 1.11927 26 2.5C26 3.28646 25.6395 4.02604 25.025 4.5L13.975 13C13.3961 13.4427 12.6039 13.4427 12.025 13L0.975 4.5C0.361207 4.02604 0 3.28646 0 2.5C0 1.11927 1.09129 0 2.4375 0H23.5625ZM11.05 14.3333C12.2078 15.224 13.7922 15.224 14.95 14.3333L26 5.83333V16.6667C26 18.5052 24.5426 20 22.75 20H3.25C1.45488 20 0 18.5052 0 16.6667V5.83333L11.05 14.3333Z" fill="#00B2FF"/>
</svg>
