<svg width="140" height="34" viewBox="0 0 140 34" fill="none" xmlns="http://www.w3.org/2000/svg">
<path fill-rule="evenodd" clip-rule="evenodd" d="M44.0153 4.24087C44.0574 5.16925 43.7255 6.07467 43.0971 6.74584C42.3949 7.49208 41.4155 7.89741 40.4036 7.86055C38.8517 7.84813 37.4582 6.88514 36.8675 5.41685C36.2768 3.94855 36.6041 2.2611 37.698 1.13471C38.4087 0.392395 39.3882 -0.015678 40.4036 0.00747362C40.9212 0.00570941 41.4337 0.112267 41.9095 0.320595C42.3525 0.503399 42.7469 0.790974 43.0604 1.15976L42.4115 1.82358C41.9161 1.22073 41.1724 0.891339 40.4036 0.934312C39.6309 0.930434 38.89 1.2488 38.3518 1.81599C37.8135 2.38318 37.5244 3.15023 37.551 3.94028C37.5346 5.13413 38.2219 6.22085 39.2931 6.69481C40.3643 7.16878 41.6091 6.9369 42.4482 6.10707C42.8249 5.68942 43.0422 5.14705 43.0604 4.57904H40.4036V3.67725H43.9663C43.999 3.86327 44.0154 4.05188 44.0153 4.24087ZM49.6226 1.10966H46.317V3.48938H49.3287V4.39117H46.317V6.77089H49.6226V7.69773H45.3375V0.182821H49.6226V1.10966ZM53.6382 7.69773H52.6955V1.10966H50.6387V0.182821H55.744V1.10966H53.6382V7.69773ZM59.3434 7.69773V0.182821H60.2861V7.69773H59.3434ZM64.4732 7.69773H63.5305V1.10966H61.4737V0.182821H66.5178V1.10966H64.4732V7.69773ZM76.0795 6.72079C74.5895 8.23658 72.1826 8.23658 70.6926 6.72079C69.2483 5.15673 69.2483 2.7113 70.6926 1.14723C71.4052 0.412961 72.3747 0 73.3861 0C74.3974 0 75.367 0.412961 76.0795 1.14723C77.53 2.70878 77.53 5.15924 76.0795 6.72079ZM71.3905 6.09455C72.494 7.21874 74.2782 7.21874 75.3817 6.09455C76.4654 4.87234 76.4654 3.00821 75.3817 1.786C74.2782 0.661815 72.494 0.661815 71.3905 1.786C70.3067 3.00821 70.3067 4.87234 71.3905 6.09455ZM78.4914 7.69773V0.182821H79.6422L83.2171 6.03192V0.182821H84.1598V7.69773H83.1804L79.4463 1.57308V7.69773H78.4914ZM69.3826 18.657C70.7729 18.6297 72.1144 19.1809 73.0999 20.1844C74.0854 21.1879 74.6305 22.5577 74.6104 23.98C74.6103 26.9166 72.2857 29.2984 69.4153 29.303C66.5448 29.3076 64.2129 26.9332 64.2039 23.9967C64.1949 21.0601 66.5122 18.6708 69.3826 18.657ZM69.3826 27.2114C70.1947 27.1922 70.9647 26.8382 71.518 26.2297C72.0712 25.6213 72.3608 24.81 72.3209 23.98C72.3178 22.6532 71.5221 21.4632 70.3146 20.9792C69.107 20.4952 67.7329 20.8155 66.8495 21.787C65.9662 22.7585 65.7531 24.1836 66.3121 25.3809C66.8712 26.5781 68.0888 27.304 69.3826 27.2114ZM57.9845 18.657H57.9722C59.3625 18.6297 60.704 19.1809 61.6895 20.1844C62.675 21.1879 63.2201 22.5577 63.2 23.98C63.2 26.9182 60.8729 29.3008 58.0008 29.3031C55.1287 29.3054 52.798 26.9266 52.7935 23.9884C52.789 21.0502 55.1124 18.6639 57.9845 18.657ZM57.9845 27.2114H57.9722C58.7843 27.1922 59.5543 26.8382 60.1076 26.2297C60.6608 25.6213 60.9504 24.81 60.9105 23.98C60.907 22.6521 60.1098 21.4616 58.9007 20.9787C57.6916 20.4957 56.3168 20.8187 55.4347 21.7928C54.5526 22.767 54.3428 24.194 54.9058 25.3904C55.4688 26.5869 56.69 27.3092 57.9845 27.2114ZM44.4071 20.2977L51.8385 20.2351C51.9239 20.7017 51.9649 21.1757 51.961 21.6504C52.0186 23.599 51.3337 25.4942 50.0511 26.9359C48.5853 28.5061 46.5273 29.351 44.4071 29.253C41.443 29.371 38.6534 27.8206 37.1371 25.2124C35.6207 22.6042 35.6207 19.3564 37.1371 16.7483C38.6534 14.1401 41.443 12.5897 44.4071 12.7077C46.4893 12.6892 48.49 13.5341 49.9531 15.0498L48.3983 16.6405C47.3255 15.5809 45.8858 14.9999 44.3948 15.0248C41.1493 15.0248 38.5182 17.7164 38.5182 21.0367C38.5182 24.357 41.1493 27.0486 44.3948 27.0486C45.921 27.1108 47.4017 26.5103 48.4717 25.3953C49.1816 24.616 49.6131 23.6141 49.696 22.5522H44.4071V20.2977ZM99.8798 22.0512L100.137 22.6148L93.1706 25.5582C93.6073 26.5754 94.6075 27.2162 95.6927 27.1739C96.7405 27.1766 97.7124 26.6152 98.2514 25.6959L100.027 26.9484C99.0603 28.4282 97.4322 29.3127 95.6927 29.3031C94.3099 29.3238 92.9783 28.7684 92.0039 27.7645C91.0295 26.7606 90.4961 25.3945 90.5262 23.98C90.4416 22.5979 90.9199 21.2417 91.8476 20.2333C92.7754 19.2249 94.0697 18.6543 95.4233 18.657C97.4531 18.7334 99.2261 20.0838 99.8798 22.0512ZM92.7789 23.8297L97.4312 21.8508C97.0652 21.1127 96.3041 20.6692 95.4968 20.7236C94.7309 20.7589 94.0112 21.1081 93.4999 21.6925C92.9886 22.2768 92.7287 23.0471 92.7789 23.8297ZM87.1226 28.99V13.3339H89.4121V28.99H87.1226ZM83.3763 19.8468V18.9701H85.4821V28.4514C85.4821 32.3842 83.2661 33.9999 80.5849 33.9999C78.5639 34.0123 76.7378 32.7685 75.9693 30.8562L77.9649 30.0045C78.3821 31.1205 79.4173 31.8678 80.5849 31.8957C82.2989 31.8957 83.3641 30.8061 83.3641 28.7645V28.0005H83.2906C82.6026 28.8125 81.5984 29.2711 80.5482 29.253C77.7692 29.1151 75.5853 26.77 75.5853 23.9237C75.5853 21.0774 77.7692 18.7322 80.5482 18.5943C81.595 18.5929 82.5927 19.0486 83.2906 19.8468H83.3763ZM80.7563 27.2114H80.7441C81.5397 27.1801 82.2882 26.8171 82.8155 26.2067C83.3428 25.5963 83.603 24.7917 83.5355 23.98C83.5959 23.1721 83.3349 22.3734 82.8117 21.765C82.2885 21.1566 81.5473 20.7901 80.7563 20.7486C79.1193 20.8962 77.8638 22.2988 77.8638 23.98C77.8638 25.6612 79.1193 27.0638 80.7563 27.2114ZM110.617 13.3339C112.395 13.2032 114.096 14.0998 115.024 15.6573C115.953 17.2148 115.953 19.1723 115.024 20.7298C114.096 22.2873 112.395 23.1839 110.617 23.0532H107.421V28.99H105.132V13.3339H110.617ZM110.605 20.8488L110.654 20.8864C112.104 20.8864 113.28 19.6836 113.28 18.1998C113.28 16.7161 112.104 15.5132 110.654 15.5132H107.409V20.8488H110.605ZM124.721 18.5943L124.782 18.6319C127.39 18.6319 129.422 20.2226 129.422 22.9655V28.99H127.218V27.7375H127.145C126.508 28.7504 125.381 29.3267 124.206 29.2405C123.253 29.3125 122.312 28.9872 121.598 28.3384C120.883 27.6897 120.455 26.7727 120.411 25.7961C120.411 23.5291 122.627 22.2767 124.819 22.2767C125.651 22.2731 126.471 22.4796 127.206 22.8778V22.715C127.148 22.1133 126.855 21.5608 126.395 21.1816C125.934 20.8024 125.344 20.6284 124.757 20.6985C123.902 20.6269 123.085 21.0789 122.676 21.8508L120.644 20.9866C121.416 19.4299 123.017 18.4902 124.721 18.5943ZM124.439 27.1739L124.5 27.2114C125.879 27.177 127.023 26.1085 127.181 24.7065C126.546 24.3437 125.827 24.1621 125.1 24.1804C123.949 24.1804 122.652 24.5937 122.652 25.8462C122.652 26.7856 123.692 27.1739 124.439 27.1739ZM137.453 18.9701H140L133.731 33.7369H131.344L133.67 28.4639L129.593 18.9701H132.042L134.76 25.7586H134.833L137.453 18.9701ZM116.873 28.99V13.3339H119.162V28.99H116.873ZM26.2198 15.9583C26.5293 16.1373 26.7142 16.4576 26.7142 16.8151C26.7142 17.1726 26.5292 17.493 26.2197 17.6715L20.6022 20.9138L16.6588 17.1019L20.9736 12.931L26.2198 15.9583ZM20.0831 12.4166L15.9478 16.4144L1.65731 2.6L14.3099 9.08374L20.0831 12.4166ZM1.86743 31.4L15.9478 17.7893L19.7118 21.4282L14.3316 24.5341L1.86743 31.4ZM0.813193 3.15919L15.2367 17.1016L0.799805 31.0574L0.813193 3.15919Z" fill="white"/>
</svg>
