<svg id="Layer_1" data-name="Layer 1" xmlns="http://www.w3.org/2000/svg" viewBox="0 0 427.61 512"><defs><style>.cls-1{fill:#002987;}.cls-2{fill:#0085cc;}.cls-3{fill:#00186a;}</style></defs><path class="cls-1" d="M428.88,132.28a177.52,177.52,0,0,0,1.32-21.5A110.78,110.78,0,0,0,319.41,0H134.27a23.85,23.85,0,0,0-23.52,19.89L42.53,425.37a23.85,23.85,0,0,0,23.52,27.81h67.71a24,24,0,0,0,23.71-19.89l.32-1.89h0l-9.44,56.09A21,21,0,0,0,169.08,512h59.24a21,21,0,0,0,20.73-17.54l16.83-100a35.8,35.8,0,0,1,35.31-29.86h15.56A153.06,153.06,0,0,0,469.81,211.52a97.07,97.07,0,0,0-40.93-79.24Z" transform="translate(-42.19)"/><path class="cls-2" d="M428.88,132.28A174.44,174.44,0,0,1,255.79,285.19H204.12a25.92,25.92,0,0,0-24.89,18.75L148.35,487.49A21,21,0,0,0,169.08,512h59.24a21,21,0,0,0,20.73-17.54l16.83-100a35.8,35.8,0,0,1,35.31-29.87h15.56A153.06,153.06,0,0,0,469.81,211.52,97.08,97.08,0,0,0,428.88,132.28Z" transform="translate(-42.19)"/><path class="cls-3" d="M204.12,285.19h51.67A174.44,174.44,0,0,0,428.88,132.28a96.81,96.81,0,0,0-56.29-18H237.74a31.44,31.44,0,0,0-31,26.23l-27.5,163.41a25.92,25.92,0,0,1,24.89-18.75Z" transform="translate(-42.19)"/></svg>