<svg width="20" height="20" viewBox="0 0 20 20" fill="none" xmlns="http://www.w3.org/2000/svg">
<path d="M19.9706 15.1167L19.0624 19.054C18.9348 19.6106 18.4455 20 17.8724 20C8.01638 19.9992 0 11.984 0 2.12903C0 1.5564 0.389451 1.06658 0.946183 0.939636L4.88406 0.0314783C5.45755 -0.101406 6.04354 0.196236 6.28184 0.739255L8.0992 4.97732C8.31165 5.47652 8.16835 6.05813 7.74839 6.40108L5.64507 8.08967C6.97253 10.7934 9.17118 12.9918 11.8761 14.3198L13.5982 12.2184C13.9376 11.7973 14.5236 11.6516 15.0229 11.8678L19.2616 13.6845C19.7714 13.9526 20.1035 14.5464 19.9706 15.1167Z" fill="#00B2FF"/>
</svg>
