<svg width="74" height="74" viewBox="0 0 74 74" fill="none" xmlns="http://www.w3.org/2000/svg">
<path d="M37.0011 74C33.9972 74 31.1163 72.8066 28.9922 70.6824C26.8681 68.5583 25.6747 65.6773 25.6747 62.6732C25.6699 58.8694 24.1566 55.2227 21.4668 52.5332C18.7769 49.8437 15.1301 48.331 11.3264 48.3268C8.32246 48.3268 5.44157 47.1334 3.31746 45.0092C1.19334 42.885 0 40.004 0 37C0 33.996 1.19334 31.115 3.31746 28.9908C5.44157 26.8666 8.32246 25.6732 11.3264 25.6732C15.1301 25.669 18.7769 24.1563 21.4668 21.4668C24.1566 18.7773 25.6699 15.1306 25.6747 11.3268C25.6747 8.32271 26.8681 5.44173 28.9922 3.31756C31.1163 1.19338 33.9972 0 37.0011 0C40.0051 0 42.886 1.19338 45.0101 3.31756C47.1342 5.44173 48.3275 8.32271 48.3275 11.3268C48.3317 15.1304 49.8446 18.7771 52.534 21.4666C55.2235 24.1562 58.8701 25.669 62.6736 25.6732C65.6775 25.6732 68.5585 26.8666 70.6826 28.9908C72.8067 31.115 74 33.996 74 37C74 40.004 72.8067 42.885 70.6826 45.0092C68.5585 47.1334 65.6775 48.3268 62.6736 48.3268C58.8701 48.331 55.2235 49.8438 52.534 52.5334C49.8446 55.2229 48.3317 58.8696 48.3275 62.6732C48.3275 65.6773 47.1342 68.5583 45.0101 70.6824C42.886 72.8066 40.0051 74 37.0011 74Z" fill="#FF6C6C"/>
</svg>
