<svg width="30" height="30" viewBox="0 0 30 30" fill="none" xmlns="http://www.w3.org/2000/svg">
<path d="M15 0C16.9118 0 18.4615 1.54978 18.4615 3.46154L18.4615 11.5386H26.5385C28.4502 11.5386 30 13.0883 30 15.0001C30 16.9119 28.4502 18.4616 26.5385 18.4616H18.4615L18.4615 26.5385C18.4615 28.4502 16.9117 30 15 30C13.0882 30 11.5385 28.4502 11.5385 26.5385L11.5385 18.4616H3.46154C1.54978 18.4616 0 16.9119 0 15.0001C0 13.0883 1.54978 11.5386 3.46154 11.5386H11.5385V3.46154C11.5385 1.54978 13.0882 0 15 0Z" fill="white"/>
</svg>
