<svg width="814" height="814" viewBox="0 0 814 814" fill="none" xmlns="http://www.w3.org/2000/svg">
<g filter="url(#filter0_f_1307_2028)">
<circle cx="407" cy="407" r="183" fill="#02C971"/>
</g>
<path fill-rule="evenodd" clip-rule="evenodd" d="M336.508 313.348L341.598 314.161L346.838 315.64L451.301 353.617L455.872 355.482L460.261 357.85L464.433 360.669L468.356 363.887L471.993 367.457L475.312 371.331L478.274 375.462L480.842 379.803L482.978 384.31L484.642 388.936L485.79 393.637L486.379 398.366L488.239 501.514L488.239 501.517L487.613 506.528L486.379 511.163L484.569 515.382L482.216 519.141L479.353 522.397L476.013 525.102L472.232 527.209L468.049 528.669L463.5 529.432L458.631 529.448L453.482 528.668L338.062 504.056L332.423 502.753L326.491 500.211L320.82 496.528L315.744 492.699L311.108 488.328L306.974 483.488L303.399 478.255L300.441 472.707L298.153 466.921L296.587 460.978L295.789 454.952L295.804 448.923L304.97 337.858L305.706 333.023L307.137 328.661L309.202 324.796L311.841 321.449L314.994 318.642L318.603 316.394L322.612 314.724L326.967 313.647L331.615 313.183L336.508 313.348ZM488.239 501.514L486.379 398.366L488.227 496.169L488.239 501.514Z" fill="url(#paint0_linear_1307_2028)" fill-opacity="0.5"/>
<path fill-rule="evenodd" clip-rule="evenodd" d="M327.985 303.84L327.249 308.675L318.551 428.476L318.536 434.505L319.333 440.531L320.9 446.475L323.188 452.261L326.146 457.809L329.721 463.041L333.855 467.881L338.491 472.253L343.567 476.082L349.021 479.296L354.789 481.827L360.807 483.609L484.242 511.567L489.391 512.347L494.261 512.331L498.809 511.568L502.992 510.109L498.827 512.577L495.061 514.677L491.081 517.038L495.059 514.678L495.061 514.677L498.827 512.577L502.992 510.109L506.773 508.002L498.831 512.575L498.829 512.576L498.827 512.577L495.061 514.677L491.081 517.038L483.523 521.39L476.148 525.637L472.421 527.716L468.316 529.177L463.872 529.971L459.13 530.051L454.135 529.369L335.028 504.198L329.25 502.574L323.727 500.229L318.518 497.224L313.683 493.625L309.281 489.5L305.369 484.917L302.001 479.95L299.231 474.67L297.109 469.151L295.684 463.467L295 457.691L295.099 451.897L305.2 336.102L305.982 331.4L307.431 327.14L314.785 316.666L317.399 313.351L322.836 306.495L328.407 299.47L334.114 292.273L331.481 295.613L329.416 299.478L327.985 303.84Z" fill="url(#paint1_linear_1307_2028)"/>
<g filter="url(#filter1_b_1307_2028)">
<path fill-rule="evenodd" clip-rule="evenodd" d="M358.787 284.165L363.876 284.978L369.116 286.457L477.017 323.472L481.589 325.337L485.978 327.705L490.15 330.523L494.072 333.742L497.71 337.312L501.028 341.186L503.99 345.317L506.559 349.658L508.695 354.165L510.358 358.791L511.507 363.492L512.096 368.221L519 484.414L519 484.417L518.373 489.427L517.139 494.063L515.33 498.281L512.977 502.041L510.113 505.296L506.774 508.001L502.993 510.108L498.809 511.568L494.261 512.331L489.391 512.347L484.242 511.567L360.809 483.61L355.17 482.307L349.238 479.764L343.567 476.082L338.491 472.253L333.855 467.881L329.721 463.041L326.146 457.809L323.188 452.26L320.9 446.475L319.334 440.531L318.536 434.505L318.551 428.476L327.249 308.675L327.985 303.84L329.416 299.478L331.481 295.612L334.12 292.266L337.272 289.459L340.881 287.211L344.89 285.54L349.245 284.464L353.894 284L358.787 284.165ZM519 484.414L512.096 368.221L518.988 479.068L519 484.414Z" fill="url(#paint2_linear_1307_2028)" fill-opacity="0.3"/>
<path d="M360.919 483.122L355.326 481.829L349.474 479.321L343.854 475.672L338.814 471.87L334.218 467.536L330.118 462.737L326.574 457.549L323.642 452.05L321.376 446.319L319.825 440.434L319.036 434.473L319.051 428.495L327.746 308.731L328.473 303.957L329.877 299.675L331.901 295.887L334.485 292.61L337.573 289.861L341.111 287.657L345.047 286.017L349.331 284.958L353.911 284.501L358.739 284.664L363.768 285.467L368.967 286.934L476.842 323.94L481.375 325.79L485.718 328.133L489.851 330.925L493.738 334.115L497.345 337.654L500.635 341.495L503.571 345.59L506.117 349.893L508.233 354.357L509.879 358.935L511.014 363.582L511.597 368.267L518.498 484.4L517.881 489.332L516.666 493.899L514.885 498.049L512.574 501.741L509.766 504.934L506.493 507.586L502.787 509.651L498.685 511.082L494.218 511.831L489.428 511.847L484.335 511.076L360.922 483.123L360.921 483.122L360.92 483.122L360.919 483.122Z" stroke="url(#paint3_linear_1307_2028)"/>
</g>
<g filter="url(#filter2_d_1307_2028)">
<path fill-rule="evenodd" clip-rule="evenodd" d="M370.236 379.154L375.086 373.962L369.338 380.117L370.236 379.154ZM487.232 383.408L421.97 431.759L421.964 431.763L420.815 432.474L419.574 432.982L418.259 433.291L416.888 433.405L415.479 433.327L414.052 433.061L412.625 432.611L411.217 431.981L409.848 431.176L407.814 433.797L405.78 436.418L407.172 437.035L408.585 437.474L409.998 437.731L411.394 437.802L412.754 437.683L414.06 437.372L415.293 436.863L416.435 436.155L481.491 387.923L481.494 387.921L487.232 383.408ZM374.183 374.93L369.338 380.117L368.619 381.208L368.083 382.408L367.73 383.699L367.563 385.063L367.584 386.481L367.795 387.934L368.196 389.403L368.79 390.87L369.577 392.313L370.557 393.714L400.792 432.262L401.913 433.545L403.131 434.668L404.426 435.628L405.78 436.418L407.814 433.797L409.848 431.176L408.536 430.2L407.302 429.059L406.164 427.758L375.474 388.666L374.478 387.246L373.678 385.784L373.072 384.3L372.66 382.814L372.441 381.346L372.414 379.914L372.576 378.537L372.926 377.236L373.463 376.027L374.183 374.93ZM374.183 374.93L375.086 373.962L369.338 380.117L374.183 374.93Z" fill="url(#paint4_linear_1307_2028)"/>
<path fill-rule="evenodd" clip-rule="evenodd" d="M486.699 369.895L487.566 371.136L488.287 372.408L488.86 373.696L489.285 374.983L489.561 376.255L489.688 377.497L489.664 378.692L489.487 379.825L489.157 380.879L488.672 381.838L488.031 382.687L487.232 383.408L421.969 431.76L421.964 431.763L420.815 432.474L419.574 432.982L418.259 433.291L416.888 433.405L415.479 433.327L414.052 433.061L412.625 432.611L411.217 431.981L409.848 431.176L408.537 430.2L414.571 405.99L473.451 365.489L474.397 364.963L475.424 364.619L476.515 364.451L477.656 364.452L478.829 364.617L480.021 364.941L481.215 365.416L482.397 366.039L483.551 366.803L484.663 367.703L485.717 368.735L486.699 369.895ZM372.576 378.537L372.926 377.236L373.462 376.028L377.389 372.504L382.926 371.938L384.379 372.26L385.822 372.755L387.236 373.417L388.605 374.242L389.909 375.224L391.131 376.358L392.253 377.64L414.571 405.99L408.537 430.2L407.302 429.059L406.164 427.758L375.474 388.666L374.478 387.246L373.678 385.784L373.072 384.3L372.66 382.814L372.442 381.345L372.414 379.914L372.576 378.537ZM382.926 371.938L381.482 371.795L380.066 371.838L378.695 372.072L377.389 372.504L382.926 371.938ZM377.389 372.504L376.168 373.141L375.086 373.962L374.183 374.93L373.462 376.028L377.389 372.504Z" fill="url(#paint5_linear_1307_2028)"/>
</g>
<defs>
<filter id="filter0_f_1307_2028" x="0" y="0" width="814" height="814" filterUnits="userSpaceOnUse" color-interpolation-filters="sRGB">
<feFlood flood-opacity="0" result="BackgroundImageFix"/>
<feBlend mode="normal" in="SourceGraphic" in2="BackgroundImageFix" result="shape"/>
<feGaussianBlur stdDeviation="112" result="effect1_foregroundBlur_1307_2028"/>
</filter>
<filter id="filter1_b_1307_2028" x="228.536" y="194" width="380.464" height="408.347" filterUnits="userSpaceOnUse" color-interpolation-filters="sRGB">
<feFlood flood-opacity="0" result="BackgroundImageFix"/>
<feGaussianBlur in="BackgroundImageFix" stdDeviation="45"/>
<feComposite in2="SourceAlpha" operator="in" result="effect1_backgroundBlur_1307_2028"/>
<feBlend mode="normal" in="SourceGraphic" in2="effect1_backgroundBlur_1307_2028" result="shape"/>
</filter>
<filter id="filter2_d_1307_2028" x="350.858" y="359.81" width="148.111" height="99.3375" filterUnits="userSpaceOnUse" color-interpolation-filters="sRGB">
<feFlood flood-opacity="0" result="BackgroundImageFix"/>
<feColorMatrix in="SourceAlpha" type="matrix" values="0 0 0 0 0 0 0 0 0 0 0 0 0 0 0 0 0 0 127 0" result="hardAlpha"/>
<feOffset dx="-3.71229" dy="8.35266"/>
<feGaussianBlur stdDeviation="6.49651"/>
<feComposite in2="hardAlpha" operator="out"/>
<feColorMatrix type="matrix" values="0 0 0 0 0.308333 0 0 0 0 0.273973 0 0 0 0 0.0256944 0 0 0 0.25 0"/>
<feBlend mode="normal" in2="BackgroundImageFix" result="effect1_dropShadow_1307_2028"/>
<feBlend mode="normal" in="SourceGraphic" in2="effect1_dropShadow_1307_2028" result="shape"/>
</filter>
<linearGradient id="paint0_linear_1307_2028" x1="301.371" y1="543.026" x2="477.349" y2="329.164" gradientUnits="userSpaceOnUse">
<stop offset="0.320833" stop-color="#02C871"/>
<stop offset="0.58125" stop-color="#02D174"/>
<stop offset="0.89375" stop-color="#02CF74"/>
</linearGradient>
<linearGradient id="paint1_linear_1307_2028" x1="242.991" y1="324.498" x2="489.094" y2="570.275" gradientUnits="userSpaceOnUse">
<stop stop-color="#29EE8F"/>
<stop offset="0.35896" stop-color="#0ABE73"/>
<stop offset="0.683604" stop-color="#048E5C"/>
<stop offset="1" stop-color="#00FF85"/>
</linearGradient>
<linearGradient id="paint2_linear_1307_2028" x1="324.906" y1="520.941" x2="500.884" y2="307.08" gradientUnits="userSpaceOnUse">
<stop offset="0.320833" stop-color="#02CE73"/>
<stop offset="0.685417" stop-color="#13CB7A"/>
<stop offset="0.89375" stop-color="#147D4E"/>
</linearGradient>
<linearGradient id="paint3_linear_1307_2028" x1="318.175" y1="490.343" x2="512.912" y2="326.973" gradientUnits="userSpaceOnUse">
<stop offset="0.180663" stop-color="white" stop-opacity="0.35"/>
<stop offset="0.533255" stop-color="white" stop-opacity="0"/>
</linearGradient>
<linearGradient id="paint4_linear_1307_2028" x1="361.982" y1="326.975" x2="363.385" y2="452.354" gradientUnits="userSpaceOnUse">
<stop offset="0.301696" stop-color="#10C677"/>
<stop offset="0.993284" stop-color="#02CD73"/>
</linearGradient>
<linearGradient id="paint5_linear_1307_2028" x1="421.612" y1="454.565" x2="484.773" y2="342.125" gradientUnits="userSpaceOnUse">
<stop stop-color="white"/>
<stop offset="0.644664" stop-color="white" stop-opacity="0.57"/>
</linearGradient>
</defs>
</svg>
