<?xml version="1.0" encoding="utf-8"?>
<!-- Generator: Adobe Illustrator 25.0.1, SVG Export Plug-In . SVG Version: 6.00 Build 0)  -->
<svg version="1.1" id="Layer_1" xmlns="http://www.w3.org/2000/svg" xmlns:xlink="http://www.w3.org/1999/xlink" x="0px" y="0px"
	 viewBox="0 0 30 24" style="enable-background:new 0 0 30 24;" xml:space="preserve">
<style type="text/css">
	.st0{opacity:0.5;fill-rule:evenodd;clip-rule:evenodd;fill:#FFFFFF;enable-background:new    ;}
</style>
<path class="st0" d="M30,1.9c0-1-0.7-1.9-1.5-1.9H6.1C5.2,0,4.6,0.8,4.6,1.9c0,1,0.7,1.9,1.5,1.9s22.4,0,22.4,0
	C29.3,3.8,30,2.9,30,1.9z M30,12c0-1-0.7-1.9-1.5-1.9h-27C0.7,10.1,0,11,0,12s0.7,1.9,1.5,1.9h27C29.3,13.9,30,13,30,12z M30,22.1
	c0-1-0.7-1.9-1.5-1.9H12.4c-0.8,0-1.5,0.8-1.5,1.9c0,1,0.7,1.9,1.5,1.9h16.1C29.3,24,30,23.2,30,22.1z"/>
</svg>
