<svg width="30" height="24" viewBox="0 0 30 24" fill="none" xmlns="http://www.w3.org/2000/svg">
<path opacity="0.5" fill-rule="evenodd" clip-rule="evenodd" d="M30 1.89474C30 0.848302 29.3262 0 28.495 0H6.07023C5.23903 0 4.56522 0.848302 4.56522 1.89474C4.56522 2.94117 5.23903 3.78947 6.07023 3.78947C6.90143 3.78947 28.495 3.78947 28.495 3.78947C29.3262 3.78947 30 2.94117 30 1.89474ZM30 12C30 10.9536 29.3262 10.1053 28.495 10.1053H1.50502C0.673819 10.1053 -1.07288e-06 10.9536 -1.07288e-06 12C-1.07288e-06 13.0464 0.673819 13.8947 1.50502 13.8947H28.495C29.3262 13.8947 30 13.0464 30 12ZM30 22.1053C30 21.0588 29.3262 20.2105 28.495 20.2105H12.4415C11.6103 20.2105 10.9365 21.0588 10.9365 22.1053C10.9365 23.1517 11.6103 24 12.4415 24H28.495C29.3262 24 30 23.1517 30 22.1053Z" fill="#2C363A"/>
</svg>
