<svg width="104" height="111" viewBox="0 0 104 111" fill="none" xmlns="http://www.w3.org/2000/svg">
<path d="M42.4889 45.7059C40.7026 45.7059 39.2514 47.1691 39.2514 48.9705C39.2514 50.7718 40.7026 52.2351 42.4889 52.2351C44.2751 52.2351 45.7264 50.7718 45.7264 48.9705C45.7264 47.1691 44.2751 45.7059 42.4889 45.7059ZM93.3479 92.4582C95.9154 89.5686 97.5247 85.7938 97.5247 81.6177C97.5247 79.813 96.0767 78.3531 94.2872 78.3531C92.4977 78.3531 91.0497 79.8134 91.0497 81.6177C91.0497 87.0185 86.693 91.4118 81.3376 91.4118H55.4385C50.083 91.4118 45.7264 87.0185 45.7264 81.6177V73.4732L61.9134 64.0496L67.4061 67.2476L68.0465 77.2497C68.1556 78.953 69.57 80.3853 71.4861 80.2978C73.2691 80.1798 74.6222 78.6273 74.5087 76.8289L74.1463 71.1727L80.1203 74.6515C81.6642 75.5509 83.6479 75.0195 84.5434 73.4559C84.9729 72.706 85.0894 71.815 84.8671 70.9786C84.6448 70.1423 84.1019 69.4291 83.3577 68.9957L77.3834 65.5168L82.425 63.005C83.1952 62.6206 83.7823 61.944 84.0574 61.1237C84.3325 60.3035 84.273 59.4068 83.892 58.6308C83.0983 57.0176 81.1603 56.3512 79.5543 57.1514L70.6439 61.5925L65.1506 58.3937V39.5476L70.6439 36.3488L79.5543 40.7899C81.1632 41.5901 83.1056 40.9189 83.892 39.3105C84.273 38.5345 84.3325 37.6378 84.0574 36.8176C83.7823 35.9974 83.1952 35.3207 82.425 34.9363L77.3834 32.4245L83.3577 28.9456C84.1019 28.5123 84.6448 27.799 84.8671 26.9627C85.0894 26.1264 84.9729 25.2353 84.5434 24.4854C83.6486 22.9167 81.6602 22.3875 80.1203 23.2898L74.1463 26.7686L74.5087 21.1124C74.6225 19.3144 73.2694 17.7615 71.4861 17.6435C69.7411 17.57 68.1603 18.8902 68.0465 20.6912L67.4061 30.6933L61.9134 33.8914L45.7264 24.4678V18.0702L53.9971 12.5099C54.3511 12.272 54.6552 11.9663 54.892 11.61C55.1287 11.2538 55.2935 10.854 55.3768 10.4336C55.4602 10.0133 55.4605 9.58044 55.3778 9.15993C55.2951 8.73941 55.1309 8.33943 54.8947 7.98281C53.8989 6.481 51.8977 6.07302 50.4056 7.07754L45.7264 10.2227V3.26458C45.7264 1.45991 44.2784 0 42.4889 0C40.6994 0 39.2514 1.46028 39.2514 3.26458V10.2227L34.5722 7.07754C33.0768 6.07339 31.0694 6.48137 30.083 7.98281C29.6062 8.70309 29.4329 9.58463 29.6012 10.4336C29.7696 11.2825 30.2658 12.0294 30.9807 12.5099L39.2514 18.0702V24.4678L23.0643 33.8914L17.5717 30.6933L16.9309 20.6912C16.8171 18.8932 15.2458 17.5828 13.4913 17.6435C11.7083 17.7615 10.3552 19.314 10.4691 21.1124L10.8315 26.7686L4.85714 23.2898C3.3081 22.3875 1.32591 22.9167 0.434067 24.4854C0.00446978 25.2353 -0.111967 26.1264 0.110344 26.9627C0.332655 27.799 0.875526 28.5123 1.61966 28.9456L7.59361 32.4245L2.55201 34.9363C1.78184 35.3207 1.1947 35.9974 0.919627 36.8176C0.644556 37.6378 0.704062 38.5345 1.08507 39.3105C1.27344 39.6946 1.53506 40.0374 1.855 40.3196C2.17493 40.6018 2.54692 40.8177 2.94971 40.9551C3.35251 41.0925 3.77822 41.1486 4.20254 41.1203C4.62687 41.0919 5.0415 40.9797 5.42275 40.7899L14.3331 36.3488L19.8265 39.5476V58.3937L14.3331 61.5925L5.42275 57.1514C3.8197 56.3542 1.87254 57.011 1.08507 58.6308C0.704062 59.4068 0.644556 60.3035 0.919627 61.1237C1.1947 61.944 1.78184 62.6206 2.55201 63.005L7.59361 65.5168L1.61966 68.9957C0.875526 69.4291 0.332655 70.1423 0.110344 70.9786C-0.111967 71.815 0.00446978 72.706 0.434067 73.4559C1.33102 75.0224 3.31613 75.5491 4.85714 74.6515L10.8315 71.1727L10.4691 76.8289C10.3552 78.627 11.7083 80.1798 13.4913 80.2978C13.561 80.3011 13.6336 80.3041 13.7033 80.3041C15.3947 80.3041 16.8204 78.978 16.9313 77.2497L17.5721 67.2476L23.0647 64.0496L39.2518 73.4732V81.6177C39.2518 90.6179 46.5138 97.9413 55.4388 97.9413H74.863C76.6492 97.9413 78.1005 99.4045 78.1005 101.206C78.1005 103.011 79.5484 104.47 81.338 104.47C83.1275 104.47 84.5755 103.01 84.5755 101.206C84.5755 100.056 84.3419 98.9675 83.9792 97.9413H87.8129C93.1687 97.9413 97.525 102.335 97.525 107.735C97.525 109.54 98.973 111 100.763 111C102.552 111 104 109.54 104 107.735C103.999 100.704 99.5426 94.7506 93.3479 92.4582ZM42.4889 58.7646C37.1331 58.7646 32.7768 54.3713 32.7768 48.9705C32.7768 43.5697 37.1335 39.1764 42.4889 39.1764C47.8443 39.1764 52.201 43.5697 52.201 48.9705C52.201 54.3713 47.8447 58.7646 42.4889 58.7646Z" fill="#FF6C6C"/>
</svg>
