<svg width="320" height="321" viewBox="0 0 320 321" fill="none" xmlns="http://www.w3.org/2000/svg">
<path d="M312.1 280C321.469 289.369 321.469 304.57 312.1 313.94C302.731 323.31 287.53 323.309 278.16 313.94L160 194.9L40.9998 313.9C31.6308 323.269 16.4298 323.269 7.05975 313.9C-2.31025 304.531 -2.30925 289.33 7.05975 279.96L126.1 161L7.02675 41.0999C-2.34225 31.7309 -2.34225 16.5299 7.02675 7.15994C16.3958 -2.21006 31.5968 -2.20906 40.9668 7.15994L160 127.1L279 8.09993C288.369 -1.26907 303.57 -1.26907 312.94 8.09993C322.31 17.4689 322.309 32.6699 312.94 42.0399L193.9 161L312.1 280Z" fill="white"/>
</svg>
