<svg width="86" height="71" viewBox="0 0 86 71" fill="none" xmlns="http://www.w3.org/2000/svg">
<path d="M81.2366 33.6007C80.7902 20.2616 74.951 9.62344 65.5405 0.467351C65.4482 0.381043 65.4661 0.337891 65.5941 0.337891L72.5136 0.355746C72.6356 0.358722 72.7368 0.404853 72.8171 0.494137C80.8304 9.66808 86.4374 22.3196 85.9732 34.6051C85.3616 50.7745 74.7546 66.0599 58.4469 69.7607C36.8401 74.658 18.8226 57.5913 16.6039 37.0917C16.5951 37.0152 16.5588 36.9447 16.502 36.8936C16.4451 36.8425 16.3717 36.8145 16.2959 36.8149L4.87642 36.8595C4.72166 36.8595 4.64726 36.9369 4.65321 37.0917C5.22016 50.6093 10.9433 61.0243 20.2913 70.3813C20.4788 70.5688 20.4401 70.6625 20.1752 70.6625H13.4789C13.3921 70.6626 13.3064 70.6439 13.2278 70.6076C13.1491 70.5714 13.0794 70.5185 13.0236 70.4527C1.02381 56.3235 -4.49395 36.5069 4.34964 19.2438C13.9343 0.529852 38.0053 -5.87182 54.9648 7.37794C63.4111 13.9805 67.8708 22.8643 69.3306 33.623C69.3514 33.7659 69.4333 33.8373 69.5761 33.8373H81.0045C81.0354 33.8373 81.0659 33.8311 81.0944 33.8192C81.1228 33.8072 81.1486 33.7898 81.1702 33.7677C81.1919 33.7457 81.2089 33.7196 81.2203 33.6909C81.2317 33.6622 81.2372 33.6315 81.2366 33.6007ZM21.4208 8.74399C24.7109 11.8109 29.1394 13.7171 33.675 13.9582C33.8268 13.9641 33.9027 13.8912 33.9027 13.7394V5.47619C33.9027 5.30655 33.8179 5.22619 33.6482 5.23512C29.3239 5.39583 25.2585 6.48212 21.452 8.49399C21.4306 8.50594 21.4123 8.52277 21.3986 8.54311C21.3848 8.56345 21.3761 8.58673 21.3731 8.61107C21.37 8.63542 21.3728 8.66014 21.381 8.68323C21.3893 8.70632 21.4029 8.72713 21.4208 8.74399ZM48.1435 8.6056C44.6257 6.6101 40.2642 5.4628 36.3803 5.24852C36.2166 5.23959 36.1348 5.31845 36.1348 5.48512V13.7484C36.1348 13.8972 36.2092 13.9656 36.358 13.9537C40.8639 13.5757 44.8028 11.8987 48.1747 8.92256C48.1986 8.90282 48.2171 8.87754 48.2288 8.84886C48.2405 8.82017 48.245 8.78895 48.242 8.75783C48.2389 8.7267 48.2284 8.69661 48.2112 8.67011C48.1941 8.64361 48.1708 8.62147 48.1435 8.6056ZM9.09956 21.3063L15.0012 21.342C15.1739 21.3449 15.3078 21.275 15.403 21.1322C17.6202 17.8554 20.4297 15.2186 23.8314 13.2216C23.8555 13.207 23.8757 13.1869 23.8903 13.1628C23.9049 13.1387 23.9134 13.1115 23.9152 13.0834C23.917 13.0553 23.9119 13.0272 23.9004 13.0015C23.8889 12.9758 23.8714 12.9533 23.8493 12.9359L19.6083 9.7395C19.5012 9.65617 19.391 9.65171 19.2779 9.72611C14.912 12.6308 11.4492 16.3703 8.88974 20.9447C8.86957 20.9821 8.85927 21.0241 8.85984 21.0665C8.86041 21.109 8.87183 21.1505 8.89298 21.187C8.91413 21.2234 8.94429 21.2536 8.98051 21.2745C9.01672 21.2954 9.05774 21.3064 9.09956 21.3063ZM45.8846 13.1457C49.2982 15.1784 52.1271 17.8346 54.3711 21.1143C54.4693 21.2601 54.6062 21.333 54.7818 21.333H60.4379C60.47 21.3336 60.5015 21.3255 60.5294 21.3097C60.5572 21.2938 60.5804 21.2708 60.5967 21.2428C60.6129 21.2147 60.6217 21.1828 60.622 21.1501C60.6224 21.1173 60.6143 21.085 60.5986 21.0563C58.051 16.5385 54.6389 12.8168 50.3622 9.89129C50.2461 9.81093 50.1301 9.81391 50.014 9.90022L45.8757 12.9716C45.7923 13.0341 45.7953 13.0921 45.8846 13.1457ZM33.6929 15.7662C31.2777 15.659 28.8983 15.0876 26.6796 14.2216C26.5884 14.185 26.4907 14.1681 26.3929 14.172C26.2952 14.1758 26.1997 14.2003 26.1126 14.2439C22.8121 15.8659 20.0369 18.1277 17.7869 21.0295C17.7651 21.0571 17.7515 21.0904 17.7477 21.1254C17.744 21.1604 17.7501 21.1957 17.7655 21.2274C17.7808 21.2591 17.8048 21.2858 17.8347 21.3045C17.8645 21.3232 17.899 21.3331 17.9342 21.333H33.6795C33.8283 21.333 33.9027 21.2586 33.9027 21.1098V15.9849C33.9027 15.845 33.8327 15.7721 33.6929 15.7662ZM51.9336 21.0116C49.956 18.159 46.5632 15.6367 43.59 14.2171C43.5252 14.1848 43.454 14.1665 43.381 14.1634C43.3079 14.1604 43.2347 14.1726 43.1659 14.1992C40.9725 15.0683 38.6987 15.5921 36.3446 15.7706C36.2166 15.7826 36.1511 15.8525 36.1482 15.9805L36.1035 21.0786C36.1035 21.1461 36.1299 21.2108 36.1767 21.2585C36.2236 21.3062 36.2872 21.333 36.3535 21.333H51.764C51.8014 21.3331 51.8381 21.3229 51.8701 21.3036C51.9022 21.2843 51.9283 21.2566 51.9458 21.2235C51.9633 21.1905 51.9714 21.1532 51.9692 21.1159C51.9671 21.0785 51.9547 21.0425 51.9336 21.0116ZM56.5273 35.806C56.8159 31.4221 55.8666 27.3389 53.6791 23.5562C53.6017 23.4193 53.4842 23.3509 53.3264 23.3509L16.461 23.4089C16.3033 23.4089 16.1843 23.4774 16.1039 23.6143C14.1069 26.9505 13.1531 30.5695 13.2423 34.4712C13.2447 34.5395 13.2734 34.6042 13.3226 34.6517C13.3717 34.6992 13.4374 34.7257 13.5057 34.7257H29.2108C29.3447 34.7257 29.4072 34.7926 29.3983 34.9265C29.0888 39.2687 30.0144 43.3103 32.175 47.0513C32.2405 47.1674 32.3417 47.2254 32.4786 47.2254H69.5092C69.6639 47.2254 69.78 47.1585 69.8574 47.0245C71.7919 43.724 72.7264 40.1586 72.6609 36.3283C72.6579 36.1527 72.5686 36.0649 72.393 36.0649H56.7683C56.5957 36.0649 56.5154 35.9786 56.5273 35.806ZM7.55941 23.6098C6.04753 27.0681 5.1532 30.6826 4.87642 34.4533C4.86154 34.6349 4.94636 34.7257 5.13088 34.7257H11.0504C11.2498 34.7257 11.348 34.6245 11.3451 34.4221C11.2885 30.6454 12.1352 27.0904 13.8852 23.7571C13.9923 23.5547 13.9313 23.4535 13.7022 23.4535H7.80047C7.68738 23.4535 7.60703 23.5056 7.55941 23.6098ZM58.6612 33.806L64.2012 33.9712C64.4125 33.9772 64.5063 33.876 64.4825 33.6676C64.1164 30.1826 63.234 26.8359 61.8352 23.6276C61.7846 23.5116 61.6953 23.4535 61.5674 23.4535H56.0005C55.973 23.4541 55.9461 23.4617 55.9224 23.4756C55.8987 23.4896 55.8789 23.5093 55.865 23.5331C55.8511 23.5568 55.8436 23.5837 55.8431 23.6112C55.8425 23.6387 55.8491 23.6659 55.8621 23.6901C57.4781 26.7794 58.3368 30.0769 58.4379 33.5828C58.4409 33.7287 58.5153 33.8031 58.6612 33.806ZM74.5493 36.2747C74.4644 40.239 73.8261 43.4175 72.0627 46.9933C71.9853 47.148 72.0329 47.2254 72.2056 47.2254H78.0938C78.2486 47.2254 78.3572 47.154 78.4197 47.0112C79.8512 43.6035 80.7292 40.0589 81.0536 36.3774C81.0715 36.1691 80.9777 36.0649 80.7724 36.0649H74.7635C74.6237 36.0649 74.5522 36.1349 74.5493 36.2747ZM27.251 36.806L21.6172 36.8595C21.4714 36.8595 21.4074 36.9325 21.4252 37.0783C21.7883 40.5247 22.6648 43.8326 24.0546 47.0022C24.1171 47.151 24.2302 47.2254 24.3939 47.2254H29.7688C29.9891 47.2254 30.0501 47.1272 29.9519 46.9308C28.3864 43.8058 27.5516 40.4934 27.4474 36.9935C27.4451 36.9429 27.4234 36.8952 27.3868 36.8603C27.3503 36.8254 27.3016 36.8059 27.251 36.806ZM40.1258 57.6404C36.6764 55.6286 33.8283 52.9679 31.5813 49.6584C31.489 49.5245 31.3625 49.4575 31.2018 49.4575H25.5502C25.321 49.4575 25.263 49.5572 25.376 49.7566C27.9325 54.2833 31.3596 58.0035 35.6571 60.9171C35.7851 61.0035 35.9041 60.993 36.0142 60.8859C37.2642 59.7014 38.6347 58.6776 40.1258 57.8145C40.1417 57.8062 40.155 57.7937 40.1643 57.7784C40.1736 57.763 40.1785 57.7454 40.1785 57.7275C40.1785 57.7095 40.1736 57.6919 40.1643 57.6766C40.155 57.6612 40.1417 57.6487 40.1258 57.6404ZM33.9071 49.6763C36.0991 52.5289 39.1437 54.9619 42.3177 56.5378C42.4516 56.6062 42.5885 56.6122 42.7284 56.5556C44.9188 55.6955 47.1896 55.1539 49.5408 54.9306C49.6807 54.9187 49.7506 54.8414 49.7506 54.6985V49.6807C49.7506 49.5319 49.6762 49.4575 49.5274 49.4575H34.0143C33.8298 49.4575 33.794 49.5305 33.9071 49.6763ZM52.1925 54.9173C54.5541 55.0333 57.0987 55.6851 59.3219 56.5333C59.4736 56.5898 59.621 56.5824 59.7638 56.511C63.0405 54.8711 65.8098 52.6063 68.0717 49.7165C68.2086 49.5438 68.1669 49.4575 67.9467 49.4575H52.2059C52.0571 49.4575 51.9827 49.5319 51.9827 49.6807V54.6985C51.9827 54.8384 52.0526 54.9113 52.1925 54.9173ZM62.0361 57.7565L66.2548 60.9618C66.3149 61.0075 66.388 61.0333 66.4639 61.0357C66.5398 61.0381 66.6149 61.0169 66.6789 60.9752C71.0478 58.0794 74.5016 54.3354 77.0403 49.7432C77.1445 49.5528 77.0879 49.4575 76.8706 49.4575H70.8708C70.6952 49.4575 70.5568 49.529 70.4556 49.6718C68.1997 52.895 65.3961 55.5288 62.045 57.5735C62.0298 57.583 62.017 57.5961 62.0079 57.6116C61.9988 57.6272 61.9936 57.6447 61.9927 57.6626C61.9919 57.6806 61.9953 57.6985 62.0029 57.7149C62.0104 57.7312 62.0218 57.7455 62.0361 57.7565ZM37.7062 62.2743C41.3817 64.2594 45.3072 65.3933 49.4828 65.676C49.6613 65.6879 49.7506 65.606 49.7506 65.4305V57.0378C49.7506 56.8592 49.6628 56.7773 49.4872 56.7922C44.9635 57.188 41.0216 58.8874 37.6615 61.8903C37.6333 61.9156 37.6116 61.9473 37.5982 61.9827C37.5848 62.0181 37.5801 62.0562 37.5844 62.0939C37.5888 62.1315 37.6021 62.1675 37.6233 62.1989C37.6445 62.2303 37.6729 62.2561 37.7062 62.2743ZM64.4602 61.9662C61.0078 58.8353 56.9365 57.1092 52.2461 56.7878C52.0705 56.7759 51.9827 56.8577 51.9827 57.0333V65.426C51.9827 65.6016 52.069 65.6864 52.2416 65.6805C56.5481 65.5227 60.6016 64.4394 64.4021 62.4305C64.6432 62.3025 64.6625 62.1478 64.4602 61.9662Z" fill="#B6B9D9"/>
<path d="M36.354 28.4893C37.323 28.4893 38.1085 27.7038 38.1085 26.7349C38.1085 25.766 37.323 24.9805 36.354 24.9805C35.3851 24.9805 34.5996 25.766 34.5996 26.7349C34.5996 27.7038 35.3851 28.4893 36.354 28.4893Z" fill="#B6B9D9"/>
<path d="M50.3049 28.7075C51.1605 28.7075 51.854 28.014 51.854 27.1585C51.854 26.3029 51.1605 25.6094 50.3049 25.6094C49.4494 25.6094 48.7559 26.3029 48.7559 27.1585C48.7559 28.014 49.4494 28.7075 50.3049 28.7075Z" fill="#B6B9D9"/>
<path d="M42.1382 36.0518L45.0042 36.0696C45.1619 36.0726 45.269 36.0012 45.3256 35.8553L48.0086 29.1233C48.0711 28.9686 48.1857 28.8912 48.3523 28.8912L52.2674 28.9135C52.4252 28.9165 52.5308 28.9909 52.5844 29.1367L55.0665 35.65C55.0872 35.7048 55.0957 35.7637 55.0913 35.8219C55.0869 35.8801 55.0698 35.936 55.0412 35.9854C55.0127 36.0347 54.9735 36.076 54.9267 36.1062C54.88 36.1363 54.827 36.1543 54.7719 36.1589C54.7153 36.1649 54.6469 36.141 54.5665 36.0875C54.5129 36.0547 54.4683 36.0041 54.4326 35.9357C53.6766 34.5012 52.9936 33.0429 52.3835 31.5608C52.3734 31.5338 52.3549 31.5111 52.3307 31.4959C52.3065 31.4808 52.2779 31.4739 52.249 31.4764C52.22 31.4789 52.1924 31.4906 52.17 31.5098C52.1476 31.529 52.1317 31.5547 52.1246 31.5831C51.7674 33.0518 51.638 34.1768 52.0576 35.7303C52.9058 38.8404 53.4504 41.9862 53.6915 45.1677C53.6937 45.1977 53.6892 45.2279 53.6784 45.256C53.6676 45.2841 53.6507 45.3095 53.629 45.3304C53.6072 45.3513 53.5812 45.3671 53.5526 45.3768C53.5241 45.3865 53.4938 45.3898 53.4638 45.3864C51.3716 45.1334 49.2824 45.1394 47.1961 45.4043C47.1585 45.409 47.1204 45.4054 47.0844 45.3938C47.0485 45.3823 47.0156 45.3629 46.9882 45.3373C46.9609 45.3116 46.9397 45.2803 46.9262 45.2455C46.9127 45.2108 46.9073 45.1735 46.9104 45.1364C47.1217 41.9668 47.6753 38.8359 48.5711 35.7437C48.9669 34.3807 48.9059 33.0384 48.388 31.717C48.3196 31.5414 48.2467 31.5399 48.1693 31.7126L44.8345 39.1365C44.7941 39.2261 44.7846 39.3267 44.8077 39.4222L45.4774 42.3195C45.4982 42.4147 45.4625 42.4787 45.3702 42.5115L45.2229 42.5606C45.1128 42.5963 45.0607 42.6722 45.0667 42.7882C45.0935 43.5025 45.1485 44.2094 45.2318 44.9087C45.2497 45.0427 45.2318 45.1468 45.1783 45.2212C45.1158 45.3105 45.0354 45.373 44.9372 45.4087C44.8818 45.4294 44.8225 45.4373 44.7637 45.4318C44.7049 45.4264 44.648 45.4077 44.5974 45.3773C44.5468 45.3468 44.5037 45.3053 44.4713 45.2559C44.4389 45.2065 44.4181 45.1504 44.4104 45.0918L44.147 43.065C44.1265 42.9127 44.053 42.7723 43.9396 42.6686C43.8261 42.5648 43.6798 42.5042 43.5262 42.4973C43.3726 42.4904 43.2214 42.5376 43.0991 42.6308C42.9768 42.7239 42.8911 42.8571 42.8569 43.007C42.7319 43.5814 42.6233 44.2674 42.531 45.065C42.4983 45.3626 42.339 45.4817 42.0533 45.4221C41.9588 45.4028 41.8747 45.3493 41.8171 45.2719C41.7594 45.1945 41.7323 45.0986 41.7408 45.0025L41.9507 42.882C41.9571 42.8212 41.9429 42.7602 41.9104 42.7091C41.8779 42.6579 41.8291 42.6197 41.7721 42.6008C41.5042 42.5085 41.4105 42.3493 41.4908 42.1231C42.1962 40.2124 42.1962 39.2258 41.3658 37.2571C40.5176 35.2452 39.7096 33.2334 38.9418 31.2215C38.9321 31.1954 38.9139 31.1732 38.8902 31.1586C38.8664 31.1439 38.8385 31.1377 38.8108 31.1407C38.7831 31.1438 38.7572 31.1561 38.7372 31.1756C38.7173 31.1951 38.7044 31.2206 38.7007 31.2483C38.4418 33.0563 37.7766 35.1723 38.2141 36.9669C38.857 39.6068 39.5355 42.2183 40.2498 44.8016C40.2777 44.9022 40.2654 45.0097 40.2154 45.1014C40.1654 45.1931 40.0816 45.2617 39.9819 45.2927C39.4641 45.4564 39.1278 45.3209 38.973 44.8864C38.1278 42.4936 37.2841 40.1231 36.4418 37.7749C36.4342 37.7544 36.4205 37.7368 36.4026 37.7243C36.3846 37.7118 36.3633 37.7051 36.3414 37.7051C36.3195 37.7051 36.2982 37.7118 36.2802 37.7243C36.2623 37.7368 36.2485 37.7544 36.2409 37.7749L33.7231 45.132C33.6487 45.3522 33.4969 45.4415 33.2678 45.3998L32.7098 45.2927C32.4806 45.248 32.3958 45.1141 32.4553 44.8909C33.0833 42.4177 33.7276 39.952 34.3883 37.4937C34.9329 35.4803 34.3838 33.3866 34.0445 31.3911C34.0406 31.3601 34.0262 31.3316 34.0038 31.3102C33.9813 31.2888 33.952 31.2758 33.9206 31.2732C33.8892 31.2706 33.8575 31.2786 33.8306 31.296C33.8037 31.3133 33.7831 31.339 33.7722 31.3688L31.9776 36.4982C31.9644 36.5358 31.9395 36.5681 31.9066 36.5906C31.8736 36.6131 31.8344 36.6245 31.7946 36.6232C31.7261 36.6232 31.677 36.6529 31.6473 36.7125C31.5973 36.8115 31.5204 36.8731 31.4316 36.885C31.3428 36.897 31.2487 36.8585 31.1679 36.7771C31.087 36.6957 31.0254 36.5774 30.9951 36.4456C30.9649 36.3137 30.9682 36.178 31.0044 36.0652L33.2455 28.9314C33.2931 28.7766 33.3987 28.6992 33.5624 28.6992H39.1293C39.1959 28.6995 39.2608 28.7206 39.3152 28.7598C39.3696 28.799 39.4107 28.8543 39.4328 28.918L41.8524 35.8419C41.9001 35.9818 41.9953 36.0518 42.1382 36.0518Z" fill="#B6B9D9"/>
<path d="M43.5661 35.8373C44.2121 35.8373 44.7357 35.3136 44.7357 34.6677C44.7357 34.0217 44.2121 33.498 43.5661 33.498C42.9201 33.498 42.3965 34.0217 42.3965 34.6677C42.3965 35.3136 42.9201 35.8373 43.5661 35.8373Z" fill="#B6B9D9"/>
</svg>
