<svg width="79" height="79" viewBox="0 0 79 79" fill="none" xmlns="http://www.w3.org/2000/svg">
<circle cx="39.5" cy="39.5" r="39.5" fill="#B6B9D9"/>
<path d="M33.5759 13.0067C29.7018 10.8817 26.3624 13.9623 27.249 18.0814L26.1382 17.5501L26.1313 12.6894C26.1313 12.5491 26.0611 12.4755 25.9208 12.4686L24.3581 12.3996C24.3067 12.3972 24.2553 12.4054 24.2072 12.4237C24.1591 12.4419 24.1153 12.4699 24.0784 12.5058C24.0416 12.5417 24.0125 12.5848 23.9929 12.6324C23.9734 12.68 23.9638 12.7311 23.9648 12.7825C23.989 14.1797 24.2925 18.0158 23.713 19.099C23.6862 19.1493 23.6479 19.1926 23.6012 19.2255C23.5545 19.2585 23.5006 19.2801 23.4439 19.2888C22.3607 19.4475 20.8945 19.7718 20.8842 18.0814C20.8727 16.2967 20.8681 14.4878 20.8704 12.6549C20.8704 12.6194 20.8632 12.5843 20.8491 12.5517C20.8351 12.5191 20.8145 12.4898 20.7886 12.4655C20.7627 12.4413 20.7321 12.4226 20.6987 12.4106C20.6653 12.3987 20.6298 12.3938 20.5944 12.3961L18.9799 12.4927C18.8143 12.5019 18.7326 12.5905 18.7349 12.7584L18.8833 18.7196C18.4164 18.6506 18.0392 18.7667 17.7518 19.068C17.6667 19.1577 17.5678 19.2267 17.4551 19.275L16.0027 19.9097C15.9511 19.9323 15.8944 19.9383 15.8406 19.927C14.6125 19.6717 13.336 20.3582 12.1079 20.5618C10.2174 20.8791 9.43088 22.8145 7.86813 23.6252C7.50245 23.8138 7.13678 24.0092 6.7711 24.2116C6.67221 24.2645 6.60206 24.3416 6.56066 24.4428C5.29459 27.4061 4.63568 30.8904 4.26311 34.0746C3.42596 40.6728 4.3367 47.0584 6.99534 53.2312C7.87848 55.3885 9.05255 57.4687 10.5176 59.4718C10.5866 59.5661 10.6763 59.6248 10.7866 59.6478C11.6583 59.8272 12.4621 59.5604 13.198 58.8474C18.4716 66.7221 25.5782 72.1257 34.5177 75.058C37.8433 75.649 41.2781 75.7169 44.8222 75.2615C44.951 75.2454 45.0809 75.2489 45.212 75.2718C45.2879 75.2856 45.3661 75.2925 45.4466 75.2925C45.6973 75.2948 45.6938 75.3201 45.4363 75.3684C43.4699 75.7548 41.4345 75.7031 39.4405 75.7652C35.663 75.879 31.9959 75.1822 28.4012 74.2369C28.3713 74.23 28.0011 74.1622 27.2904 74.0334C26.4349 73.8781 25.8242 73.3503 25.1757 73.0778C22.7424 72.0521 20.4805 70.7423 18.39 69.1485C16.8514 67.9756 14.1122 66.1196 12.3597 64.1463C1.63438 52.0617 -0.045669 36.3721 7.13678 21.9727C12.3839 11.4474 23.5232 4.06145 35.1042 2.63324C35.1468 2.62787 35.1901 2.63161 35.2312 2.64422C35.2723 2.65684 35.3102 2.67803 35.3425 2.7064C35.3748 2.73477 35.4007 2.76968 35.4185 2.80881C35.4363 2.84793 35.4455 2.89039 35.4457 2.93337V3.54053C35.4457 3.66066 35.4741 3.77782 35.5285 3.88206C36.0137 4.802 35.8723 5.5736 35.1042 6.19686C35.003 6.27736 34.9409 6.38085 34.9179 6.50735C34.6396 8.05745 34.5338 9.61905 34.6005 11.1921C34.6074 11.3209 34.5464 11.3853 34.4176 11.3853H34.0692C33.899 11.3853 33.8346 11.467 33.876 11.6303C33.9841 12.0603 33.8898 12.4214 33.5931 12.7135C33.5702 12.7365 33.5736 12.7515 33.6035 12.7584C33.638 12.7675 33.6713 12.7779 33.7035 12.7894C33.7076 12.7902 33.7114 12.7922 33.7143 12.7952C33.7172 12.7981 33.7192 12.8019 33.72 12.806C33.7207 12.8101 33.7202 12.8143 33.7185 12.8182C33.7168 12.822 33.714 12.8252 33.7104 12.8273C33.6161 12.8917 33.5713 12.9515 33.5759 13.0067Z" fill="#B6B9D9"/>
<path d="M69.6965 26.9563C66.1892 17.0577 59.6691 9.63841 50.1362 4.69832L46.1931 3.11142C46.0758 3.06543 46.0712 3.03208 46.1793 3.01138C46.2161 3.00218 46.261 3.00448 46.3139 3.01828C49.0633 3.72203 51.975 4.45339 54.4691 5.59871C63.6502 9.80975 70.1461 16.6702 73.957 26.1801C74.2778 26.9805 74.3364 27.8705 73.2912 28.0464C73.2548 28.0528 73.2174 28.0499 73.1825 28.0381C73.1475 28.0263 73.116 28.0059 73.091 27.9788C73.0659 27.9517 73.0481 27.9187 73.039 27.8829C73.03 27.8471 73.0301 27.8097 73.0393 27.7739C73.1175 27.4657 73.0244 27.2403 72.7599 27.0978C72.6633 27.0449 72.561 27.0276 72.4529 27.046C71.5536 27.1932 70.6348 27.1633 69.6965 26.9563Z" fill="#B6B9D9"/>
<path d="M50.1371 4.69824C59.67 9.63833 66.1901 17.0577 69.6973 26.9562C70.6012 29.7644 71.2026 32.2482 71.5016 34.4078C71.7603 36.2637 74.9824 35.5772 76.1691 36.0878C76.2229 36.111 76.2682 36.1499 76.299 36.1992C76.3299 36.2486 76.3447 36.306 76.3416 36.3638L76.038 44.4535C76.0334 44.6007 75.9667 44.7088 75.8379 44.7778C74.8479 45.3194 73.8543 45.4091 72.9677 46.0887C72.295 46.6027 71.6361 47.0133 70.9669 47.6066C68.7073 49.604 66.2752 49.366 62.9668 49.2591C61.5662 49.2177 60.2967 48.5346 58.8409 48.3656C57.7059 48.2379 57.1056 47.7964 57.4334 46.6062C61.0832 45.2953 69.3731 41.1693 69.3317 36.5811C69.3317 36.4086 69.2949 36.4006 69.2213 36.557C65.1816 45.2746 49.3367 48.4242 40.8813 48.5588C39.3427 48.5841 37.78 48.6036 36.1931 48.6174C35.8711 48.4311 35.7768 48.1298 35.9102 47.7136C36.7347 45.1642 45.0452 45.2125 47.2565 45.2642C51.2686 45.3539 61.8905 43.8636 61.7766 37.7264C61.7145 34.3503 59.9379 32.055 56.4467 30.8407C56.6629 30.5072 56.932 30.406 57.254 30.5371C57.3598 30.5808 57.4541 30.5624 57.5369 30.4819C58.6477 29.3849 60.7693 27.9153 61.3523 26.5181C61.749 25.5625 62.5114 23.7031 62.2251 22.7027C62.0411 22.0541 61.9468 21.6838 61.9422 21.5918C61.9008 20.8191 62.1665 19.7565 61.342 19.2425C61.2431 19.1827 61.1672 19.2034 61.1143 19.3046L61.0556 19.4116C61.0234 19.4714 60.9912 19.4714 60.959 19.4116L60.5692 18.6837C60.5511 18.6497 60.5416 18.6118 60.5416 18.5733L60.5071 14.3956L60.4347 12.7535C60.4311 12.6873 60.4023 12.625 60.3542 12.5794C60.306 12.5338 60.2422 12.5085 60.1759 12.5085L58.0578 12.5051C57.8807 12.5028 57.7645 12.5856 57.7093 12.7535L56.1224 17.5763C56.0442 17.8132 55.9672 17.8132 55.8913 17.5763L54.2975 12.5603C53.895 11.1344 53.0636 9.74412 51.8033 8.38951C50.658 7.15449 50.1371 6.26789 50.1371 4.69824Z" fill="#B6B9D9"/>
<path d="M33.5765 13.0057C36.4812 15.4068 35.9327 20.716 31.5549 21.061C29.3884 21.2289 27.9533 20.2353 27.2496 18.0804C26.363 13.9613 29.7024 10.8807 33.5765 13.0057ZM31.1641 19.4843C31.449 19.4873 31.7319 19.4196 31.9966 19.285C32.2613 19.1505 32.5026 18.9517 32.7067 18.7001C32.9109 18.4486 33.0738 18.149 33.1863 17.8187C33.2989 17.4884 33.3587 17.1337 33.3625 16.7749C33.3662 16.4161 33.3138 16.0603 33.2083 15.7277C33.1027 15.395 32.946 15.0922 32.7472 14.8364C32.5483 14.5806 32.3113 14.3768 32.0494 14.2368C31.7876 14.0967 31.5062 14.0231 31.2213 14.0201C30.9363 14.0171 30.6534 14.0848 30.3887 14.2194C30.124 14.3539 29.8827 14.5527 29.6786 14.8042C29.4745 15.0558 29.3115 15.3553 29.199 15.6857C29.0864 16.016 29.0266 16.3707 29.0228 16.7295C29.0191 17.0882 29.0715 17.4441 29.1771 17.7767C29.2826 18.1093 29.4393 18.4122 29.6381 18.668C29.837 18.9238 30.0741 19.1276 30.3359 19.2676C30.5977 19.4077 30.8791 19.4813 31.1641 19.4843Z" fill="white"/>
<path d="M38.5931 15.3413C40.0351 15.7622 42.8225 16.052 42.995 18.0942C43.3676 22.4686 35.5435 21.8442 35.9954 18.1943C36.0092 18.0793 36.0748 18.0218 36.1921 18.0218L37.5099 18.0391C37.5606 18.0402 37.6101 18.0557 37.6528 18.0837C37.6954 18.1118 37.7296 18.1513 37.7514 18.1977C38.3631 19.5639 39.3176 19.9353 40.6147 19.312C40.9919 19.1303 41.1252 18.7923 41.0149 18.2978C41.0032 18.2491 40.9797 18.2043 40.9465 18.1675C40.9133 18.1307 40.8716 18.1031 40.8251 18.0873C39.114 17.494 36.23 17.1663 36.2197 14.8377C36.2093 11.4293 42.9364 11.5535 42.7294 14.9963C42.7225 15.1182 42.6581 15.1792 42.5362 15.1792H41.1563C41.0252 15.1792 40.9332 15.1194 40.8803 14.9998C40.4433 14.0201 39.6694 13.7303 38.5586 14.1304C38.4318 14.1761 38.3225 14.2608 38.2464 14.3723C38.1703 14.4837 38.1314 14.6163 38.1352 14.7508C38.1391 14.8854 38.1854 15.015 38.2677 15.1211C38.35 15.2272 38.4639 15.3043 38.5931 15.3413Z" fill="white"/>
<path d="M48.1381 18.0493C47.4183 17.6675 46.6133 17.3858 45.7233 17.2041C43.9708 16.8453 43.0877 15.1998 44.0363 13.6681C45.468 11.3533 49.8941 12.0363 50.2701 14.9721C50.2885 15.1101 50.2276 15.1791 50.0873 15.1791H48.6625C48.536 15.1791 48.444 15.1239 48.3865 15.0135C47.8254 13.9188 46.9963 13.6635 45.8992 14.2476C45.8047 14.298 45.727 14.375 45.6757 14.469C45.6243 14.5631 45.6017 14.6701 45.6105 14.7768C45.6193 14.8836 45.6592 14.9854 45.7252 15.0698C45.7912 15.1541 45.8805 15.2173 45.982 15.2515C47.0722 15.6241 49.2386 16.0208 49.9596 16.9523C52.9782 20.8229 44.3537 23.3309 43.4154 18.5978C43.4016 18.5284 43.4034 18.4568 43.4206 18.3882C43.4378 18.3195 43.47 18.2555 43.5148 18.2008C43.5597 18.146 43.6161 18.1019 43.68 18.0715C43.7439 18.0412 43.8138 18.0253 43.8846 18.0252H45.1782C45.3116 18.0252 45.3841 18.0907 45.3956 18.2218C45.5266 19.6535 47.2584 19.8156 48.2002 19.1739C48.294 19.1097 48.3697 19.0224 48.4199 18.9205C48.4702 18.8186 48.4933 18.7056 48.4871 18.5924C48.4808 18.4792 48.4454 18.3697 48.3843 18.2745C48.3231 18.1794 48.2383 18.1018 48.1381 18.0493Z" fill="white"/>
<path d="M26.1396 17.5491C26.1097 17.9608 26.043 18.3966 25.9395 18.8565C25.2634 21.8648 19.623 22.0407 18.8847 18.7186L18.7364 12.7573C18.7341 12.5894 18.8157 12.5009 18.9813 12.4917L20.5958 12.3951C20.6312 12.3927 20.6667 12.3977 20.7001 12.4096C20.7335 12.4216 20.7641 12.4402 20.79 12.4645C20.8159 12.4888 20.8365 12.5181 20.8506 12.5507C20.8647 12.5832 20.8719 12.6184 20.8718 12.6538C20.8695 14.4868 20.8741 16.2957 20.8856 18.0803C20.8959 19.7707 22.3621 19.4465 23.4453 19.2878C23.502 19.2791 23.5559 19.2575 23.6026 19.2245C23.6493 19.1916 23.6876 19.1483 23.7144 19.098C24.294 18.0148 23.9904 14.1786 23.9662 12.7815C23.9652 12.73 23.9748 12.6789 23.9944 12.6313C24.0139 12.5837 24.043 12.5407 24.0799 12.5048C24.1167 12.4689 24.1606 12.4409 24.2087 12.4227C24.2568 12.4044 24.3081 12.3962 24.3595 12.3986L25.9223 12.4676C26.0626 12.4745 26.1327 12.548 26.1327 12.6883L26.1396 17.5491Z" fill="white"/>
<path d="M54.2978 12.5611L55.8916 17.5771C55.9675 17.814 56.0445 17.814 56.1227 17.5771L57.7096 12.7543C57.7648 12.5864 57.881 12.5036 58.058 12.5059L60.1762 12.5094C60.2425 12.5093 60.3063 12.5346 60.3545 12.5802C60.4026 12.6258 60.4314 12.6881 60.4349 12.7543L60.5074 14.3964L60.4694 20.7716C60.4695 20.8162 60.4523 20.859 60.4214 20.8912C60.3905 20.9233 60.3484 20.9423 60.3039 20.9441L58.8825 20.9889C58.7262 20.9935 58.648 20.9188 58.648 20.7647V15.8591C58.6481 15.8392 58.641 15.8199 58.628 15.8047C58.6151 15.7896 58.5971 15.7796 58.5774 15.7767C58.5577 15.7738 58.5375 15.778 58.5207 15.7887C58.5039 15.7994 58.4915 15.8158 58.4858 15.8349L56.9058 20.5128C56.8358 20.7196 56.7017 20.8988 56.5231 21.0243C56.3445 21.1498 56.1305 21.2152 55.9122 21.211C55.6939 21.2067 55.4826 21.1331 55.309 21.0008C55.1353 20.8684 55.0083 20.6843 54.9463 20.4749C54.5255 19.0674 54.0529 17.6875 53.5285 16.3352C53.3675 15.9143 53.287 15.9292 53.287 16.38L53.3077 20.7509C53.3077 20.905 53.2307 20.9843 53.0766 20.9889L51.6104 21.0476C51.5825 21.049 51.5547 21.0447 51.5285 21.0349C51.5024 21.025 51.4785 21.01 51.4585 20.9906C51.4384 20.9711 51.4226 20.9478 51.4119 20.922C51.4012 20.8962 51.396 20.8685 51.3965 20.8406L51.4586 12.7508C51.4586 12.6036 51.5311 12.5312 51.6759 12.5335L54.2978 12.5611Z" fill="white"/>
<path d="M29.0224 16.7296C29.0066 18.2385 29.9653 19.4719 31.1636 19.4844C32.362 19.4969 33.3462 18.2839 33.362 16.775C33.3778 15.2662 32.4192 14.0328 31.2208 14.0202C30.0225 14.0077 29.0382 15.2207 29.0224 16.7296Z" fill="#B6B9D9"/>
<path d="M56.4454 30.8414C59.9366 32.0557 61.7133 34.3509 61.7754 37.7271C61.8892 43.8643 51.2673 45.3546 47.2552 45.2649C45.0439 45.2131 36.7334 45.1648 35.9089 47.7142C35.7755 48.1305 35.8698 48.4318 36.1918 48.6181C36.6472 49.3149 37.2509 49.6772 38.0029 49.7048C38.4974 49.9623 39.0172 50.1383 39.5622 50.2326C43.1017 50.8363 46.9172 50.995 50.3462 51.9713C53.5787 52.8924 54.9034 56.5526 51.7572 58.6638C48.6282 60.7682 44.7024 61.5824 41.0525 62.0136C37.2762 62.462 33.5538 62.6242 29.8856 62.5C29.7982 62.4979 29.7142 62.4659 29.6475 62.4094C29.5808 62.353 29.5354 62.2754 29.5189 62.1896C29.5024 62.1037 29.5157 62.0149 29.5567 61.9377C29.5977 61.8605 29.6638 61.7996 29.7441 61.7652C30.5491 61.4087 31.4161 61.1615 32.3453 61.0235C36.5011 60.4094 40.5776 59.4734 44.5747 58.2154C45.5545 57.9049 46.4204 57.4461 47.2656 56.9286C48.1096 56.4111 48.0073 55.8776 46.9585 55.3279C46.8763 55.2845 46.7878 55.2542 46.6964 55.2382C45.6476 55.0519 44.7955 54.9588 43.6019 54.9519C41.0537 54.9381 38.5756 54.5207 36.1676 53.6996C33.6389 52.782 31.4414 51.4262 30.3616 48.9113L30.203 47.7177C31.0965 40.9078 40.3729 40.6594 45.4855 40.5973C47.5588 40.5732 54.0272 40.3869 54.9344 38.3688C56.2212 35.5158 52.0125 35.0949 50.3669 35.1467C47.8727 35.226 45.4889 35.2433 42.8982 35.4261C36.6816 35.8677 30.1961 36.2817 24.7661 32.9595C23.7484 32.3386 22.7618 32.2696 21.6578 31.7866C19.6535 30.2549 18.1943 26.7706 17.5768 25.37C17.3353 24.8203 17.3594 24.3408 17.6492 23.9314C19.2913 21.6097 25.1801 25.8081 26.5565 27.0017C27.2016 27.5606 27.4776 28.6369 28.3711 29.2165C29.9235 30.2238 32.1072 30.555 33.9184 30.6206C38.4882 30.7908 43.043 30.6102 47.583 30.079C50.6648 29.7179 53.6189 29.972 56.4454 30.8414ZM55.3174 36.568C57.2561 40.9251 47.9107 41.0424 45.758 41.0113C41.9874 40.9596 35.4397 41.3597 32.5143 44.0471C28.8403 47.4245 31.3552 51.202 35.0361 52.7751C38.1547 54.1067 41.5102 54.6747 45.1026 54.4793C45.6097 54.4517 47.7623 54.8725 48.2005 55.6177C50.0978 58.8294 32.1486 61.5168 30.4375 61.8204C30.4068 61.8273 30.3795 61.8451 30.3608 61.8705C30.3421 61.896 30.3331 61.9273 30.3357 61.9587C30.3382 61.9902 30.352 62.0197 30.3745 62.0418C30.397 62.0639 30.4267 62.0772 30.4582 62.0791C35.7295 62.2275 48.956 61.7997 52.4506 57.453C54.1099 55.39 52.3368 52.8475 50.2807 52.3335C46.4066 51.371 40.6178 51.7091 36.692 49.6875C34.3703 48.4939 35.6536 46.393 37.5406 45.8065C40.2867 44.9544 42.1979 44.9544 46.003 44.8406C50.8361 44.6957 64.3351 43.6883 60.8439 35.1087C58.8603 30.2342 51.1776 30.0789 46.8482 30.5999C42.4945 31.1208 29.958 32.4283 27.2499 28.7266C25.532 26.3808 22.265 23.9349 19.1533 23.7969C18.2357 23.7555 17.5561 24.3316 18.0321 25.2734C19.3603 27.9021 20.4297 31.6624 23.9002 31.9798C24.0159 31.9911 24.1282 32.0301 24.2279 32.0936C29.7614 35.7504 35.7261 35.3675 41.9805 34.9949C45.0163 34.8155 47.9314 34.8224 50.3635 34.6741C52.0194 34.574 54.5446 34.8327 55.3174 36.568Z" fill="#B6B9D9"/>
<path d="M55.3165 36.5681C54.5438 34.8329 52.0185 34.5741 50.3626 34.6742C47.9305 34.8225 45.0155 34.8156 41.9797 34.995C35.7252 35.3676 29.7605 35.7505 24.2271 32.0937C24.1274 32.0302 24.0151 31.9912 23.8994 31.9799C20.4289 31.6625 19.3595 27.9023 18.0313 25.2735C17.5552 24.3317 18.2348 23.7556 19.1525 23.797C22.2642 23.935 25.5311 26.3809 27.2491 28.7267C29.9572 32.4284 42.4937 31.1209 46.8473 30.6C51.1768 30.0791 58.8594 30.2343 60.8431 35.1088C64.3343 43.6885 50.8353 44.6958 46.0021 44.8407C42.197 44.9545 40.2858 44.9545 37.5398 45.8066C35.6528 46.3931 34.3695 48.494 36.6912 49.6876C40.617 51.7092 46.4057 51.3711 50.2798 52.3336C52.3359 52.8476 54.1091 55.3901 52.4498 57.4531C48.9551 61.7998 35.7287 62.2276 30.4574 62.0792C30.4259 62.0773 30.3962 62.064 30.3736 62.0419C30.3511 62.0198 30.3373 61.9903 30.3348 61.9589C30.3323 61.9274 30.3412 61.8961 30.3599 61.8707C30.3786 61.8452 30.4059 61.8274 30.4367 61.8205C32.1478 61.5169 50.097 58.8295 48.1996 55.6178C47.7615 54.8726 45.6088 54.4518 45.1017 54.4794C41.5094 54.6749 38.1539 54.1068 35.0353 52.7752C31.3543 51.2021 28.8395 47.4246 32.5135 44.0472C35.4389 41.3599 41.9866 40.9597 45.7572 41.0114C47.9098 41.0425 57.2553 40.9252 55.3165 36.5681Z" fill="white"/>
<path d="M21.6574 31.7861C22.7613 32.2691 23.748 32.3381 24.7657 32.9591C30.1956 36.2812 36.6812 35.8672 42.8977 35.4257C45.4885 35.2428 47.8723 35.2256 50.3665 35.1462C52.012 35.0945 56.2208 35.5153 54.934 38.3683C54.0267 40.3864 47.5584 40.5727 45.485 40.5969C40.3725 40.659 31.096 40.9074 30.2025 47.7172C23.9826 46.7237 12.8363 43.2118 10.0627 36.7297C9.99599 36.571 9.95114 36.5767 9.92814 36.7469C9.73841 38.2303 11.6496 40.4968 12.7501 41.4386C17.5798 45.5749 24.155 47.8276 30.3612 48.9108C31.441 51.4257 33.6385 52.7815 36.1672 53.6991C36.1396 53.752 36.1373 53.8256 36.1603 53.9199C36.1856 54.028 36.143 54.0775 36.0326 54.0683C35.5313 54.0361 35.0897 54.189 34.7079 54.5271C34.6589 54.5697 34.6 54.5997 34.5364 54.6147C34.4727 54.6298 34.4061 54.6293 34.3422 54.6133C33.6799 54.4477 33.1337 54.4477 32.7036 54.6133C29.3504 55.9001 25.9213 56.7764 25.3521 60.8816C25.1198 62.5605 25.4453 63.876 26.3284 64.8281C27.6566 66.2564 28.5949 68.3159 29.7747 69.3232C31.0719 70.4306 31.7204 71.3965 33.2073 72.5419C34.417 73.4733 34.854 74.3116 34.5182 75.0567C25.5787 72.1244 18.4721 66.7209 13.1985 58.8462C11.7611 56.5993 10.4905 54.2063 9.38653 51.6672C9.36526 51.618 9.3273 51.5779 9.27934 51.5539C9.23138 51.5299 9.17649 51.5236 9.12435 51.5361C8.34009 51.7247 7.63059 52.2893 6.99583 53.23C4.3372 47.0572 3.42646 40.6716 4.2636 34.0733C4.79027 33.9008 5.29394 33.9112 5.77461 34.1044C5.8735 34.1435 5.931 34.2159 5.9471 34.3217L5.9609 34.4356C5.97929 34.569 6.05289 34.6184 6.18168 34.5839C6.65545 34.4551 6.86704 34.1481 6.81644 33.6628C6.7968 33.478 6.84995 33.2929 6.9646 33.1467C7.07926 33.0005 7.24638 32.9047 7.4305 32.8797C12.036 32.2691 16.4689 33.3075 21.0951 32.7624C21.3872 32.7279 21.562 32.6348 21.6195 32.483C21.6815 32.322 21.6942 32.0897 21.6574 31.7861Z" fill="#B6B9D9"/>
<path d="M57.4317 46.6061C51.1692 48.8967 44.6928 49.9294 38.0025 49.704C37.2505 49.6764 36.6468 49.3142 36.1914 48.6173C37.7783 48.6035 39.3411 48.5839 40.8797 48.5587C49.3351 48.4241 65.1799 45.2745 69.2196 36.5569C69.2932 36.4005 69.33 36.4085 69.33 36.581C69.3714 41.1692 61.0816 45.2952 57.4317 46.6061Z" fill="white"/>
<path d="M30.2035 47.7167L30.3622 48.9103C24.156 47.8271 17.5808 45.5744 12.7511 41.4381C11.6506 40.4963 9.73941 38.2298 9.92915 36.7464C9.95215 36.5762 9.99699 36.5704 10.0637 36.7291C12.8373 43.2113 23.9836 46.7231 30.2035 47.7167Z" fill="white"/>
<path d="M13.1988 58.8467C12.4628 59.5596 11.659 59.8264 10.7874 59.647C10.677 59.624 10.5873 59.5654 10.5183 59.4711C9.05331 57.4679 7.87924 55.3877 6.99609 53.2304C7.63085 52.2898 8.34036 51.7252 9.12461 51.5366C9.17675 51.524 9.23164 51.5303 9.2796 51.5543C9.32756 51.5783 9.36552 51.6184 9.38679 51.6677C10.4907 54.2067 11.7614 56.5997 13.1988 58.8467Z" fill="#B6B9D9"/>
</svg>
