<?xml version="1.0" encoding="utf-8"?>
<!-- Generator: Adobe Illustrator 25.0.1, SVG Export Plug-In . SVG Version: 6.00 Build 0)  -->
<svg version="1.1" id="Layer_1" xmlns="http://www.w3.org/2000/svg" xmlns:xlink="http://www.w3.org/1999/xlink" x="0px" y="0px"
	 viewBox="0 0 39 38" style="enable-background:new 0 0 39 38;" xml:space="preserve">
<style type="text/css">
	.st0{fill:#EAEAEA;}
</style>
<path class="st0" d="M38.2,35.6c-2,0-3.6-1.6-3.6-3.5V4.2c0-2.3-1.9-4.2-4.2-4.2s-4.2,1.9-4.2,4.2v29.7c0,1-0.8,1.7-1.7,1.7
	s-1.7-0.8-1.7-1.7v-8.2c0-2.3-1.9-4.2-4.2-4.2c-2.3,0-4.2,1.9-4.2,4.2v8.2c0,1-0.8,1.7-1.7,1.7s-1.7-0.8-1.7-1.7V17.3
	c0-2.3-1.9-4.2-4.2-4.2c-2.3,0-4.2,1.9-4.2,4.2v16.5c0,1-0.8,1.7-1.7,1.7H0.6V38H1c2.3,0,4.2-1.9,4.2-4.2V17.3c0-1,0.8-1.7,1.7-1.7
	c1,0,1.7,0.8,1.7,1.7v16.5c0,2.3,1.9,4.2,4.2,4.2c2.3,0,4.2-1.9,4.2-4.2v-8.2c0-1,0.8-1.7,1.7-1.7c1,0,1.7,0.8,1.7,1.7v8.2
	c0,2.3,1.9,4.2,4.2,4.2s4.2-1.9,4.2-4.2V4.2c0-1,0.8-1.7,1.7-1.7c1,0,1.7,0.8,1.7,1.7V32c0,3.3,2.7,6,6,6h0.4v-2.4H38.2z"/>
</svg>
