<svg width="104" height="79" viewBox="0 0 104 79" fill="none" xmlns="http://www.w3.org/2000/svg">
<path d="M44.7615 16.146C39.0602 11.1407 42.6095 3.39909 48.5659 0.790199C50.0802 0.126022 51.3236 0.646737 52.2321 1.89539C56.5732 7.85705 52.8963 12.6232 48.3321 16.5923C48.2626 16.6519 48.1775 16.6898 48.0876 16.7012C47.9977 16.7125 47.9071 16.6968 47.8273 16.6561C47.0197 16.2381 46.1819 16.1176 45.3141 16.2948C45.1051 16.3373 44.9209 16.2877 44.7615 16.146Z" fill="#B6B9D9"/>
<path d="M78.402 10.6629C78.6377 10.6368 78.8755 10.688 79.0796 10.8087C79.2837 10.9295 79.4431 11.1132 79.5337 11.3324C79.9517 12.3455 80.3892 13.378 80.8462 14.4301C81.3828 15.6734 81.1756 16.5023 81.0959 17.7882C81.09 17.877 81.0553 17.9617 80.9969 18.0296C80.9385 18.0976 80.8596 18.1452 80.7718 18.1654C60.0707 22.9404 40.1719 29.9807 21.0755 39.2863C20.8771 39.3855 20.6912 39.3642 20.5176 39.2225C19.7099 38.5566 19.0033 38.6628 18.3975 39.5413C18.3019 39.6866 18.1708 39.784 18.0043 39.8336C17.0373 40.1417 16.1818 40.6501 15.438 41.3585C15.3818 41.4107 15.3112 41.4445 15.2353 41.4556C15.1595 41.4666 15.0821 41.4543 15.0135 41.4202C14.9448 41.3862 14.8882 41.3321 14.8511 41.265C14.8139 41.198 14.7981 41.1213 14.8057 41.045C14.9403 39.6175 14.37 38.6451 13.0947 38.128C13.0494 38.1097 13.0101 38.079 12.9813 38.0394C12.9526 37.9998 12.9356 37.953 12.9322 37.9042C12.9289 37.8554 12.9394 37.8066 12.9625 37.7635C12.9856 37.7204 13.0204 37.6846 13.0629 37.6604C14.1468 37.044 14.8588 36.1089 15.8471 35.5191C34.4653 24.4353 54.0453 17.1187 74.8632 11.3643C76.1207 11.0136 77.3003 10.7798 78.402 10.6629Z" fill="#B6B9D9"/>
<path d="M86.9555 20.3226C89.0561 22.7101 90.4021 25.4766 90.9937 28.6222C91.0123 28.7205 90.9973 28.8224 90.9511 28.9118C90.905 29.0013 90.8302 29.0732 90.7386 29.1163L63.7146 41.7144C63.5694 41.7817 63.4436 41.7569 63.3373 41.6401C59.2779 37.2033 56.0739 34.4032 53.0187 32.0228C52.9827 31.9943 52.9548 31.957 52.9375 31.9146C52.9203 31.8721 52.9143 31.8259 52.9202 31.7804C52.926 31.7349 52.9436 31.6918 52.9711 31.6551C52.9986 31.6184 53.0351 31.5895 53.0771 31.5711C63.6668 26.9484 75.3457 23.5904 86.3923 20.1632C86.4921 20.1329 86.5983 20.1318 86.6982 20.1601C86.7981 20.1884 86.8875 20.2448 86.9555 20.3226Z" fill="#B6B9D9"/>
<path d="M72.6836 56.9262C72.2514 53.8657 71.0825 51.1665 69.1767 48.8286C67.8484 47.192 66.8654 45.0454 65.1066 43.7596C64.6072 43.3947 64.6532 43.1166 65.2448 42.9254C76.6226 39.2591 88.1138 36.2375 99.7183 33.8607C100.299 33.7402 100.761 33.634 101.105 33.5419C101.195 33.5174 101.29 33.524 101.377 33.5605C101.463 33.597 101.536 33.6615 101.583 33.7438C102.625 35.561 105.111 42.7447 102.008 43.5152C97.0562 44.7479 92.1378 46.1772 87.253 47.8031C87.1471 47.839 87.0569 47.9105 86.9978 48.0055C86.9387 48.1004 86.9143 48.2129 86.9289 48.3238L87.4443 52.2026C87.4726 52.4222 87.3823 52.571 87.1733 52.6489L72.928 57.7817C72.7721 57.8384 72.6694 57.787 72.6198 57.6276C72.5879 57.5249 72.5933 57.4239 72.6358 57.3247C72.6854 57.1972 72.7013 57.0644 72.6836 56.9262Z" fill="#B6B9D9"/>
<path d="M18.6778 57.9046C14.4235 59.0735 10.2986 60.6534 6.30286 62.6442C3.52394 64.0256 2.83851 58.2234 2.6366 56.6187C2.59703 56.2965 2.65001 55.9699 2.78932 55.6771C2.92862 55.3844 3.14845 55.1378 3.42299 54.9663C5.34644 53.7583 7.40982 52.5947 9.61312 51.4753C20.3834 46.0078 31.3503 40.1737 42.4607 35.4607C42.5168 35.4378 42.5786 35.4317 42.6382 35.4431C42.6978 35.4546 42.7526 35.4832 42.7958 35.5252C42.8389 35.5672 42.8685 35.6208 42.8807 35.6793C42.8929 35.7378 42.8873 35.7985 42.8645 35.8539C39.2833 45.0355 35.3726 54.1321 32.1367 63.319C32.0871 63.4571 31.9968 63.5581 31.8657 63.6218L3.95964 76.6769C3.89578 76.7074 3.82473 76.7195 3.75438 76.712C3.68403 76.7045 3.61713 76.6776 3.56114 76.6344C2.29654 75.678 1.41097 74.4913 0.904425 73.0744C0.0755319 70.7631 -0.896825 68.9618 1.57923 67.5166C7.22562 64.2222 12.9588 61.1068 18.7788 58.1703C18.8091 58.1536 18.8325 58.1266 18.8445 58.0941C18.8565 58.0616 18.8563 58.0258 18.844 57.9935C18.8317 57.9611 18.8081 57.9342 18.7775 57.9179C18.747 57.9016 18.7116 57.8968 18.6778 57.9046Z" fill="#B6B9D9"/>
<path d="M39.8198 70.0613C40.1386 70.1427 40.3777 70.04 40.5371 69.7531C44.4903 62.6615 48.1211 55.4086 51.4296 47.9946C51.448 47.9537 51.4756 47.9176 51.5102 47.889C51.5448 47.8605 51.5855 47.8403 51.6292 47.83C51.6729 47.8198 51.7183 47.8197 51.762 47.8298C51.8058 47.8399 51.8465 47.86 51.8813 47.8884C56.6102 51.7353 58.8897 56.2836 59.9736 62.2877C60.0728 62.8474 59.901 63.1963 59.4582 63.3345C59.0331 63.4656 58.8117 63.5364 58.794 63.547C48.5958 68.3964 38.5286 73.3467 28.5925 78.398C28.4146 78.4878 28.2127 78.5192 28.0153 78.4877C27.818 78.4563 27.6352 78.3636 27.4927 78.2227C26.2334 76.9687 23.5129 71.4746 25.6914 70.0772C27.5015 68.9118 29.3612 67.8296 31.2705 66.8307C31.5574 66.6819 31.7009 66.7687 31.7009 67.0911V67.8137C31.7012 67.8979 31.7318 67.9794 31.7873 68.0436C31.8427 68.1078 31.9194 68.1506 32.0038 68.1644C32.822 68.2919 33.5234 68.6461 34.1079 69.2271C34.285 69.4006 34.4975 69.4697 34.7455 69.4343C35.7692 69.2961 36.6087 69.6362 37.264 70.4545C37.3131 70.5149 37.3835 70.5541 37.4606 70.564C37.5378 70.5738 37.6158 70.5537 37.6785 70.5076C38.3444 70.0152 39.0582 69.8664 39.8198 70.0613Z" fill="#B6B9D9"/>
</svg>
