<?xml version="1.0" encoding="utf-8"?>
<!-- Generator: Adobe Illustrator 25.0.1, SVG Export Plug-In . SVG Version: 6.00 Build 0)  -->
<svg version="1.1" id="Layer_1" xmlns="http://www.w3.org/2000/svg" xmlns:xlink="http://www.w3.org/1999/xlink" x="0px" y="0px"
	 viewBox="0 0 36 36" style="enable-background:new 0 0 36 36;" xml:space="preserve">
<style type="text/css">
	.st0{fill-rule:evenodd;clip-rule:evenodd;fill:#EAEAEA;}
</style>
<path class="st0" d="M12.4,0.2c11.7,0,11.9,0,12.9,0.3c0.6,0.1,1.3,0.4,1.7,0.5c0.4,0.1,1.2,0.5,1.7,0.8c0.6,0.3,1,0.6,1.1,0.6
	c0,0,0.2,0.2,0.4,0.3C30.4,2.8,30.8,3,31,3.2c0.2,0.2,0.7,0.7,1.1,1.1c0.4,0.4,0.8,0.9,0.9,1c0.1,0.1,0.2,0.3,0.2,0.3
	c0,0,0.1,0.3,0.3,0.5c0.2,0.3,0.5,0.8,0.7,1.3c0.2,0.4,0.5,1,0.6,1.2c0.1,0.2,0.3,0.8,0.4,1.3c0.1,0.5,0.3,1.4,0.3,2.1
	c0.1,1,0.1,1.5,0,2.4c-0.1,0.7-0.2,1.7-0.4,2.2c-0.1,0.6-0.3,1.1-0.3,1.2c-0.1,0.1-0.3,0.6-0.6,1.2c-0.3,0.5-0.5,1-0.6,1.1
	c-0.1,0.1-0.3,0.5-0.6,0.9c-0.3,0.4-0.9,1.1-1.3,1.5c-0.5,0.5-1.2,1.1-1.7,1.4c-0.5,0.3-1.2,0.7-1.5,0.9c-0.4,0.2-1,0.5-1.5,0.6
	c-0.4,0.2-1,0.3-1.2,0.3c-0.2,0-0.4,0-0.4,0.1c0,0.1,0.3,0.8,0.6,1.6c0.4,0.8,1,2.1,1.4,2.9c0.4,0.8,1.1,2.3,1.6,3.4
	c0.5,1.1,0.9,2,0.9,2.1c0,0.1-1.1,0.1-4.4,0L23.2,31c-1.3-2.6-2.4-4.8-2.4-4.8c0,0-2.4,0-5.3,0c-2.9,0-5.3,0-5.4-0.1
	c-0.1,0-0.2-1.4-0.2-10.8c0-9.5,0-10.8-0.2-10.8c-0.1,0-1.1-0.1-2.2-0.1c-1.1,0-2.3,0-3,0.2v15.5c0,8.5,0,15.6,0,15.6
	c0,0.1-0.5,0.1-2,0.1c-1.1,0-2-0.1-2.1-0.1c0-0.1-0.1-8-0.1-17.7c0-15.2,0-17.7,0.1-17.7C0.5,0.2,5.9,0.2,12.4,0.2z M14.1,4.5
	c0,16.2,0,17.3,0.2,17.3c0.1,0,2.1,0.1,4.5,0.1c3.4,0,4.6,0,5.3-0.2c0.5-0.1,1.2-0.3,1.6-0.4c0.4-0.1,1.1-0.5,1.6-0.9
	c0.5-0.3,1.2-0.9,1.5-1.2c0.3-0.3,0.7-0.7,0.8-0.9c0.1-0.2,0.2-0.3,0.2-0.3c0,0,0.1-0.2,0.2-0.3c0.1-0.2,0.3-0.5,0.4-0.9
	c0.2-0.3,0.4-1,0.5-1.4c0.1-0.4,0.3-1.2,0.3-1.8c0-0.6,0-1.3-0.1-1.8c-0.1-0.4-0.2-1-0.2-1.2c-0.1-0.2-0.2-0.7-0.4-1
	C30.5,9.3,30.4,9,30.4,9c0,0-0.2-0.3-0.4-0.6c-0.2-0.3-0.8-1-1.3-1.5c-0.8-0.8-1.1-1-2-1.4c-0.6-0.3-1.2-0.6-1.5-0.7
	c-0.2-0.1-0.9-0.2-1.5-0.2c-0.6-0.1-2.9-0.1-5.1-0.1c-2.2,0-4.1,0-4.2,0.1L14.1,4.5z"/>
</svg>
