<?xml version="1.0" encoding="utf-8"?>
<!-- Generator: Adobe Illustrator 25.0.1, SVG Export Plug-In . SVG Version: 6.00 Build 0)  -->
<svg version="1.1" id="Layer_1" xmlns="http://www.w3.org/2000/svg" xmlns:xlink="http://www.w3.org/1999/xlink" x="0px" y="0px"
	 viewBox="0 0 49 32" style="enable-background:new 0 0 49 32;" xml:space="preserve">
<style type="text/css">
	.st0{opacity:0.3;fill:#EAEAEA;enable-background:new    ;}
	.st1{opacity:0.6;}
	.st2{fill:#EAEAEA;}
	.st3{opacity:0.3;}
</style>
<path class="st0" d="M6.2,19L20.8,0.6h-6.2L0,19H6.2z"/>
<g class="st1">
	<path class="st2" d="M12.6,19L27.1,0.6h-6.3L6.2,19H12.6z"/>
</g>
<path class="st2" d="M33.1,16.3L45.4,0.6H27.1L12.6,19h14.9C29.7,19,31.7,18,33.1,16.3L33.1,16.3z"/>
<path class="st2" d="M37.7,13l-3.9,5c-1.3,1.7-3.4,2.8-5.6,2.8h-4.4l-8.4,10.6h14.5c2.5,0,4.8-1.1,6.3-3.1L48.3,13L37.7,13L37.7,13z
	"/>
<g class="st1">
	<path class="st2" d="M17.5,20.7L9.1,31.4h6.3l8.4-10.7H17.5z"/>
</g>
<g class="st3">
	<path class="st2" d="M11.2,20.7L2.8,31.4h6.3l8.4-10.7H11.2z"/>
</g>
</svg>
