<svg width="96" height="69" viewBox="0 0 96 69" fill="none" xmlns="http://www.w3.org/2000/svg">
<path d="M81.3462 63.1039C81.4527 63.2897 81.6071 63.4442 81.7937 63.5516C81.9804 63.659 82.1927 63.7156 82.4092 63.7157C85.7183 63.7157 89.0809 63.7106 92.497 63.7004C95.5485 63.6851 96.191 67.8151 92.8794 68.1286C88.5735 68.5263 79.8701 69.4976 77.2545 65.0082C72.1609 56.2589 67.1438 47.5631 62.2032 38.9209C62.0343 38.627 61.7909 38.3828 61.4975 38.213C61.2041 38.0432 60.8711 37.9538 60.5321 37.9538C60.1931 37.9538 59.8601 38.0432 59.5667 38.213C59.2733 38.3828 59.0299 38.627 58.861 38.9209C53.8745 47.5886 48.86 56.2028 43.8174 64.7635C40.6435 70.1477 32.6895 68.6946 32.0241 62.8133C31.68 59.7923 33.7908 56.9396 35.3893 54.2093C38.0763 49.6051 43.5217 40.1318 51.7254 25.7892C51.756 25.7332 51.9574 25.4374 52.3296 24.9021C54.0734 22.3629 50.6929 20.2215 49.4463 22.3706C41.5587 35.928 33.6965 49.4981 25.8599 63.0809C24.7789 64.9573 23.8637 66.2039 23.1142 66.8208C20.1162 69.2682 15.7568 68.2281 13.8295 65.0541C12.1929 62.3467 13.0188 59.9835 14.6096 57.2379C24.1645 40.6978 33.7067 24.15 43.2361 7.59462C43.3585 7.38048 43.4018 7.15104 43.3661 6.90631C43.0449 4.87193 40.5364 4.49718 39.4886 6.348C27.8483 26.7274 16.1494 47.0762 4.39189 67.3944C4.28222 67.5837 4.11689 67.7357 3.91771 67.8304C1.14148 69.1382 -0.30399 66.2931 0.996172 64.0522C12.2846 44.6212 23.5654 25.1851 34.8386 5.74381C37.263 1.56035 40.6588 -1.30766 45.2399 1.82803C48.7733 4.2448 48.0391 8.18352 46.0506 11.6481C36.6435 27.9842 27.2314 44.3204 17.8141 60.6565C16.384 63.1268 19.6114 64.8782 20.8886 62.6756C28.7916 49.0723 36.6818 35.4589 44.5592 21.8352C45.8288 19.6377 47.0601 18.2126 48.2532 17.56C52.2455 15.3879 57.928 19.2349 57.3467 23.7625C57.209 24.8485 56.4748 26.5413 55.1441 28.8408C49.1277 39.2625 43.1291 49.6944 37.1483 60.1365C36.7608 60.8095 36.5492 61.3448 36.5135 61.7425C36.3912 63.1115 37.8213 64.1899 39.068 63.4175C39.5472 63.1217 39.9704 62.6603 40.3375 62.0332C45.0283 53.8957 49.7267 45.7607 54.4328 37.6284C58.1727 31.1581 63.7328 32.5883 67.0291 38.3243C71.8066 46.6505 76.5789 54.9103 81.3462 63.1039Z" fill="#B6B9D9"/>
</svg>
