<svg width="81" height="81" viewBox="0 0 81 81" fill="none" xmlns="http://www.w3.org/2000/svg">
<circle cx="40.5" cy="40.5" r="40.5" fill="#B6B9D9"/>
<path d="M28.1852 48.803H20.4233C20.3883 48.8031 20.3543 48.8149 20.3269 48.8365C20.2994 48.8582 20.28 48.8884 20.2718 48.9224L18.7433 54.8804C18.735 54.9144 18.7156 54.9446 18.6882 54.9663C18.6607 54.9879 18.6268 54.9997 18.5918 54.9997H13.157C13.1329 54.9999 13.1091 54.9945 13.0875 54.9839C13.0658 54.9733 13.0469 54.9578 13.0323 54.9387C13.0176 54.9196 13.0075 54.8973 13.0029 54.8737C12.9983 54.85 12.9992 54.8256 13.0056 54.8024L20.6665 27.1421C20.6756 27.109 20.6954 27.0798 20.7228 27.059C20.7502 27.0383 20.7837 27.0271 20.818 27.0273L28.277 27.0687C28.3114 27.0684 28.3448 27.0796 28.3722 27.1003C28.3996 27.1211 28.4194 27.1503 28.4285 27.1834L35.9288 54.8024C35.9351 54.8252 35.9361 54.8492 35.9317 54.8726C35.9273 54.8959 35.9177 54.9179 35.9035 54.9369C35.8894 54.9559 35.871 54.9715 35.85 54.9824C35.8289 54.9933 35.8056 54.9992 35.7819 54.9997H29.9662C29.9312 54.9997 29.8973 54.9879 29.8698 54.9663C29.8423 54.9446 29.8229 54.9144 29.8147 54.8804L28.3367 48.9224C28.3285 48.8884 28.3091 48.8582 28.2816 48.8365C28.2541 48.8149 28.2202 48.8031 28.1852 48.803ZM21.5249 44.2909C21.52 44.3115 21.5198 44.3329 21.5245 44.3535C21.5292 44.3741 21.5385 44.3934 21.5518 44.4098C21.5651 44.4263 21.5821 44.4394 21.6013 44.4482C21.6205 44.4571 21.6415 44.4613 21.6626 44.4608L26.8632 44.424C26.884 44.4239 26.9044 44.4191 26.9231 44.41C26.9417 44.4008 26.958 44.3876 26.9708 44.3713C26.9836 44.3549 26.9926 44.3359 26.997 44.3157C27.0014 44.2954 27.0012 44.2744 26.9964 44.2542L24.3157 32.8568C24.3093 32.8253 24.2921 32.7969 24.267 32.7768C24.2419 32.7566 24.2106 32.7458 24.1784 32.7464C24.1462 32.7469 24.1152 32.7587 24.0908 32.7798C24.0664 32.8008 24.0502 32.8297 24.0449 32.8614L21.5249 44.2909Z" fill="white"/>
<path d="M51.6929 50.5521V54.7888C51.6929 54.8448 51.6706 54.8985 51.631 54.9381C51.5914 54.9777 51.5377 54.9999 51.4817 54.9999H37.3303C37.2743 54.9999 37.2206 54.9777 37.181 54.9381C37.1414 54.8985 37.1191 54.8448 37.1191 54.7888V27.2111C37.1191 27.1551 37.1414 27.1014 37.181 27.0618C37.2206 27.0222 37.2743 27 37.3303 27H42.7604C42.8164 27 42.8701 27.0222 42.9097 27.0618C42.9493 27.1014 42.9716 27.1551 42.9716 27.2111V50.2032C42.9716 50.2592 42.9938 50.3129 43.0334 50.3525C43.073 50.3921 43.1267 50.4144 43.1827 50.4144L51.4817 50.3409C51.5377 50.3409 51.5914 50.3632 51.631 50.4028C51.6706 50.4424 51.6929 50.4961 51.6929 50.5521Z" fill="white"/>
<path d="M67.8726 50.4878V54.7888C67.8726 54.8448 67.8503 54.8985 67.8107 54.9381C67.7711 54.9777 67.7174 54.9999 67.6614 54.9999H53.51C53.454 54.9999 53.4003 54.9777 53.3607 54.9381C53.3211 54.8985 53.2988 54.8448 53.2988 54.7888V27.2111C53.2988 27.1551 53.3211 27.1014 53.3607 27.0618C53.4003 27.0222 53.454 27 53.51 27H58.9401C58.9961 27 59.0498 27.0222 59.0894 27.0618C59.129 27.1014 59.1513 27.1551 59.1513 27.2111V50.2032C59.1513 50.2314 59.1569 50.2592 59.1678 50.2851C59.1787 50.311 59.1946 50.3345 59.2147 50.3542C59.2348 50.3738 59.2587 50.3893 59.2848 50.3996C59.3109 50.41 59.3389 50.415 59.367 50.4144L67.6568 50.2767C67.6849 50.2761 67.7129 50.2811 67.739 50.2914C67.7652 50.3017 67.789 50.3172 67.8091 50.3369C67.8292 50.3565 67.8452 50.38 67.8561 50.4059C67.867 50.4319 67.8726 50.4597 67.8726 50.4878Z" fill="white"/>
</svg>
