<?xml version="1.0" encoding="utf-8"?>
<!-- Generator: Adobe Illustrator 25.0.1, SVG Export Plug-In . SVG Version: 6.00 Build 0)  -->
<svg version="1.1" id="Layer_1" xmlns="http://www.w3.org/2000/svg" xmlns:xlink="http://www.w3.org/1999/xlink" x="0px" y="0px"
	 viewBox="0 0 37 39" style="enable-background:new 0 0 37 39;" xml:space="preserve">
<style type="text/css">
	.st0{fill:none;stroke:#EAEAEA;stroke-width:2.8;}
	.st1{fill:none;stroke:#89909B;stroke-width:2.8;}
	.st2{fill:#CCCCCC;}
	.st3{fill:#FFFFFF;}
</style>
<g>
	<path vector-effect="non-scaling-stroke" class="st0" d="M18.1,8.1l-5.2-5.9c-0.3-0.3-0.6-0.4-1-0.3c-4.4,1.2-7.4,3.9-9,8.1
		c-0.1,0.2-0.1,0.4,0,0.6c0.9,3,2.4,5.7,4.6,8c0.3,0.3,0.4,0.9,0.1,1.2l-5,7.4c-0.2,0.3-0.2,0.6-0.1,0.9c1.6,4.5,4.6,7.6,9.1,9.2
		c0.4,0.1,0.8,0,1.1-0.3l5.2-6.2c0.3-0.4,1-0.5,1.4-0.1c0.1,0,0.1,0.1,0.1,0.1l3.9,4.8c1.2,1.5,2.8,1.8,4.7,0.9
		c3.5-1.7,5.8-4.7,6.8-8.9c0.1-0.3,0-0.6-0.1-0.8l-4.7-7c-0.3-0.4-0.2-0.9,0.1-1.2c1.9-2.1,3.3-4.5,4.3-7.1c0.1-0.2,0.1-0.4,0-0.6
		c-1.3-4.4-4.1-7.4-8.6-9c-0.4-0.1-0.8,0-1.1,0.3l-5,5.9c-0.4,0.4-1,0.5-1.4,0.1C18.2,8.2,18.1,8.1,18.1,8.1"/>
	<path vector-effect="non-scaling-stroke" class="st1" d="M19.5,24.4l7.7,9.1c0.3,0.3,0.7,0.4,1.1,0.3c6.7-2.5-2.2-11.2-4.5-13.6
		c-0.4-0.4-0.4-1,0-1.4C27.1,15,35,7.6,28.1,5.1c-0.4-0.2-0.9,0-1.2,0.4c-2.2,3.3-4.8,6.3-7.7,9c-0.4,0.4-1.1,0.3-1.4-0.1l0,0
		l-7.7-8.9C9.8,5.1,9.3,5,8.9,5.2C7.4,5.8,6.5,7,6.2,8.5C6.1,8.8,6.2,9,6.3,9.2c2,3.5,4.5,6.7,7.4,9.5c0.4,0.4,0.4,1,0,1.4l0,0
		c-3,2.8-5.5,6-7.5,9.6C6,30.1,6,30.4,6.1,30.6c0.5,1.5,1.4,2.5,2.7,3.2c0.4,0.2,0.9,0.1,1.2-0.2l8-9.2c0.4-0.4,1-0.5,1.4-0.1
		C19.4,24.3,19.5,24.4,19.5,24.4"/>
</g>
<path class="st2" d="M18.1,8.1c0.4,0.4,1,0.5,1.4,0.1l0.1-0.1l5-5.9c0.3-0.3,0.7-0.4,1.1-0.3c4.5,1.6,7.4,4.6,8.6,9
	c0.1,0.2,0,0.4,0,0.6c-1,2.6-2.5,5-4.3,7.1c-0.3,0.3-0.3,0.8-0.1,1.2l4.6,6.9c0.2,0.2,0.2,0.5,0.1,0.8c-1,4.2-3.3,7.1-6.8,8.9
	c-1.9,0.9-3.4,0.6-4.7-0.9l-3.9-4.8c-0.3-0.4-1-0.5-1.4-0.1c-0.1,0-0.1,0.1-0.1,0.1l-5,6.3c-0.3,0.3-0.7,0.4-1.1,0.3
	c-4.5-1.6-7.5-4.6-9.1-9.2c-0.1-0.3-0.1-0.6,0.1-0.9l5-7.4c0.3-0.4,0.2-0.9-0.1-1.2c-2.1-2.3-3.7-4.9-4.6-8c-0.1-0.2-0.1-0.4,0-0.6
	c1.5-4.2,4.5-6.9,9-8.1c0.4-0.1,0.8,0,1,0.3L18.1,8.1z M19.5,24.4l7.7,9.1c0.3,0.3,0.7,0.4,1.1,0.3c6.7-2.5-2.2-11.2-4.5-13.6
	c-0.4-0.4-0.4-1,0-1.4C27.1,15,35,7.6,28.1,5.1c-0.4-0.2-0.9,0-1.2,0.4c-2.2,3.3-4.8,6.3-7.7,9c-0.4,0.4-1.1,0.3-1.4-0.1l0,0
	l-7.7-8.9C9.8,5.1,9.3,5,8.9,5.2C7.4,5.8,6.5,7,6.2,8.5C6.1,8.8,6.2,9,6.3,9.2c2,3.5,4.5,6.7,7.4,9.5c0.4,0.4,0.4,1,0,1.4l0,0
	c-3,2.8-5.5,6-7.5,9.6C6,30.1,6,30.4,6.1,30.6c0.5,1.5,1.4,2.5,2.7,3.2c0.4,0.2,0.9,0.1,1.2-0.2l8-9.2c0.4-0.4,1-0.5,1.4-0.1
	C19.4,24.3,19.5,24.4,19.5,24.4z"/>
<path class="st3" d="M18,24.4l-8,9.2c-0.3,0.3-0.8,0.4-1.2,0.2c-1.3-0.6-2.2-1.7-2.7-3.2C6,30.4,6,30.1,6.2,29.8
	c2-3.6,4.5-6.8,7.5-9.6c0.4-0.4,0.4-1,0.1-1.4l0,0c-2.9-2.9-5.3-6-7.4-9.5C6.2,9,6.1,8.8,6.2,8.5C6.5,7,7.4,5.8,8.9,5.2
	C9.3,5,9.8,5.1,10.1,5.4l7.7,8.9c0.4,0.4,1,0.5,1.4,0.1l0,0c2.9-2.7,5.5-5.7,7.7-9C27.2,5,27.6,4.9,28.1,5c6.9,2.5-0.9,9.9-4.3,13.7
	c-0.3,0.4-0.3,1,0,1.4c2.4,2.4,11.3,11.2,4.5,13.6c-0.4,0.1-0.8,0-1.1-0.3l-7.7-9.1c-0.4-0.4-1-0.5-1.4-0.1C18,24.3,18,24.4,18,24.4
	z"/>
</svg>
