<?xml version="1.0" encoding="utf-8"?>
<!-- Generator: Adobe Illustrator 25.0.1, SVG Export Plug-In . SVG Version: 6.00 Build 0)  -->
<svg version="1.1" id="Layer_1" xmlns="http://www.w3.org/2000/svg" xmlns:xlink="http://www.w3.org/1999/xlink" x="0px" y="0px"
	 viewBox="0 0 31 32" style="enable-background:new 0 0 31 32;" xml:space="preserve">
<style type="text/css">
	.st0{clip-path:url(#SVGID_2_);}
	.st1{fill:#FFFFFF;filter:url(#Adobe_OpacityMaskFilter);}
	.st2{mask:url(#mask0_109_234_1_);}
	.st3{fill:#EAEAEA;}
</style>
<g>
	<defs>
		<rect id="SVGID_1_" y="0.5" width="31" height="31"/>
	</defs>
	<clipPath id="SVGID_2_">
		<use xlink:href="#SVGID_1_"  style="overflow:visible;"/>
	</clipPath>
	<g class="st0">
		<defs>
			<filter id="Adobe_OpacityMaskFilter" filterUnits="userSpaceOnUse" x="0" y="0.5" width="31" height="31">
				<feColorMatrix  type="matrix" values="1 0 0 0 0  0 1 0 0 0  0 0 1 0 0  0 0 0 1 0"/>
			</filter>
		</defs>
		<mask maskUnits="userSpaceOnUse" x="0" y="0.5" width="31" height="31" id="mask0_109_234_1_">
			<path class="st1" d="M-152.8-15H47.4V47h-200.1V-15z"/>
		</mask>
		<g class="st2">
			<path class="st3" d="M23.1,31.5c0.6-1.2,1.3-2.6,1.8-3.8c0,0,0,0,0,0c0,0,0.2,0.6,0.4,1.3c0.4-1.2,0.6-2.5,0.7-3.9
				c0-0.2-0.1-0.5-0.2-0.6c0,0,0.2-1.1,0.3-2.4c0.1,0.9,0.2,1.8,0.2,2.7c0,1.6-0.2,3.1-0.5,4.6c-0.2,0.7-0.4,1.5-0.7,2.1H23.1z
				 M22,29.8c-0.3-0.4-1.5-1.9-1.5-1.9c0.7-1.1,1.3-2.4,1.8-3.6c0,0,0.8,0.9,1.5,1.9c0.6-1.6,1-3.2,1-3.2c-0.4-0.7-1.4-1.9-1.4-1.9
				c0.2-1,0.3-2,0.4-3c0.5,0.6,1.2,1.5,1.2,1.5s0,0,0,0c-0.1-1.8-1.1-3.5-1.3-3.9c0,0,0-0.1,0-0.1c-0.1-0.6-0.3-1.4-0.5-1.7
				c1.1,1.6,1.8,3.4,1.8,3.4c0.4,1.1,0.7,2.6,0.7,4.2c0,0.8-0.2,5.2-3.5,10.1h-1.2C21.3,30.9,21.7,30.4,22,29.8z M12,31.5
				c-0.2-0.2-0.7-0.7-0.7-0.8c1.1-1,2.1-2.1,3.1-3.3l2.3,2.3v0c0.9-1,1.8-2.2,2.5-3.3c0,0-1.2-1.2-2.5-2.3c1-1.7,1.7-3.4,1.7-3.4
				c0.1,0.1,1.4,1,2.7,2.2c0.6-1.4,1-3.1,1-3.1c-1.4-1.2-2.7-2.1-2.7-2.1c0.2-0.9,0.3-1.9,0.4-2.8c0,0,1.5,0.9,2.7,2
				c0-0.8-0.1-1.7-0.2-2.5c-1.3-1.1-2.7-1.8-2.7-1.8c0,0-0.1-0.9-0.6-2c0,0,0,0,0,0c0.1,0,0.8,0.4,1.9,1.2c-0.9-1.2-2.5-2.4-2.5-2.4
				c-0.2-0.3-0.3-0.5-0.5-0.8c1.3,0.9,2.5,1.9,3.6,3.1c0.4,0.5,0.7,1.1,1,1.8c0.1,0.2,0.1,0.4,0.2,0.6c0.9,2.9,0.3,6.2-0.6,8.9
				c-1.1,3.1-3,6-5.2,8.5H12z M8.4,31.5H0v-0.9c2.6-1.2,4.1-2.4,4.1-2.4l2.2,3.1c0,0,1.7-1,3.4-2.4v0L7,25.9c0,0,0,0,0,0
				c1-0.9,1.9-1.8,2.7-2.7c0,0,2.7,2.4,3,2.7c0.9-1,1.6-2,2.3-3c-1.4-1.1-3.2-2.4-3.3-2.4l0,0c0,0,1.1-1.8,1.5-2.8
				c0,0,1.8,1,3.5,2.1c0.4-0.9,0.8-1.9,1-2.8c-1.1-0.7-3.6-1.8-3.6-1.8c0.2-0.8,0.3-1.6,0.4-2.4c0,0,1.8,0.6,3.6,1.5
				c0-0.8,0-1.5-0.2-2.2c-1.5-0.7-3.5-1.2-3.5-1.2c-0.1-0.6-0.3-1.2-0.5-1.7c0,0,1.8,0.3,3.5,1C17,9,16.5,8.5,16.5,8.5
				c-1-0.6-3.4-1-3.4-1c-0.3-0.3-0.5-0.6-0.9-0.9C13,6.7,14.2,7,14.2,7c-1.3-0.6-2.7-1-2.7-1c0,0-0.3-0.2-0.6-0.4
				c0,0,3.6,0.7,5.5,2.2c0.2,0.1,0.3,0.3,0.5,0.4c0.2,0.2,0.4,0.4,0.5,0.6C21.2,14.2,17.9,24.4,8.4,31.5z M11,19.9
				c-0.8,1.2-1.7,2.4-2.8,3.5c-0.9,1-1.9,1.8-2.7,2.5C4,27,2.5,27.9,1,28.7c-0.3,0.2-0.6,0.3-1,0.5v-5.9c0.2-0.1,0.4-0.3,0.6-0.4
				c0.3,0.5,2.1,3.3,2.1,3.4c0.1-0.1,0.5-0.3,1-0.6c0.5-0.4,1.2-0.8,1.8-1.3c0,0,0.1,0,0.1-0.1l-2.7-3.1C3.1,20.8,4,19.9,4.7,19
				c0.2,0.1,2.4,1.9,3.4,2.7c0.7-0.8,1.4-1.6,2-2.4C8.8,18.5,6.2,17,6.2,17c0.4-0.7,0.8-1.4,1.1-2.1c0,0,3,1.2,4.3,1.8
				c0.3-0.7,0.6-1.3,0.8-2c0-0.1,0.1-0.2,0.1-0.3c-1.5-0.6-4.3-1.3-4.5-1.3c0.2-0.6,0.3-1.2,0.3-1.7c2.2,0.2,4.3,0.7,4.7,0.8
				c0.1-0.6,0.1-1.3,0-1.8C10.4,10,8.5,10,8.2,10C8.2,9.5,8.1,9.1,7.9,8.7c0,0,2.2-0.2,4.5,0.1c-0.1-0.2-0.3-0.5-0.4-0.7
				c-0.1-0.2-0.4-0.5-0.4-0.5S9.7,7.4,7.4,7.8C7.2,7.5,6.9,7.2,6.7,7c0,0,1.7-0.4,3.8-0.4C9.9,6.2,9.4,5.9,9.4,5.9
				C7.8,6,6.1,6.4,6,6.4C5.5,6.2,5.2,6.1,5.1,6.1c0,0,0,0,0,0c0,0,0,0,0,0c0.1,0,1.4-0.4,2.3-0.5c0,0,0,0,0,0
				C6.1,5.4,4.5,5.8,4.3,5.8C4,5.8,3.6,5.7,3.4,5.7c0,0,0.9-0.3,2.1-0.4c1.1-0.2,4.8-0.6,7.1,2.5C14.8,10.8,14,15.4,11,19.9z
				 M2,20.4c-0.6,0.5-1.3,1-1.9,1.5c0,0,0,0-0.1,0v-1.4c0.5-0.3,1-0.7,1.4-1L0,17.9v-2.3c0,0,0,0,0,0c0.7,0.5,1.7,1.2,2.5,1.7
				c0.2,0.2,0.5,0.4,0.7,0.6c0,0,0.9-1,1.4-1.6v0h0c-1.1-0.6-3.8-1.8-3.8-1.8c0.2-0.4,0.4-0.8,0.6-1.1C2,13.4,4.2,14,5.7,14.4
				c0.3-0.5,0.5-1,0.7-1.6c-2.2-0.4-4.7-0.5-4.7-0.5c0.1-0.5,0.1-0.9,0.1-0.9c0.1,0,3.5-0.2,4.9-0.1c0.1-0.4,0.1-0.9,0-1.3
				c-2.4,0.1-5,0.6-5,0.6c0,0,0-0.3-0.2-0.7c2.7-0.9,4.9-1.1,4.9-1.1C6.4,8.6,6.2,8.3,6,8.1c0,0-2.4,0.5-4.6,1.4c0,0,0,0,0,0
				C1.3,9.3,1.2,9.2,1.1,9.1c0,0,2.1-1.1,4.3-1.7C5.1,7.2,4.9,7,4.6,6.9c-2,0.7-3.8,1.8-3.8,1.8c0,0-0.2-0.2-0.4-0.3
				c0.1-0.1,1.5-1.1,3.4-1.9C3.5,6.5,3.2,6.5,2.9,6.5C1.6,7,0,8.3,0,8.3l0,0V7.8c0.6-0.4,1.3-0.9,1.9-1.3c-0.4,0-0.8,0.1-1.2,0.2
				C0.4,6.8,0.2,7,0,7.1V6.5c0.1-0.1,0.4-0.1,0.7-0.2c0.2,0,0.3-0.1,0.5-0.1c0.1,0,0.1,0,0.2,0c2.2-0.3,4,0.1,5.1,1.4
				C8.9,10.4,6.9,16.1,2,20.4z M0,9c0.1,0.1,0.2,0.2,0.3,0.2c1.1,1,0.9,3.1-0.3,4.9V9z M0,5.7L0,5.7l0-5.2h31v31h-5
				c0.7-2.1,1.1-4.4,1.1-6.7c0-11.2-9.1-20.3-20.3-20.3C4.5,4.5,2.2,4.9,0,5.7z"/>
		</g>
	</g>
</g>
</svg>
