<svg width="81" height="81" viewBox="0 0 81 81" fill="none" xmlns="http://www.w3.org/2000/svg">
<path d="M81 40.5C81 51.2413 76.7331 61.5426 69.1378 69.1378C61.5426 76.7331 51.2413 81 40.5 81C29.7587 81 19.4574 76.7331 11.8622 69.1378C4.26695 61.5426 0 51.2413 0 40.5C0 29.7587 4.26695 19.4574 11.8622 11.8622C19.4574 4.26695 29.7587 0 40.5 0C51.2413 0 61.5426 4.26695 69.1378 11.8622C76.7331 19.4574 81 29.7587 81 40.5ZM79.0891 40.5076C79.0891 35.4439 78.0917 30.4299 76.1539 25.7517C74.2162 21.0736 71.376 16.8229 67.7954 13.2423C64.2149 9.66182 59.9642 6.82159 55.286 4.88383C50.6079 2.94607 45.5938 1.94871 40.5302 1.94871C30.3038 1.94871 20.4962 6.01115 13.265 13.2423C6.03381 20.4735 1.97137 30.2811 1.97137 40.5076C1.97137 50.734 6.03381 60.5416 13.265 67.7728C20.4962 75.004 30.3038 79.0664 40.5302 79.0664C50.7567 79.0664 60.5642 75.004 67.7954 67.7728C75.0266 60.5416 79.0891 50.734 79.0891 40.5076Z" fill="#B6B9D9"/>
<path d="M79.0903 40.5081C79.0903 50.7345 75.0279 60.5421 67.7967 67.7733C60.5655 75.0045 50.7579 79.0669 40.5315 79.0669C30.3051 79.0669 20.4975 75.0045 13.2663 67.7733C6.03509 60.5421 1.97266 50.7345 1.97266 40.5081C1.97266 30.2816 6.03509 20.474 13.2663 13.2428C20.4975 6.01166 30.3051 1.94922 40.5315 1.94922C45.5951 1.94922 50.6092 2.94657 55.2873 4.88433C59.9655 6.8221 64.2162 9.66232 67.7967 13.2428C71.3772 16.8234 74.2175 21.0741 76.1552 25.7522C78.093 30.4304 79.0903 35.4444 79.0903 40.5081ZM42.6993 38.1288C42.6539 38.0331 42.591 37.9501 42.5104 37.8796C42.2838 37.6731 42.1177 37.7134 42.0119 38.0004C41.8609 38.3932 41.9867 38.7054 42.3896 38.937C46.0075 41.0066 51.5893 43.0837 55.0184 46.1352C57.9415 48.7334 59.7618 51.7849 62.1335 54.8515C62.6874 55.5716 62.8259 56.3193 62.5489 57.0948C62.3173 57.7444 61.9648 57.8174 61.4915 57.3138C57.4581 53.0463 53.1226 48.5975 47.6843 46.7847C45.504 46.0647 42.8478 45.1457 39.7158 44.0278C39.4237 43.9271 39.1845 43.9649 38.9982 44.1411C38.7968 44.3325 38.827 44.476 39.0889 44.5717C42.231 45.6996 45.3907 46.7923 48.5681 47.8497C53.8024 49.5945 59.3691 55.841 62.8133 60.0405C62.8808 60.1228 62.9276 60.2199 62.9497 60.3241C62.9719 60.4282 62.9688 60.5363 62.9408 60.6396C62.9128 60.7428 62.8606 60.8382 62.7886 60.9178C62.7165 60.9975 62.6266 61.0593 62.5263 61.098C61.0559 61.6569 59.6636 61.4026 58.3494 60.3351C55.5019 58.0238 49.2781 52.6158 45.6601 52.5402C45.3983 52.5352 45.2296 52.4068 45.154 52.155C44.4894 49.942 41.9742 47.0566 39.5043 49.1715C39.4568 49.2122 39.4004 49.2411 39.3397 49.2561C39.279 49.271 39.2156 49.2715 39.1547 49.2576C39.0938 49.2436 39.0369 49.2156 38.9888 49.1757C38.9406 49.1359 38.9025 49.0853 38.8774 49.028C37.4876 45.8784 33.5373 46.3089 32.7442 49.6096C32.6636 49.9419 32.4698 50.0326 32.1626 49.8815C30.3599 48.9701 28.7108 49.1766 27.2153 50.5009C27.1062 50.597 26.965 50.6488 26.8196 50.646C26.6742 50.6432 26.5351 50.5861 26.4298 50.4858L25.5234 49.6323C25.4467 49.5595 25.3449 49.5194 25.2402 49.5209C25.1355 49.5223 25.0363 49.565 24.9645 49.6398L24.7756 49.8211C24.7446 49.8537 24.721 49.8927 24.7066 49.9352C24.6922 49.9777 24.6874 50.0227 24.6924 50.0669C24.6975 50.111 24.7123 50.1533 24.7359 50.1905C24.7594 50.2276 24.7911 50.2589 24.8285 50.2818L25.8406 50.9163C26.0874 51.0724 26.251 51.2889 26.3316 51.5659C27.3185 54.8137 29.5417 56.3294 33.001 56.1129C33.2477 56.0978 33.4668 56.1657 33.6581 56.3168C36.4981 58.5148 40.3804 57.2534 41.03 61.9061C41.0444 61.9998 41.0378 62.0955 41.0108 62.1865C40.9838 62.2775 40.937 62.3616 40.8737 62.4329C40.8103 62.5041 40.732 62.5608 40.6442 62.599C40.5564 62.6372 40.4612 62.6559 40.3653 62.6539L29.1262 62.4651C28.7486 62.46 28.459 62.3719 28.2576 62.2007C25.1608 59.6075 22.0489 57.0293 18.9219 54.4663C15.0925 51.3242 15.4475 48.167 13.7178 43.9447C12.0939 39.9642 8.46837 36.1877 5.77944 32.7057C5.72387 32.6332 5.64893 32.578 5.56329 32.5464C5.47765 32.5148 5.38481 32.5081 5.29552 32.5271C5.20622 32.5461 5.12412 32.5899 5.05872 32.6536C4.99332 32.7173 4.94728 32.7982 4.92594 32.8869C-0.761585 57.2534 19.9794 79.1878 44.0966 76.801C67.5491 74.4746 80.9333 52.6158 75.412 30.0318C75.3977 29.9715 75.3702 29.9152 75.3313 29.8667C75.2925 29.8183 75.2432 29.779 75.187 29.7517C75.1308 29.7243 75.069 29.7095 75.0061 29.7083C74.9432 29.7071 74.8806 29.7196 74.8228 29.7448C67.7002 32.819 64.4448 37.1696 61.5595 44.194C61.2624 44.9191 60.8973 44.9544 60.4643 44.2997C57.0956 39.224 47.9336 28.1209 40.2445 29.7901C38.1296 30.2484 36.2766 31.1925 34.6854 32.6226C31.5584 35.4323 29.1942 36.5729 25.1231 34.7677C24.987 34.7067 24.8693 34.6113 24.7816 34.4907C24.6939 34.3702 24.6393 34.2287 24.6233 34.0805C24.6072 33.9323 24.6303 33.7825 24.6902 33.646C24.75 33.5094 24.8446 33.391 24.9645 33.3024C28.7184 30.5757 31.3242 26.5272 35.554 24.8051C40.9973 22.5844 46.5161 21.454 52.1105 21.4137C57.4128 21.3684 62.0353 18.5662 65.7288 14.9029C65.9051 14.7317 65.9025 14.5605 65.7213 14.3893C51.5893 1.02773 29.8136 0.536779 15.5683 14.0871C15.3921 14.2583 15.382 14.4396 15.5381 14.631C19.0503 18.9967 24.2016 26.1269 29.9269 27.3052C29.9913 27.3183 30.0507 27.3491 30.0987 27.3941C30.1466 27.4391 30.1811 27.4965 30.1983 27.5599C30.2155 27.6233 30.2148 27.6903 30.1962 27.7533C30.1776 27.8164 30.1419 27.873 30.093 27.917L24.2545 33.2268C24.1783 33.2957 24.121 33.3832 24.088 33.481C24.055 33.5787 24.0473 33.6836 24.0656 33.7858C24.8361 38.3856 32.8348 35.6589 34.7911 33.6422C37.48 30.8778 40.7808 29.3898 44.6631 30.8627C51.3854 33.4081 56.5517 39.292 60.502 45.4252C60.6632 45.6769 60.7236 45.9035 60.6833 46.1049C60.633 46.3618 60.5071 46.5758 60.3057 46.747C60.064 46.9484 59.8424 46.9308 59.641 46.6941C54.8976 41.0897 50.0107 38.9446 44.5573 35.2662C44.361 35.1353 44.1948 35.1327 44.0588 35.2586C43.8473 35.46 43.865 35.6363 44.1117 35.7873C48.4397 38.4763 53.4927 41.0821 56.8916 44.6245C58.8781 46.6941 62.1184 50.1685 62.5112 53.0916C62.5196 53.1679 62.5025 53.2448 62.4627 53.3103C62.4228 53.3758 62.3624 53.4263 62.2908 53.4539C62.2192 53.4815 62.1405 53.4847 62.067 53.4628C61.9935 53.441 61.9292 53.3955 61.8843 53.3333C59.3086 49.67 56.5517 45.8708 52.5486 43.62C49.4115 41.8525 46.2442 40.143 43.0467 38.4914C42.8906 38.4108 42.7748 38.29 42.6993 38.1288Z" fill="white"/>
<path d="M43.0463 38.4909C46.2438 40.1425 49.411 41.852 52.5481 43.6195C56.5513 45.8703 59.3082 49.6695 61.8838 53.3328C61.9288 53.395 61.993 53.4405 62.0666 53.4624C62.1401 53.4842 62.2188 53.481 62.2904 53.4534C62.3619 53.4258 62.4224 53.3753 62.4622 53.3098C62.5021 53.2443 62.5192 53.1674 62.5107 53.0911C62.118 50.168 58.8777 46.6936 56.8912 44.624C53.4923 41.0816 48.4392 38.4758 44.1113 35.7869C43.8645 35.6358 43.8469 35.4595 44.0584 35.2581C44.1943 35.1322 44.3605 35.1348 44.5569 35.2657C50.0103 38.9441 54.8972 41.0892 59.6405 46.6936C59.842 46.9303 60.0635 46.9479 60.3052 46.7465C60.5066 46.5753 60.6325 46.3613 60.6829 46.1045C60.7232 45.903 60.6627 45.6764 60.5016 45.4247C56.5513 39.2915 51.3849 33.4076 44.6626 30.8622C40.7803 29.3893 37.4796 30.8773 34.7907 33.6418C32.8344 35.6584 24.8356 38.3851 24.0652 33.7853C24.0468 33.6831 24.0545 33.5782 24.0876 33.4805C24.1206 33.3827 24.1779 33.2952 24.254 33.2263L30.0926 27.9165C30.1415 27.8725 30.1772 27.8159 30.1958 27.7528C30.2144 27.6898 30.2151 27.6228 30.1979 27.5594C30.1806 27.496 30.1461 27.4386 30.0982 27.3936C30.0503 27.3486 29.9908 27.3178 29.9264 27.3047C24.2011 26.1264 19.0499 18.9962 15.5377 14.6305C15.3816 14.4391 15.3917 14.2578 15.5679 14.0866C29.8131 0.536282 51.5889 1.02724 65.7208 14.3888C65.9021 14.56 65.9046 14.7312 65.7284 14.9024C62.0349 18.5657 57.4124 21.3679 52.11 21.4132C46.5157 21.4535 40.9968 22.5839 35.5535 24.8046C31.3238 26.5267 28.7179 30.5752 24.964 33.3019C24.8441 33.3905 24.7496 33.5089 24.6897 33.6455C24.6299 33.782 24.6068 33.9318 24.6229 34.08C24.6389 34.2282 24.6935 34.3697 24.7812 34.4902C24.8688 34.6108 24.9866 34.7063 25.1226 34.7672C29.1938 36.5724 31.5579 35.4319 34.6849 32.6221C36.2761 31.192 38.1292 30.2479 40.244 29.7896C47.9332 28.1204 57.0951 39.2235 60.4638 44.2993C60.8969 44.9539 61.2619 44.9186 61.559 44.1935C64.4443 37.1691 67.6998 32.8185 74.8224 29.7443C74.8802 29.7191 74.9427 29.7066 75.0057 29.7078C75.0686 29.709 75.1303 29.7238 75.1865 29.7512C75.2427 29.7785 75.292 29.8178 75.3309 29.8662C75.3698 29.9147 75.3973 29.971 75.4115 30.0313C80.9329 52.6153 67.5487 74.4741 44.0962 76.8005C19.9789 79.1873 -0.762022 57.2529 4.9255 32.8864C4.94684 32.7977 4.99288 32.7168 5.05828 32.6531C5.12369 32.5894 5.20579 32.5456 5.29508 32.5266C5.38437 32.5076 5.47721 32.5143 5.56285 32.5459C5.64849 32.5775 5.72343 32.6327 5.77901 32.7052C8.46793 36.1872 12.0934 39.9637 13.7174 43.9443C15.447 48.1665 15.092 51.3237 18.9215 54.4658C22.0485 57.0288 25.1604 59.607 28.2572 62.2002C28.4586 62.3714 28.7481 62.4595 29.1258 62.4646L40.3649 62.6534C40.4607 62.6554 40.5559 62.6367 40.6437 62.5985C40.7316 62.5603 40.8099 62.5036 40.8732 62.4324C40.9366 62.3611 40.9834 62.277 41.0104 62.186C41.0374 62.0951 41.0439 61.9993 41.0296 61.9056C40.38 57.2529 36.4977 58.5143 33.6577 56.3163C33.4663 56.1653 33.2473 56.0973 33.0006 56.1124C29.5412 56.3289 27.3181 54.8132 26.3311 51.5654C26.2506 51.2884 26.0869 51.0719 25.8402 50.9158L24.8281 50.2813C24.7906 50.2584 24.759 50.2272 24.7355 50.19C24.7119 50.1528 24.6971 50.1105 24.692 50.0664C24.6869 50.0222 24.6918 49.9772 24.7062 49.9347C24.7206 49.8922 24.7441 49.8532 24.7752 49.8206L24.964 49.6393C25.0359 49.5645 25.135 49.5218 25.2397 49.5204C25.3444 49.519 25.4463 49.559 25.523 49.6318L26.4293 50.4853C26.5347 50.5856 26.6737 50.6427 26.8192 50.6455C26.9646 50.6483 27.1057 50.5965 27.2149 50.5004C28.7104 49.1761 30.3595 48.9696 32.1622 49.881C32.4693 50.0321 32.6632 49.9415 32.7438 49.6091C33.5368 46.3084 37.4871 45.8779 38.8769 49.0275C38.902 49.0848 38.9402 49.1354 38.9883 49.1752C39.0365 49.2151 39.0933 49.2431 39.1543 49.2571C39.2152 49.271 39.2786 49.2705 39.3393 49.2556C39.4 49.2406 39.4563 49.2117 39.5038 49.171C41.9737 47.0561 44.4889 49.9415 45.1536 52.1545C45.2291 52.4063 45.3978 52.5347 45.6597 52.5397C49.2776 52.6153 55.5014 58.0233 58.349 60.3346C59.6632 61.4021 61.0555 61.6564 62.5258 61.0975C62.6262 61.0588 62.7161 60.997 62.7881 60.9173C62.8602 60.8377 62.9124 60.7423 62.9404 60.6391C62.9684 60.5358 62.9715 60.4277 62.9493 60.3236C62.9271 60.2194 62.8804 60.1223 62.8129 60.04C59.3686 55.8405 53.8019 49.594 48.5676 47.8492C45.3903 46.7918 42.2305 45.6991 39.0884 44.5712C38.8266 44.4755 38.7964 44.332 38.9978 44.1406C39.1841 43.9644 39.4233 43.9266 39.7153 44.0273C42.8474 45.1452 45.5036 46.0642 47.6839 46.7842C53.1222 48.597 57.4577 53.0458 61.4911 57.3133C61.9644 57.8169 62.3169 57.7439 62.5485 57.0943C62.8255 56.3188 62.687 55.5711 62.1331 54.851C59.7614 51.7844 57.9411 48.733 55.018 46.1347C51.5889 43.0832 46.0071 41.0061 42.3891 38.9365C41.9863 38.7049 41.8604 38.3927 42.0115 37.9999C42.1172 37.7129 42.2834 37.6726 42.51 37.8791C42.5906 37.9496 42.6535 38.0327 42.6988 38.1283C42.7743 38.2895 42.8902 38.4103 43.0463 38.4909ZM39.1866 55.6592L37.9932 48.3855C37.9703 48.243 37.9194 48.1064 37.8435 47.9836C37.7676 47.8608 37.6682 47.7543 37.551 47.67C37.4338 47.5858 37.301 47.5256 37.1605 47.4928C37.0199 47.46 36.8742 47.4554 36.7318 47.4791L36.324 47.5471C35.8716 47.6214 35.4382 47.7828 35.0484 48.0223C34.6585 48.2618 34.32 48.5746 34.052 48.9428C33.7841 49.3111 33.592 49.7276 33.4868 50.1685C33.3815 50.6094 33.3652 51.0661 33.4387 51.5125L33.8692 54.1486C33.9417 54.5956 34.1028 55.0239 34.3433 55.4087C34.5838 55.7935 34.899 56.1273 35.2709 56.3911C35.6427 56.6549 36.0639 56.8435 36.5103 56.946C36.9567 57.0485 37.4195 57.063 37.8724 56.9885L38.2802 56.9206C38.4227 56.8976 38.5593 56.8468 38.6821 56.7709C38.8049 56.695 38.9115 56.5956 38.9957 56.4784C39.0799 56.3611 39.1402 56.2284 39.1729 56.0878C39.2057 55.9472 39.2103 55.8016 39.1866 55.6592ZM44.0886 54.8057C44.7986 52.8419 43.5448 48.7783 41.0824 49.1257C40.7388 49.1758 40.4217 49.3388 40.181 49.5891C39.9403 49.8394 39.7897 50.1626 39.7531 50.5079C39.3754 53.9673 39.7757 58.1064 44.4285 57.8194C44.4921 57.8153 44.5539 57.7963 44.6089 57.7639C44.6638 57.7316 44.7104 57.6868 44.745 57.6332C44.7795 57.5796 44.8009 57.5186 44.8076 57.4552C44.8143 57.3918 44.8061 57.3277 44.7835 57.268L44.0886 55.3722C44.0203 55.1921 44.0203 54.9909 44.0886 54.8057ZM32.419 50.7723C30.8681 49.7501 29.3272 49.7979 27.7964 50.9158C27.4853 51.1452 27.2773 51.4882 27.2179 51.8702C27.1585 52.2521 27.2524 52.6421 27.4792 52.9552C28.7481 54.7176 30.508 55.5257 32.7589 55.3797C32.8025 55.3768 32.8452 55.3654 32.8845 55.346C32.9237 55.3265 32.9587 55.2996 32.9875 55.2666C33.0162 55.2336 33.0382 55.1952 33.0521 55.1537C33.0661 55.1122 33.0716 55.0684 33.0685 55.0247L32.842 51.4899C32.8218 51.1777 32.6808 50.9385 32.419 50.7723ZM45.5917 53.6652L44.9648 55.4099C44.9348 55.4932 44.9216 55.5816 44.9259 55.6701C44.9302 55.7585 44.9519 55.8452 44.9898 55.9252C45.0277 56.0052 45.081 56.0769 45.1467 56.1363C45.2124 56.1956 45.2892 56.2414 45.3726 56.271L45.8938 56.4598C47.0467 56.8722 48.2056 57.1182 49.1162 57.1437C50.0267 57.1691 50.6145 56.9721 50.7505 56.5958L50.8109 56.4221C50.9439 56.045 50.6148 55.52 49.8955 54.9621C49.1763 54.4043 48.1256 53.8591 46.9739 53.4461L46.4527 53.2573C46.3694 53.2273 46.281 53.2141 46.1926 53.2184C46.1042 53.2227 46.0175 53.2444 45.9375 53.2823C45.8575 53.3202 45.7857 53.3736 45.7264 53.4393C45.667 53.5049 45.6213 53.5817 45.5917 53.6652Z" fill="#B6B9D9"/>
<path d="M39.1857 55.6598C39.2094 55.8022 39.2048 55.9479 39.172 56.0884C39.1392 56.229 39.079 56.3617 38.9948 56.479C38.9105 56.5962 38.804 56.6956 38.6812 56.7715C38.5584 56.8474 38.4218 56.8983 38.2793 56.9212L37.8714 56.9892C37.4186 57.0636 36.9558 57.0491 36.5094 56.9466C36.063 56.8441 35.6418 56.6556 35.27 56.3918C34.8981 56.128 34.5829 55.7941 34.3424 55.4093C34.1019 55.0245 33.9407 54.5963 33.8682 54.1492L33.4377 51.5131C33.3642 51.0667 33.3806 50.61 33.4858 50.1691C33.5911 49.7282 33.7832 49.3117 34.0511 48.9435C34.3191 48.5752 34.6576 48.2624 35.0474 48.0229C35.4372 47.7835 35.8707 47.622 36.323 47.5477L36.7309 47.4797C36.8733 47.456 37.019 47.4607 37.1595 47.4934C37.3001 47.5262 37.4328 47.5864 37.5501 47.6706C37.6673 47.7549 37.7667 47.8615 37.8426 47.9842C37.9185 48.107 37.9693 48.2436 37.9923 48.3861L39.1857 55.6598Z" fill="white"/>
<path d="M41.0821 49.1264C43.5444 48.779 44.7982 52.8426 44.0882 54.8064C44.0199 54.9916 44.0199 55.1928 44.0882 55.3729L44.7831 57.2687C44.8057 57.3283 44.8139 57.3925 44.8073 57.4559C44.8006 57.5193 44.7791 57.5803 44.7446 57.6339C44.7101 57.6875 44.6634 57.7323 44.6085 57.7646C44.5535 57.7969 44.4917 57.816 44.4281 57.8201C39.7754 58.1071 39.375 53.968 39.7527 50.5086C39.7893 50.1633 39.9399 49.8401 40.1806 49.5898C40.4213 49.3395 40.7384 49.1765 41.0821 49.1264Z" fill="white"/>
<path d="M32.4197 50.7724C32.6815 50.9386 32.8225 51.1778 32.8427 51.49L33.0693 55.0248C33.0723 55.0685 33.0668 55.1123 33.0528 55.1538C33.0389 55.1953 33.017 55.2337 32.9882 55.2667C32.9594 55.2997 32.9244 55.3266 32.8852 55.3461C32.8459 55.3655 32.8033 55.377 32.7596 55.3798C30.5087 55.5259 28.7489 54.7177 27.4799 52.9553C27.2531 52.6422 27.1592 52.2523 27.2186 51.8703C27.278 51.4883 27.486 51.1453 27.7972 50.9159C29.3279 49.7981 30.8688 49.7502 32.4197 50.7724Z" fill="white"/>
<path d="M45.5924 53.6653C45.622 53.5819 45.6677 53.5051 45.7271 53.4394C45.7864 53.3737 45.8581 53.3204 45.9382 53.2825C46.0182 53.2446 46.1049 53.2229 46.1933 53.2186C46.2817 53.2143 46.3701 53.2275 46.4534 53.2574L46.9746 53.4463C48.1263 53.8593 49.1769 54.4045 49.8962 54.9623C50.6154 55.5201 50.9446 56.0451 50.8116 56.4222L50.7512 56.5959C50.6152 56.9723 50.0274 57.1693 49.1168 57.1438C48.2063 57.1183 47.0474 56.8724 45.8945 56.46L45.3733 56.2711C45.2899 56.2416 45.2131 56.1958 45.1474 56.1364C45.0817 56.0771 45.0284 56.0054 44.9905 55.9254C44.9526 55.8453 44.9309 55.7586 44.9266 55.6702C44.9223 55.5818 44.9355 55.4934 44.9654 55.4101L45.5924 53.6653Z" fill="white"/>
</svg>
