<svg width="76" height="77" viewBox="0 0 76 77" fill="none" xmlns="http://www.w3.org/2000/svg">
<path d="M75.9999 38.5667C75.9824 48.606 71.9668 58.227 64.8365 65.3134C57.7061 72.3998 48.0452 76.371 37.9789 76.3534C32.9945 76.3447 28.0607 75.357 23.4591 73.4467C18.8575 71.5364 14.6783 68.7408 11.1599 65.2197C7.64163 61.6986 4.85317 57.5208 2.95377 52.925C1.05436 48.3291 0.0812208 43.4051 0.0899013 38.4342C0.107424 28.395 4.12305 18.7739 11.2534 11.6875C18.3837 4.60117 28.0447 0.62995 38.111 0.647519C43.0953 0.656214 48.0291 1.64392 52.6307 3.55425C57.2323 5.46457 61.4116 8.2601 64.9299 11.7812C68.4482 15.3024 71.2367 19.4801 73.1361 24.076C75.0355 28.6718 76.0086 33.5958 75.9999 38.5667ZM40.7202 6.41899C32.8433 3.64594 33.0092 17.8685 40.8095 14.7977C40.9796 14.7296 41.0562 14.6049 41.0391 14.4234L40.9498 13.2878C40.9463 13.2484 40.9335 13.2103 40.9125 13.1767C40.8915 13.1432 40.8629 13.1153 40.8291 13.0952C40.7953 13.0752 40.7573 13.0637 40.7184 13.0617C40.6794 13.0597 40.6406 13.0672 40.6053 13.0837C36.2033 15.1082 36.1906 8.35843 38.4702 7.92461C39.1082 7.80552 39.7986 7.84947 40.5415 8.05646C40.6719 8.09048 40.7726 8.05079 40.8435 7.93737C41.1015 7.5319 41.1526 7.11651 40.9966 6.6912C40.9484 6.55793 40.8563 6.4672 40.7202 6.41899ZM32.2309 6.98466C32.2239 6.95169 32.2103 6.92047 32.191 6.89286C32.1717 6.86525 32.147 6.84181 32.1184 6.82395C32.0898 6.80609 32.0579 6.79416 32.0246 6.78889C31.9914 6.78362 31.9573 6.78511 31.9246 6.79327L30.4743 7.1718C30.412 7.18793 30.3583 7.22739 30.3243 7.282C30.2902 7.33662 30.2785 7.40223 30.2914 7.46527L32.0267 15.5335C32.0337 15.5665 32.0473 15.5977 32.0666 15.6253C32.0859 15.6529 32.1106 15.6763 32.1392 15.6942C32.1678 15.7121 32.1997 15.724 32.233 15.7293C32.2662 15.7345 32.3003 15.733 32.333 15.7249L33.8386 15.3634C33.9027 15.3473 33.9578 15.3065 33.9921 15.25C34.0263 15.1934 34.0369 15.1257 34.0214 15.0614L32.2309 6.98466ZM50.303 11.9947C50.4389 11.5767 50.491 11.136 50.4565 10.6978C50.4221 10.2596 50.3016 9.83243 50.102 9.44077C49.9025 9.04911 49.6277 8.7006 49.2935 8.41513C48.9592 8.12965 48.572 7.91281 48.154 7.77698L47.2479 7.48258C46.4036 7.20826 45.4849 7.28057 44.6939 7.6836C43.903 8.08663 43.3045 8.78736 43.0302 9.63165L42.323 11.8079C42.1872 12.2259 42.135 12.6666 42.1695 13.1048C42.204 13.543 42.3245 13.9702 42.524 14.3618C42.7236 14.7535 42.9983 15.102 43.3326 15.3875C43.6668 15.6729 44.0541 15.8898 44.4721 16.0256L45.3782 16.32C46.2225 16.5943 47.1412 16.522 47.9321 16.119C48.7231 15.716 49.3216 15.0152 49.5959 14.1709L50.303 11.9947ZM20.7772 11.3144L24.4689 18.7233C24.5008 18.7862 24.5562 18.8339 24.6231 18.8562C24.6899 18.8785 24.7629 18.8736 24.8261 18.8424L27.7906 17.3666C28.6653 16.9299 29.3279 16.1578 29.6326 15.2198C29.9372 14.2819 29.8591 13.255 29.4153 12.3649L28.8326 11.191C28.6126 10.75 28.3094 10.356 27.9402 10.0314C27.571 9.70674 27.1432 9.45794 26.681 9.29916C26.2189 9.14038 25.7316 9.07474 25.247 9.10598C24.7623 9.13723 24.2898 9.26475 23.8564 9.48126L20.8962 10.9571C20.8334 10.989 20.7856 11.0444 20.7634 11.1113C20.7411 11.1782 20.746 11.2511 20.7772 11.3144ZM54.2409 14.1385C54.1563 13.9975 54.1213 13.8323 54.1415 13.6691C54.1617 13.506 54.236 13.3543 54.3525 13.2383C54.469 13.1223 54.621 13.0486 54.7842 13.0291C54.9475 13.0095 55.1126 13.0452 55.2532 13.1305C56.0017 13.5699 56.651 14.1299 57.2011 14.8104C57.2292 14.8449 57.2643 14.8729 57.3041 14.8925C57.3439 14.9122 57.3873 14.923 57.4314 14.9242C57.4755 14.9254 57.5193 14.917 57.5595 14.8996C57.5998 14.8821 57.6357 14.8561 57.6647 14.8232L58.4047 13.9896C58.5068 13.8762 58.5125 13.7599 58.4217 13.6408C56.8523 11.5185 52.9862 9.73219 52.1611 13.7514C52.1335 13.89 52.1483 14.0324 52.2036 14.1597C52.6332 15.155 54.6705 17.4346 53.3945 18.1577C53.3021 18.2095 53.1982 18.2371 53.0926 18.2379C52.9869 18.2386 52.883 18.2125 52.7906 18.1619C51.9031 17.6657 51.1985 16.9838 50.6768 16.1162C50.569 15.9347 50.4443 15.9234 50.3025 16.0821L49.5497 16.9328C49.4192 17.0802 49.4051 17.2376 49.5072 17.4049C50.7661 19.4634 53.5051 21.0711 55.4956 18.7701C56.8098 17.256 54.9639 15.3719 54.2409 14.1385ZM13.836 14.904L14.7504 15.3421C14.7809 15.3567 14.8159 15.3587 14.8478 15.3475C14.8797 15.3363 14.9059 15.313 14.9206 15.2825L14.9589 15.1975C15.0955 14.9124 15.2162 14.623 15.314 14.346C15.4119 14.069 15.4851 13.8098 15.5293 13.5831C15.5735 13.3564 15.588 13.1667 15.5718 13.0248C15.5557 12.8829 15.5093 12.7916 15.4352 12.7562L15.4224 12.7477C15.2727 12.6767 15.0197 12.837 14.7191 13.1935C14.4184 13.55 14.0947 14.0734 13.819 14.6488L13.7765 14.7339C13.7619 14.7644 13.7599 14.7994 13.7711 14.8313C13.7822 14.8632 13.8056 14.8893 13.836 14.904ZM13.5085 17.239C13.4791 17.2682 13.4557 17.303 13.4398 17.3414C13.4238 17.3797 13.4156 17.4208 13.4156 17.4623C13.4156 17.5038 13.4238 17.5449 13.4398 17.5832C13.4557 17.6215 13.4791 17.6563 13.5085 17.6856L19.3013 23.3933C19.3602 23.4515 19.4397 23.4841 19.5225 23.4841C19.6053 23.4841 19.6847 23.4515 19.7436 23.3933L23.5034 19.6165C23.5596 19.5612 23.593 19.4868 23.5969 19.408C23.6008 19.3292 23.5751 19.2519 23.5247 19.1912L22.8187 18.3491C22.7907 18.3156 22.756 18.2883 22.7169 18.2689C22.6778 18.2495 22.6351 18.2384 22.5915 18.2364C22.548 18.2344 22.5044 18.2415 22.4637 18.2573C22.423 18.273 22.386 18.297 22.3551 18.3278L19.8712 20.8074C19.842 20.8368 19.8072 20.8602 19.7689 20.8762C19.7305 20.8921 19.6895 20.9003 19.6479 20.9003C19.6064 20.9003 19.5653 20.8921 19.527 20.8762C19.4887 20.8602 19.4539 20.8368 19.4247 20.8074L18.4507 19.8164C18.4211 19.7865 18.3979 19.751 18.3823 19.712C18.3667 19.673 18.359 19.6312 18.3598 19.5892C18.3606 19.5472 18.3698 19.5057 18.3869 19.4673C18.404 19.4289 18.4285 19.3943 18.4592 19.3656L20.3518 17.558C20.3819 17.5293 20.4059 17.495 20.4226 17.4569C20.4393 17.4189 20.4483 17.378 20.449 17.3365C20.4498 17.2949 20.4424 17.2537 20.4272 17.2151C20.412 17.1764 20.3892 17.1412 20.3603 17.1114L19.6373 16.3628C19.6076 16.3317 19.5718 16.307 19.5321 16.2902C19.4925 16.2735 19.4498 16.265 19.4067 16.2654C19.3637 16.2658 19.3211 16.2751 19.2818 16.2925C19.2425 16.31 19.2071 16.3354 19.178 16.3671L17.4002 18.3108C17.3716 18.3424 17.337 18.3679 17.2984 18.3857C17.2597 18.4035 17.2179 18.4133 17.1753 18.4145C17.1328 18.4157 17.0905 18.4083 17.0509 18.3926C17.0113 18.377 16.9753 18.3535 16.9451 18.3235L16.0987 17.4942C16.0686 17.4649 16.0447 17.4298 16.0284 17.3911C16.012 17.3524 16.0036 17.3108 16.0036 17.2688C16.0036 17.2267 16.012 17.1852 16.0284 17.1464C16.0447 17.1077 16.0686 17.0727 16.0987 17.0434L18.4082 14.7934C18.439 14.7634 18.4634 14.7274 18.4798 14.6876C18.4962 14.6477 18.5043 14.605 18.5035 14.5619C18.5027 14.5189 18.493 14.4764 18.4752 14.4372C18.4573 14.3981 18.4316 14.3629 18.3996 14.3341L17.5703 13.5983C17.5109 13.545 17.4336 13.5163 17.3538 13.5179C17.2741 13.5194 17.1979 13.5512 17.1407 13.6068L13.5085 17.239ZM43.927 44.0806C47.8272 43.97 50.345 43.7191 52.8756 40.5717C52.9136 40.5231 52.963 40.4845 53.0193 40.4593C53.0756 40.4341 53.1373 40.4231 53.1989 40.4271L56.2399 40.6015C56.2767 40.6039 56.3126 40.6145 56.3448 40.6325C56.377 40.6506 56.4047 40.6757 56.4259 40.7059C56.4471 40.7361 56.4613 40.7707 56.4674 40.8071C56.4735 40.8435 56.4713 40.8808 56.461 40.9163C54.0665 49.0483 50.2855 55.1303 41.3666 56.5508C35.8801 57.4185 30.0277 55.8703 26.017 52.0552C15.1332 41.7031 20.6581 23.6612 35.5483 21.254C42.4767 20.1354 49.0861 23.2827 53.1776 28.8884C53.228 28.9555 53.292 29.0094 53.3648 29.0457C53.9403 29.3349 54.2281 29.2144 54.2281 28.6842C54.2281 28.5283 54.1728 28.3737 54.0623 28.2206C44.0291 14.2703 21.9298 18.8382 19.3353 36.0889C16.1667 57.1377 45.4709 66.7626 55.1596 47.8446C57.7455 42.8004 57.5541 34.7917 63.87 32.7545C63.9589 32.7255 64.0368 32.6702 64.0934 32.5958C64.15 32.5214 64.1825 32.4315 64.1867 32.3382C64.1908 32.2448 64.1664 32.1524 64.1167 32.0733C64.0669 31.9941 63.9942 31.9321 63.9083 31.8953C63.5766 31.7564 63.1853 31.7791 62.7344 31.9634C59.5105 33.2946 57.8858 35.9231 57.0225 39.2107C57.0112 39.2518 56.9903 39.2895 56.9613 39.3207C56.9323 39.3519 56.8962 39.3756 56.8561 39.3898C56.816 39.404 56.773 39.4083 56.7309 39.4023C56.6888 39.3963 56.6487 39.3802 56.6142 39.3553L54.4961 37.8157C54.394 37.7392 54.3359 37.6371 54.3217 37.5095C53.9687 34.3324 51.6082 32.2696 48.4694 32.3632C46.6575 32.4185 45.3263 33.4988 43.876 34.1452C43.8436 34.1594 43.8081 34.1652 43.7729 34.1622C43.7376 34.1592 43.7037 34.1475 43.6741 34.1281C43.6446 34.1086 43.6203 34.0821 43.6036 34.051C43.5868 34.0198 43.5781 33.985 43.5783 33.9496C43.6336 30.0325 44.0333 25.1924 38.6106 25.3497C36.3961 25.415 34.1746 25.5369 31.9459 25.7155C31.7616 25.7297 31.7219 25.8119 31.8268 25.9622C33.3239 28.1058 33.022 31.8571 33.1028 34.3707C33.1052 34.4419 33.08 34.5113 33.0324 34.5644C32.9849 34.6175 32.9186 34.6502 32.8476 34.6556C30.1171 34.847 27.3227 35.3616 24.7496 34.1282C24.5936 34.0517 24.5171 34.1013 24.5199 34.2771C24.5454 35.5133 24.5979 36.7468 24.6773 37.9773C24.8687 40.9418 24.7879 43.0045 27.2037 44.3741C28.8199 45.2885 31.4993 44.9014 33.4005 44.8079C33.5536 44.7994 33.6358 44.8717 33.6472 45.0248C33.9066 48.1253 34.1065 50.758 33.46 53.2546C33.426 53.3907 33.4799 53.4588 33.6217 53.4588C37.4155 53.4248 39.7859 53.2886 40.7329 53.0505C45.0626 51.9702 45.0881 47.8063 43.7356 44.3698C43.7234 44.3381 43.7189 44.304 43.7226 44.2702C43.7262 44.2365 43.7379 44.2041 43.7566 44.1758C43.7754 44.1475 43.8006 44.124 43.8303 44.1075C43.8599 44.0909 43.8931 44.0817 43.927 44.0806ZM13.9083 24.0695L17.5745 25.8346C17.7702 25.9282 17.9148 25.8771 18.0084 25.6815L18.5102 24.6225C18.601 24.4268 18.5485 24.2836 18.3529 24.1929L10.9779 20.7436C10.8248 20.6727 10.7071 20.711 10.6249 20.8584L9.84232 22.2662C9.76009 22.4165 9.77711 22.554 9.89336 22.6788L13.8956 26.9872C13.9205 27.0142 13.9366 27.0481 13.942 27.0845C13.9473 27.1209 13.9416 27.158 13.9255 27.1911C13.9095 27.2241 13.8838 27.2516 13.8519 27.2698C13.82 27.2881 13.7833 27.2963 13.7467 27.2934L7.9922 26.8724C7.92942 26.8673 7.86645 26.8812 7.8112 26.9122C7.75595 26.9433 7.7109 26.9901 7.68172 27.0467L6.91616 28.5779C6.83393 28.7395 6.87362 28.86 7.03524 28.9394L14.4485 32.4525C14.5162 32.4848 14.594 32.4891 14.6648 32.4644C14.7357 32.4397 14.794 32.388 14.827 32.3206L15.3672 31.2403C15.3832 31.2077 15.3926 31.1721 15.3948 31.1359C15.3971 31.0996 15.3921 31.0634 15.3802 31.0293C15.3683 30.9952 15.3497 30.9639 15.3256 30.9373C15.3014 30.9108 15.2722 30.8894 15.2396 30.8746L11.2586 29.0797C11.2102 29.0588 11.1712 29.0213 11.1485 28.9741C11.1258 28.9269 11.1209 28.8729 11.1347 28.8218C11.1485 28.7708 11.1801 28.7259 11.2238 28.6952C11.2675 28.6646 11.3206 28.6501 11.3735 28.6544L15.9371 29.084C16.1209 29.1002 16.3052 29.0598 16.4655 28.9683C16.6257 28.8768 16.7542 28.7386 16.8338 28.5721C16.9133 28.4056 16.9401 28.2188 16.9106 28.0367C16.8811 27.8545 16.7967 27.6857 16.6686 27.5529L13.6361 24.4438C13.0208 23.8115 13.1116 23.6868 13.9083 24.0695ZM65.9923 23.7973C63.6999 25.0648 62.5728 27.404 63.3724 29.9602C63.4631 30.255 63.6404 30.3217 63.904 30.16C66.2489 28.7395 67.0485 26.6625 66.3028 23.9292C66.2546 23.7534 66.1511 23.7094 65.9923 23.7973ZM60.4037 24.7628C58.4501 26.81 58.2162 29.0471 59.7019 31.4743C59.8097 31.6472 59.9344 31.66 60.0762 31.5125C62.0724 29.4654 62.3034 27.2282 60.7695 24.8011C60.6617 24.6338 60.5398 24.621 60.4037 24.7628ZM71.8915 28.5396C69.1071 27.8733 67.0471 28.7494 65.7116 31.168C65.5755 31.4176 65.6464 31.5721 65.9243 31.6316C68.703 32.2271 70.7431 31.3098 72.0446 28.8799C72.141 28.7012 72.0899 28.5878 71.8915 28.5396ZM71.1727 36.812C70.1732 34.3026 67.7064 32.9416 65.0311 33.6646C64.9206 33.6958 64.8894 33.7625 64.9376 33.8645C66.1029 36.4901 68.1288 37.5676 71.0153 37.0969C71.1854 37.0686 71.2379 36.9736 71.1727 36.812ZM66.3707 39.9764C66.5049 39.85 66.5801 39.6637 66.592 39.428C66.6039 39.1924 66.5524 38.9121 66.4403 38.6031C66.3282 38.2941 66.1578 37.9625 65.9388 37.6272C65.7197 37.292 65.4564 36.9595 65.1637 36.649C64.871 36.3384 64.5548 36.0558 64.2331 35.8173C63.9114 35.5787 63.5905 35.3889 63.2887 35.2587C62.9869 35.1285 62.7102 35.0604 62.4742 35.0584C62.2383 35.0563 62.0478 35.1203 61.9137 35.2467C61.7796 35.3731 61.7044 35.5595 61.6924 35.7951C61.6805 36.0307 61.732 36.311 61.8441 36.62C61.9562 36.929 62.1266 37.2606 62.3457 37.5959C62.5647 37.9312 62.8281 38.2636 63.1207 38.5741C63.4134 38.8847 63.7296 39.1673 64.0513 39.4059C64.373 39.6444 64.694 39.8342 64.9957 39.9644C65.2975 40.0946 65.5743 40.1627 65.8102 40.1648C66.0461 40.1668 66.2366 40.1028 66.3707 39.9764ZM13.6957 41.9583L5.6232 44.3188C5.56906 44.3346 5.5234 44.3712 5.49628 44.4207C5.46917 44.4701 5.4628 44.5283 5.47859 44.5825L6.40153 47.7383C6.67856 48.6828 7.30728 49.4822 8.14948 49.9607C8.99168 50.4393 9.97844 50.5578 10.8928 50.2902L12.475 49.8266C13.3898 49.5591 14.1573 48.9271 14.6087 48.0696C15.0602 47.2122 15.1586 46.1996 14.8823 45.2545L13.9594 42.0986C13.9427 42.0453 13.9057 42.0006 13.8563 41.9744C13.807 41.9481 13.7492 41.9423 13.6957 41.9583ZM67.9089 52.7697C68.1183 52.3807 68.2491 51.9542 68.2937 51.5147C68.3384 51.0752 68.296 50.6311 68.169 50.208C68.0421 49.7848 67.833 49.3908 67.5538 49.0484C67.2746 48.7061 66.9306 48.4221 66.5416 48.2126L64.497 47.1117C63.7114 46.6887 62.7899 46.5951 61.9353 46.8515C61.0807 47.1079 60.3629 47.6933 59.9399 48.4789L59.5165 49.2653C59.307 49.6543 59.1762 50.0807 59.1316 50.5202C59.0869 50.9598 59.1293 51.4038 59.2563 51.827C59.3832 52.2501 59.5923 52.6441 59.8715 52.9865C60.1508 53.3289 60.4947 53.6129 60.8837 53.8223L62.9283 54.9233C63.7139 55.3463 64.6354 55.4399 65.49 55.1835C66.3446 54.9271 67.0624 54.3417 67.4854 53.5561L67.9089 52.7697ZM11.6797 55.1983C11.6591 55.1683 11.6447 55.1345 11.6374 55.0988C11.63 55.0632 11.63 55.0264 11.6371 54.9907C11.6442 54.9551 11.6584 54.9212 11.6789 54.8911C11.6994 54.861 11.7257 54.8353 11.7562 54.8155L12.9854 54.0074C13.0453 53.9685 13.1182 53.9547 13.1882 53.969C13.2582 53.9833 13.3198 54.0246 13.3597 54.084L14.8865 56.3722C14.9066 56.4024 14.9326 56.4283 14.9628 56.4484C14.9931 56.4684 15.027 56.4822 15.0627 56.489C15.0984 56.4957 15.135 56.4952 15.1705 56.4876C15.206 56.48 15.2396 56.4653 15.2693 56.4445L16.1327 55.8405C16.1919 55.7993 16.2323 55.7363 16.245 55.6654C16.2578 55.5944 16.2419 55.5213 16.2008 55.462L14.6356 53.2291C14.6146 53.1996 14.5997 53.1663 14.5917 53.1309C14.5837 53.0956 14.5829 53.0591 14.5892 53.0234C14.5956 52.9878 14.609 52.9538 14.6286 52.9233C14.6483 52.8929 14.6738 52.8667 14.7037 52.8463L15.7202 52.1701C15.7498 52.1499 15.783 52.1358 15.8181 52.1285C15.8531 52.1213 15.8893 52.121 15.9244 52.1277C15.9596 52.1344 15.9931 52.148 16.023 52.1677C16.0529 52.1874 16.0786 52.2127 16.0987 52.2424L17.9701 55.0495C17.9902 55.0797 18.0161 55.1056 18.0464 55.1256C18.0766 55.1457 18.1106 55.1595 18.1462 55.1662C18.1819 55.173 18.2186 55.1725 18.254 55.1649C18.2895 55.1572 18.3231 55.1426 18.3529 55.1218L19.3438 54.4242C19.4025 54.3837 19.4429 54.3219 19.4564 54.2519C19.47 54.1819 19.4555 54.1094 19.4161 54.05L16.507 49.6735C16.4672 49.6141 16.4056 49.5728 16.3355 49.5585C16.2655 49.5442 16.1927 49.558 16.1327 49.5969L9.21286 54.118C9.18288 54.1378 9.15711 54.1632 9.13703 54.193C9.11694 54.2227 9.10294 54.2562 9.09582 54.2914C9.08871 54.3265 9.08862 54.3628 9.09557 54.398C9.10251 54.4332 9.11636 54.4667 9.1363 54.4965L12.1986 59.0559C12.2187 59.0868 12.2448 59.1132 12.2754 59.1336C12.306 59.1541 12.3404 59.1681 12.3766 59.1749C12.4128 59.1816 12.45 59.181 12.4859 59.1729C12.5218 59.1649 12.5557 59.1497 12.5856 59.1282L13.5553 58.4307C13.6133 58.3896 13.6529 58.3274 13.6656 58.2574C13.6783 58.1875 13.6631 58.1153 13.6234 58.0564L11.6797 55.1983ZM52.8374 58.0522L58.8045 63.9768C58.8207 63.993 58.84 64.0059 58.8611 64.0146C58.8823 64.0234 58.905 64.0279 58.9279 64.0279C58.9508 64.0279 58.9735 64.0234 58.9946 64.0146C59.0158 64.0059 59.035 63.993 59.0512 63.9768L61.484 61.5312C62.1608 60.849 62.5294 59.9164 62.5087 58.9385C62.488 57.9607 62.0796 57.0176 61.3734 56.3169L60.4803 55.428C59.7744 54.7272 58.8285 54.3258 57.8507 54.3123C56.8729 54.2987 55.9431 54.674 55.2659 55.3557L52.8374 57.8055C52.8212 57.8217 52.8083 57.8409 52.7995 57.8621C52.7908 57.8832 52.7863 57.9059 52.7863 57.9288C52.7863 57.9517 52.7908 57.9744 52.7995 57.9956C52.8083 58.0168 52.8212 58.036 52.8374 58.0522ZM20.4922 55.1898C20.4456 55.1522 20.3862 55.1343 20.3267 55.1399C20.2671 55.1455 20.212 55.174 20.1732 55.2196L14.7164 61.4589C14.696 61.4817 14.6804 61.5083 14.6704 61.5372C14.6604 61.5661 14.6562 61.5967 14.6582 61.6272C14.6602 61.6577 14.6683 61.6875 14.6819 61.7148C14.6955 61.7422 14.7145 61.7665 14.7377 61.7864L18.6251 65.1507C18.67 65.1898 18.7285 65.2099 18.788 65.2067C18.8475 65.2035 18.9035 65.1773 18.944 65.1337L19.8415 64.1852C19.8628 64.1626 19.8793 64.136 19.8901 64.1069C19.9008 64.0777 19.9055 64.0467 19.9039 64.0157C19.9023 63.9847 19.8945 63.9543 19.8808 63.9264C19.8671 63.8986 19.848 63.8737 19.8244 63.8535L17.4044 61.7524C17.3812 61.7325 17.3623 61.7081 17.3486 61.6808C17.335 61.6534 17.3269 61.6236 17.3249 61.5931C17.323 61.5626 17.3271 61.532 17.3371 61.5032C17.3471 61.4743 17.3627 61.4477 17.3831 61.4249L21.7001 56.4955C21.7202 56.4725 21.7356 56.4457 21.7452 56.4166C21.7549 56.3876 21.7586 56.3569 21.7563 56.3264C21.7539 56.2959 21.7454 56.2662 21.7314 56.239C21.7174 56.2118 21.698 56.1877 21.6746 56.168L20.4922 55.1898ZM48.8862 63.8322L54.3727 66.8307C54.5331 66.9186 54.7174 66.953 54.8987 66.9289C55.08 66.9049 55.2489 66.8236 55.3808 66.6969C55.5127 66.5702 55.6007 66.4047 55.6321 66.2246C55.6635 66.0444 55.6365 65.8589 55.5551 65.6951L52.0718 58.7242C52.0514 58.6832 52.0228 58.6467 51.9877 58.6171C51.9527 58.5875 51.9119 58.5652 51.8678 58.5517C51.8237 58.5382 51.7772 58.5337 51.7312 58.5385C51.6851 58.5433 51.6404 58.5573 51.5997 58.5796L50.6172 59.1367C50.4471 59.236 50.406 59.3721 50.4939 59.545L52.5439 63.577C52.5579 63.6065 52.5623 63.6398 52.5565 63.6721C52.5506 63.7043 52.5349 63.7338 52.5116 63.7562C52.4882 63.7786 52.4585 63.7927 52.4268 63.7964C52.3951 63.8002 52.3631 63.7933 52.3355 63.7769L47.2998 60.9826C47.1147 60.8789 46.9012 60.8374 46.6907 60.8641C46.4802 60.8909 46.2839 60.9844 46.1305 61.1311C45.9772 61.2777 45.875 61.4697 45.839 61.6788C45.8029 61.8879 45.8349 62.103 45.9303 62.2926L49.3668 69.2252C49.3843 69.2607 49.4088 69.2923 49.4389 69.3181C49.4689 69.3438 49.5039 69.3633 49.5416 69.3752C49.5793 69.3871 49.6191 69.3913 49.6585 69.3874C49.6979 69.3836 49.7361 69.3718 49.7708 69.3528L50.7831 68.8169C50.9759 68.7148 51.0227 68.5659 50.9234 68.3703L48.699 64.0151C48.685 63.9891 48.6798 63.9592 48.6843 63.93C48.6887 63.9008 48.7026 63.8738 48.7237 63.8531C48.7448 63.8325 48.7721 63.8193 48.8014 63.8155C48.8308 63.8117 48.8605 63.8176 48.8862 63.8322ZM30.7848 67.2602L30.0533 61.5653C30.0334 61.4122 29.9498 61.3143 29.8023 61.2718L28.1521 60.8082C27.9706 60.7572 27.8572 60.8224 27.8119 61.0039L25.8512 69.0125C25.8086 69.1912 25.8767 69.3017 26.0553 69.3443L27.2334 69.6207C27.4007 69.6604 27.5042 69.5966 27.5439 69.4293L28.5391 65.2017C28.5483 65.1543 28.5742 65.1117 28.6123 65.0819C28.6504 65.0521 28.6979 65.0372 28.7462 65.0398C28.7945 65.0424 28.8401 65.0623 28.8748 65.096C28.9094 65.1297 28.9307 65.1748 28.9347 65.223C29.0935 66.55 29.2338 67.9322 29.3557 69.3698C29.4096 70.0078 29.7612 70.3664 30.4105 70.4458C30.5319 70.4599 30.6549 70.4414 30.767 70.392C30.8791 70.3427 30.9762 70.2644 31.0485 70.1651L33.9024 66.231C33.9217 66.2075 33.9484 66.1911 33.9782 66.1846C34.008 66.178 34.0391 66.1817 34.0665 66.1949C34.094 66.2081 34.1162 66.2302 34.1296 66.2576C34.143 66.2849 34.1469 66.316 34.1405 66.3458L32.9624 70.6798C32.9057 70.8839 32.9794 71.0129 33.1836 71.0668L34.3915 71.3858C34.4274 71.3959 34.4651 71.3986 34.5022 71.3938C34.5393 71.3889 34.5752 71.3767 34.6076 71.3576C34.6401 71.3386 34.6686 71.3133 34.6914 71.283C34.7141 71.2528 34.7307 71.2183 34.7402 71.1816L36.6967 63.1687C36.7135 63.1005 36.7029 63.0284 36.6671 62.9679C36.6313 62.9075 36.5732 62.8635 36.5053 62.8455L34.9571 62.4414C34.7587 62.3904 34.5985 62.4485 34.4765 62.6158L31.1463 67.3496C31.1231 67.3824 31.0906 67.4075 31.0529 67.4216C31.0152 67.4356 30.9741 67.438 30.9351 67.4283C30.896 67.4187 30.8608 67.3975 30.834 67.3675C30.8072 67.3375 30.79 67.3001 30.7848 67.2602ZM43.3146 67.4771C43.5953 69.944 40.3927 70.0928 40.1885 67.9748C40.1205 67.2716 39.9021 65.5405 39.5335 62.7817C39.5052 62.5804 39.3903 62.4953 39.189 62.5265L37.8493 62.7519C37.665 62.7803 37.5827 62.8866 37.6026 63.0709C37.7841 64.758 37.9698 66.438 38.1598 68.1109C38.3979 70.2091 39.5193 71.2539 41.524 71.2454C44.3963 71.2313 45.6382 69.788 45.2497 66.9157C45.0371 65.3562 44.8273 63.784 44.6203 62.199C44.6096 62.1257 44.5712 62.0594 44.5132 62.0141C44.4553 61.9688 44.3823 61.9482 44.3098 61.9566L42.9573 62.1012C42.7418 62.1238 42.6497 62.2429 42.6809 62.4584C42.9134 64.1427 43.1246 65.8156 43.3146 67.4771Z" fill="#B6B9D9"/>
<path d="M40.9959 6.69055C41.1518 7.11587 41.1008 7.53126 40.8427 7.93672C40.7719 8.05014 40.6712 8.08984 40.5408 8.05581C39.7979 7.84882 39.1075 7.80487 38.4695 7.92396C36.1898 8.35778 36.2026 15.1075 40.6046 13.083C40.6399 13.0666 40.6787 13.059 40.7176 13.061C40.7566 13.0631 40.7946 13.0746 40.8284 13.0946C40.8621 13.1146 40.8908 13.1426 40.9118 13.1761C40.9328 13.2096 40.9456 13.2477 40.9491 13.2872L41.0384 14.4228C41.0554 14.6042 40.9788 14.729 40.8087 14.797C33.0085 17.8678 32.8426 3.6453 40.7194 6.41835C40.8555 6.46655 40.9477 6.55729 40.9959 6.69055Z" fill="white"/>
<path d="M32.2317 6.98499L34.0223 15.0617C34.0377 15.126 34.0271 15.1938 33.9929 15.2503C33.9587 15.3068 33.9035 15.3476 33.8394 15.3637L32.3338 15.7252C32.3011 15.7334 32.2671 15.7349 32.2338 15.7296C32.2005 15.7243 32.1686 15.7124 32.14 15.6945C32.1114 15.6767 32.0867 15.6532 32.0674 15.6256C32.0481 15.598 32.0345 15.5668 32.0275 15.5338L30.2923 7.4656C30.2793 7.40256 30.291 7.33695 30.3251 7.28233C30.3591 7.22771 30.4128 7.18826 30.4751 7.17213L31.9255 6.7936C31.9582 6.78544 31.9922 6.78395 32.0255 6.78922C32.0587 6.79449 32.0906 6.80641 32.1192 6.82428C32.1478 6.84214 32.1725 6.86557 32.1918 6.89319C32.2111 6.9208 32.2247 6.95202 32.2317 6.98499Z" fill="white"/>
<path d="M49.5969 14.1715C49.3225 15.0158 48.7241 15.7165 47.9331 16.1196C47.1421 16.5226 46.2234 16.5949 45.3791 16.3206L44.4731 16.0262C44.055 15.8904 43.6678 15.6735 43.3335 15.388C42.9993 15.1026 42.7245 14.7541 42.525 14.3624C42.3254 13.9707 42.205 13.5436 42.1705 13.1054C42.136 12.6672 42.1882 12.2265 42.324 11.8084L43.0311 9.63222C43.3054 8.78794 43.9039 8.0872 44.6949 7.68418C45.4859 7.28115 46.4045 7.20884 47.2488 7.48315L48.1549 7.77756C48.573 7.91339 48.9602 8.13023 49.2944 8.4157C49.6287 8.70118 49.9034 9.04969 50.103 9.44134C50.3025 9.833 50.423 10.2601 50.4575 10.6983C50.492 11.1365 50.4398 11.5773 50.304 11.9953L49.5969 14.1715ZM48.3422 11.332C48.4075 11.1347 48.4332 10.9265 48.418 10.7193C48.4028 10.5121 48.3469 10.3099 48.2535 10.1243C48.1602 9.93868 48.0312 9.77327 47.8739 9.63751C47.7166 9.50175 47.5341 9.39829 47.3368 9.33306L47.0219 9.2289C46.6235 9.09714 46.1891 9.12905 45.8142 9.31759C45.4393 9.50613 45.1547 9.83586 45.0229 10.2343L44.2857 12.4632C44.2205 12.6605 44.1948 12.8687 44.21 13.0759C44.2252 13.2831 44.2811 13.4853 44.3745 13.6709C44.4678 13.8566 44.5968 14.022 44.7541 14.1577C44.9114 14.2935 45.0939 14.3969 45.2911 14.4622L45.6061 14.5663C46.0045 14.6981 46.4389 14.6662 46.8138 14.4777C47.1886 14.2891 47.4733 13.9594 47.605 13.561L48.3422 11.332Z" fill="white"/>
<path d="M20.7776 11.3146C20.7464 11.2513 20.7415 11.1784 20.7638 11.1115C20.786 11.0446 20.8338 10.9892 20.8966 10.9573L23.8568 9.48148C24.2902 9.26497 24.7627 9.13745 25.2474 9.10621C25.732 9.07496 26.2193 9.1406 26.6814 9.29938C27.1436 9.45816 27.5714 9.70697 27.9406 10.0316C28.3098 10.3562 28.613 10.7503 28.833 11.1912L29.4157 12.3651C29.8595 13.2552 29.9376 14.2821 29.6329 15.22C29.3283 16.158 28.6657 16.9302 27.791 17.3668L24.8265 18.8427C24.7633 18.8738 24.6903 18.8787 24.6235 18.8565C24.5566 18.8342 24.5012 18.7864 24.4693 18.7236L20.7776 11.3146ZM23.423 12.1142L25.422 16.1462C25.4433 16.1897 25.473 16.2285 25.5093 16.2604C25.5457 16.2924 25.5881 16.3167 25.634 16.3322C25.6799 16.3476 25.7284 16.3538 25.7767 16.3503C25.825 16.3469 25.8721 16.3338 25.9154 16.312L26.8383 15.8527C27.2481 15.6484 27.5572 15.284 27.6976 14.8397C27.8379 14.3955 27.7981 13.9077 27.5868 13.4837L26.851 11.9993C26.6406 11.5752 26.2761 11.2492 25.8374 11.0929C25.3988 10.9366 24.922 10.9628 24.5118 11.1657L23.5889 11.6251C23.5021 11.668 23.436 11.7437 23.4049 11.8353C23.3738 11.927 23.3803 12.0273 23.423 12.1142Z" fill="white"/>
<path d="M47.3367 9.3324L47.0217 9.22823C46.1921 8.95387 45.2971 9.40398 45.0227 10.2336L44.2856 12.4626C44.0112 13.2922 44.4613 14.1872 45.2909 14.4615L45.6059 14.5657C46.4355 14.8401 47.3305 14.39 47.6048 13.5603L48.342 11.3313C48.6164 10.5017 48.1663 9.60677 47.3367 9.3324Z" fill="#B6B9D9"/>
<path d="M23.4223 12.1144C23.3796 12.0275 23.3731 11.9272 23.4041 11.8355C23.4352 11.7438 23.5014 11.6682 23.5882 11.6252L24.5111 11.1659C24.9213 10.9629 25.3981 10.9367 25.8367 11.093C26.2753 11.2494 26.6399 11.5754 26.8503 11.9995L27.5861 13.4839C27.7974 13.9079 27.8372 14.3956 27.6968 14.8399C27.5565 15.2842 27.2474 15.6485 26.8376 15.8529L25.9146 16.3122C25.8714 16.334 25.8243 16.347 25.776 16.3505C25.7277 16.354 25.6792 16.3478 25.6333 16.3324C25.5874 16.3169 25.545 16.2925 25.5086 16.2606C25.4722 16.2287 25.4425 16.1898 25.4213 16.1463L23.4223 12.1144Z" fill="#B6B9D9"/>
<path d="M54.2404 14.1382C54.9635 15.3716 56.8093 17.2558 55.4951 18.7699C53.5046 21.0709 50.7656 19.4632 49.5067 17.4047C49.4046 17.2374 49.4188 17.08 49.5492 16.9326L50.302 16.0819C50.4438 15.9231 50.5685 15.9345 50.6763 16.116C51.198 16.9836 51.9026 17.6655 52.7901 18.1617C52.8825 18.2123 52.9864 18.2384 53.0921 18.2377C53.1977 18.2369 53.3016 18.2093 53.394 18.1575C54.67 17.4344 52.6327 15.1547 52.2032 14.1595C52.1479 14.0322 52.133 13.8897 52.1606 13.7512C52.9857 9.73198 56.8519 11.5183 58.4213 13.6406C58.512 13.7597 58.5063 13.876 58.4043 13.9894L57.6642 14.823C57.6352 14.8559 57.5993 14.8819 57.5591 14.8994C57.5188 14.9168 57.4751 14.9252 57.431 14.924C57.3868 14.9228 57.3434 14.912 57.3036 14.8923C57.2638 14.8727 57.2287 14.8447 57.2006 14.8102C56.6505 14.1297 56.0012 13.5697 55.2527 13.1302C55.1121 13.045 54.947 13.0093 54.7838 13.0289C54.6205 13.0484 54.4685 13.1221 54.352 13.2381C54.2355 13.3541 54.1612 13.5057 54.141 13.6689C54.1208 13.8321 54.1558 13.9973 54.2404 14.1382Z" fill="white"/>
<path d="M13.8377 14.9043C13.8073 14.8896 13.784 14.8634 13.7728 14.8315C13.7616 14.7996 13.7636 14.7646 13.7782 14.7341L13.8207 14.6491C14.0964 14.0737 14.4201 13.5502 14.7208 13.1937C15.0215 12.8373 15.2744 12.6769 15.4242 12.7479L15.4369 12.7564C15.511 12.7919 15.5574 12.8832 15.5736 13.025C15.5897 13.1669 15.5752 13.3566 15.531 13.5833C15.4868 13.81 15.4136 14.0693 15.3158 14.3463C15.2179 14.6233 15.0972 14.9126 14.9606 15.1977L14.9223 15.2828C14.9076 15.3132 14.8814 15.3366 14.8495 15.3477C14.8176 15.3589 14.7826 15.357 14.7522 15.3423L13.8377 14.9043Z" fill="white"/>
<path d="M13.5089 17.2388L17.1411 13.6066C17.1983 13.551 17.2745 13.5192 17.3542 13.5176C17.434 13.5161 17.5113 13.5448 17.5707 13.5981L18.4001 14.3339C18.432 14.3627 18.4577 14.3978 18.4756 14.437C18.4935 14.4762 18.5031 14.5187 18.5039 14.5617C18.5047 14.6048 18.4966 14.6475 18.4802 14.6874C18.4638 14.7272 18.4394 14.7632 18.4086 14.7932L16.0991 17.0431C16.069 17.0725 16.0451 17.1075 16.0288 17.1462C16.0124 17.1849 16.004 17.2265 16.004 17.2686C16.004 17.3106 16.0124 17.3522 16.0288 17.3909C16.0451 17.4296 16.069 17.4646 16.0991 17.494L16.9455 18.3233C16.9757 18.3533 17.0117 18.3768 17.0513 18.3924C17.0909 18.408 17.1332 18.4155 17.1758 18.4143C17.2183 18.4131 17.2601 18.4033 17.2988 18.3855C17.3374 18.3676 17.3721 18.3422 17.4006 18.3106L19.1784 16.3669C19.2075 16.3352 19.2429 16.3098 19.2822 16.2923C19.3216 16.2748 19.3641 16.2656 19.4071 16.2652C19.4502 16.2648 19.4929 16.2733 19.5325 16.29C19.5722 16.3068 19.608 16.3315 19.6377 16.3626L20.3608 17.1112C20.3897 17.141 20.4124 17.1762 20.4276 17.2149C20.4428 17.2535 20.4502 17.2947 20.4495 17.3362C20.4487 17.3778 20.4397 17.4187 20.423 17.4567C20.4063 17.4947 20.3823 17.5291 20.3523 17.5578L18.4596 19.3654C18.4289 19.3941 18.4044 19.4287 18.3873 19.4671C18.3702 19.5055 18.361 19.547 18.3602 19.589C18.3594 19.631 18.3671 19.6728 18.3827 19.7118C18.3983 19.7508 18.4215 19.7863 18.4511 19.8162L19.4251 20.8072C19.4543 20.8366 19.4891 20.86 19.5274 20.8759C19.5657 20.8919 19.6068 20.9001 19.6484 20.9001C19.6899 20.9001 19.731 20.8919 19.7693 20.8759C19.8076 20.86 19.8424 20.8366 19.8716 20.8072L22.3555 18.3276C22.3864 18.2968 22.4234 18.2728 22.4641 18.257C22.5048 18.2413 22.5484 18.2342 22.592 18.2362C22.6356 18.2382 22.6783 18.2493 22.7174 18.2687C22.7565 18.2881 22.7911 18.3154 22.8191 18.3489L23.5251 19.191C23.5755 19.2516 23.6013 19.329 23.5973 19.4078C23.5934 19.4865 23.56 19.561 23.5038 19.6163L19.7441 23.3931C19.6851 23.4513 19.6057 23.4839 19.5229 23.4839C19.4401 23.4839 19.3606 23.4513 19.3017 23.3931L13.5089 17.6854C13.4795 17.6561 13.4561 17.6213 13.4402 17.583C13.4242 17.5447 13.416 17.5036 13.416 17.4621C13.416 17.4206 13.4242 17.3795 13.4402 17.3411C13.4561 17.3028 13.4795 17.268 13.5089 17.2388Z" fill="white"/>
<path d="M43.7363 44.3696C45.0888 47.8062 45.0633 51.97 40.7336 53.0503C39.7865 53.2885 37.4161 53.4246 33.6223 53.4586C33.4805 53.4586 33.4266 53.3906 33.4607 53.2545C34.1072 50.7579 33.9073 48.1252 33.6478 45.0246C33.6365 44.8715 33.5542 44.7992 33.4011 44.8077C31.5 44.9013 28.8205 45.2883 27.2043 44.3739C24.7885 43.0044 24.8693 40.9416 24.6779 37.9772C24.5985 36.7466 24.5461 35.5132 24.5206 34.2769C24.5177 34.1011 24.5943 34.0515 24.7502 34.1281C27.3234 35.3615 30.1177 34.8468 32.8482 34.6555C32.9193 34.65 32.9855 34.6173 33.0331 34.5642C33.0806 34.5111 33.1058 34.4417 33.1034 34.3705C33.0226 31.8569 33.3246 28.1056 31.8275 25.962C31.7226 25.8118 31.7622 25.7295 31.9466 25.7153C34.1752 25.5367 36.3968 25.4148 38.6112 25.3496C44.034 25.1922 43.6342 30.0323 43.5789 33.9494C43.5788 33.9848 43.5875 34.0197 43.6042 34.0508C43.621 34.082 43.6452 34.1085 43.6748 34.1279C43.7043 34.1473 43.7383 34.1591 43.7735 34.1621C43.8088 34.1651 43.8442 34.1592 43.8766 34.1451C45.3269 33.4986 46.6582 32.4183 48.47 32.363C51.6088 32.2694 53.9693 34.3322 54.3223 37.5093C54.3365 37.6369 54.3947 37.739 54.4967 37.8155L56.6148 39.3552C56.6493 39.38 56.6894 39.3961 56.7315 39.4021C56.7737 39.4081 56.8166 39.4039 56.8568 39.3896C56.8969 39.3754 56.933 39.3517 56.9619 39.3205C56.9909 39.2894 57.0119 39.2516 57.0231 39.2106C57.8865 35.9229 59.5112 33.2945 62.7351 31.9632C63.1859 31.7789 63.5772 31.7562 63.9089 31.8952C63.9949 31.9319 64.0676 31.994 64.1173 32.0731C64.167 32.1522 64.1915 32.2446 64.1873 32.338C64.1831 32.4314 64.1506 32.5212 64.094 32.5956C64.0374 32.67 63.9595 32.7254 63.8707 32.7543C57.5547 34.7916 57.7461 42.8002 55.1602 47.8445C45.4716 66.7625 16.1674 57.1376 19.336 36.0888C21.9304 18.838 44.0297 14.2701 54.0629 28.2204C54.1735 28.3736 54.2288 28.5281 54.2288 28.684C54.2288 29.2143 53.941 29.3348 53.3654 29.0456C53.2927 29.0093 53.2286 28.9554 53.1783 28.8882C49.0867 23.2825 42.4773 20.1352 35.549 21.2538C20.6587 23.6611 15.1339 41.7029 26.0177 52.0551C30.0284 55.8701 35.8807 57.4183 41.3673 56.5507C50.2861 55.1301 54.0672 49.0481 56.4617 40.9161C56.4719 40.8806 56.4741 40.8433 56.468 40.8069C56.4619 40.7705 56.4478 40.7359 56.4266 40.7057C56.4053 40.6755 56.3776 40.6504 56.3454 40.6324C56.3132 40.6143 56.2774 40.6037 56.2405 40.6014L53.1995 40.427C53.1379 40.4229 53.0763 40.4339 53.0199 40.4591C52.9636 40.4844 52.9143 40.523 52.8763 40.5716C50.3457 43.7189 47.8278 43.9698 43.9277 44.0804C43.8937 44.0815 43.8605 44.0908 43.8309 44.1073C43.8013 44.1239 43.776 44.1473 43.7573 44.1756C43.7385 44.2039 43.7269 44.2363 43.7232 44.2701C43.7195 44.3038 43.724 44.338 43.7363 44.3696ZM51.6599 36.748C51.6599 36.5472 51.5801 36.3547 51.4381 36.2127C51.2962 36.0707 51.1036 35.9909 50.9028 35.9909C50.702 35.9909 50.5095 36.0707 50.3675 36.2127C50.2255 36.3547 50.1458 36.5472 50.1458 36.748C50.1458 36.9488 50.2255 37.1414 50.3675 37.2833C50.5095 37.4253 50.702 37.5051 50.9028 37.5051C51.1036 37.5051 51.2962 37.4253 51.4381 37.2833C51.5801 37.1414 51.6599 36.9488 51.6599 36.748Z" fill="white"/>
<path d="M13.9088 24.0685C13.112 23.6857 13.0213 23.8105 13.6366 24.4428L16.6691 27.5518C16.7971 27.6847 16.8815 27.8535 16.9111 28.0356C16.9406 28.2177 16.9138 28.4046 16.8342 28.571C16.7547 28.7375 16.6262 28.8758 16.4659 28.9672C16.3057 29.0587 16.1213 29.0991 15.9375 29.0829L11.3739 28.6534C11.321 28.6491 11.268 28.6635 11.2242 28.6942C11.1805 28.7248 11.149 28.7697 11.1352 28.8208C11.1214 28.8718 11.1263 28.9258 11.149 28.973C11.1716 29.0203 11.2107 29.0577 11.2591 29.0787L15.24 30.8735C15.2726 30.8884 15.3019 30.9097 15.326 30.9363C15.3502 30.9629 15.3688 30.9941 15.3807 31.0282C15.3926 31.0623 15.3975 31.0986 15.3953 31.1348C15.393 31.1711 15.3836 31.2066 15.3676 31.2393L14.8274 32.3196C14.7944 32.387 14.7362 32.4386 14.6653 32.4633C14.5944 32.488 14.5167 32.4837 14.4489 32.4514L7.03568 28.9383C6.87406 28.8589 6.83436 28.7384 6.91659 28.5768L7.68216 27.0457C7.71134 26.989 7.75639 26.9422 7.81163 26.9112C7.86688 26.8801 7.92986 26.8663 7.99264 26.8713L13.7471 27.2924C13.7838 27.2953 13.8204 27.287 13.8523 27.2688C13.8842 27.2505 13.9099 27.2231 13.926 27.19C13.942 27.157 13.9478 27.1198 13.9424 27.0835C13.9371 27.0471 13.9209 27.0132 13.896 26.9861L9.89379 22.6777C9.77754 22.553 9.76053 22.4154 9.84276 22.2652L10.6253 20.8574C10.7076 20.7099 10.8252 20.6716 10.9783 20.7425L18.3533 24.1918C18.5489 24.2826 18.6014 24.4258 18.5107 24.6214L18.0088 25.6804C17.9152 25.8761 17.7706 25.9271 17.575 25.8335L13.9088 24.0685Z" fill="white"/>
<path d="M63.3714 29.9607C62.5718 27.4045 63.6989 25.0653 65.9913 23.7979C66.1501 23.71 66.2536 23.7539 66.3018 23.9297C67.0475 26.6631 66.2479 28.74 63.903 30.1606C63.6393 30.3222 63.4621 30.2555 63.3714 29.9607Z" fill="white"/>
<path d="M60.7686 24.7999C62.3025 27.227 62.0714 29.4642 60.0753 31.5114C59.9335 31.6588 59.8088 31.646 59.701 31.4731C58.2153 29.0459 58.4492 26.8088 60.4028 24.7616C60.5389 24.6198 60.6608 24.6326 60.7686 24.7999Z" fill="white"/>
<path d="M71.8934 28.5401C72.0919 28.5883 72.1429 28.7017 72.0465 28.8804C70.7451 31.3103 68.705 32.2276 65.9263 31.6321C65.6484 31.5726 65.5775 31.4181 65.7136 31.1685C67.0491 28.7499 69.109 27.8738 71.8934 28.5401Z" fill="white"/>
<path d="M65.0315 33.664C67.7068 32.941 70.1736 34.302 71.1731 36.8114C71.2383 36.973 71.1858 37.068 71.0157 37.0963C68.1292 37.567 66.1033 36.4895 64.938 33.8639C64.8898 33.7619 64.921 33.6952 65.0315 33.664Z" fill="white"/>
<path d="M63.1192 38.5742C64.3499 39.8802 65.805 40.508 66.3691 39.9764C66.9333 39.4448 66.3929 37.9551 65.1621 36.649C63.9313 35.3429 62.4763 34.7151 61.9121 35.2468C61.348 35.7784 61.8884 37.2681 63.1192 38.5742Z" fill="white"/>
<path d="M50.9035 37.5044C51.3217 37.5044 51.6606 37.1654 51.6606 36.7473C51.6606 36.3292 51.3217 35.9902 50.9035 35.9902C50.4854 35.9902 50.1465 36.3292 50.1465 36.7473C50.1465 37.1654 50.4854 37.5044 50.9035 37.5044Z" fill="#B6B9D9"/>
<path d="M13.6963 41.9581C13.7499 41.9421 13.8076 41.9479 13.8569 41.9742C13.9063 42.0004 13.9433 42.0451 13.96 42.0984L14.8829 45.2543C15.1592 46.1994 15.0608 47.212 14.6094 48.0694C14.1579 48.9269 13.3904 49.5589 12.4756 49.8264L10.8935 50.29C9.97905 50.5576 8.9923 50.4391 8.1501 49.9605C7.3079 49.482 6.67918 48.6826 6.40214 47.7381L5.47921 44.5823C5.46342 44.5281 5.46978 44.4699 5.4969 44.4205C5.52402 44.371 5.56967 44.3344 5.62382 44.3186L13.6963 41.9581ZM12.2162 44.4674L8.20973 45.586C8.06537 45.6267 7.94305 45.723 7.86968 45.8538C7.7963 45.9846 7.77787 46.1391 7.81844 46.2835L8.02684 47.0278C8.15994 47.5003 8.48272 47.8987 8.92441 48.1355C9.3661 48.3722 9.89066 48.4282 10.3831 48.291L11.7611 47.9082C12.2543 47.7705 12.6748 47.4502 12.93 47.0179C13.1852 46.5856 13.2543 46.0767 13.1221 45.603L12.9137 44.863C12.894 44.7911 12.8604 44.7238 12.8146 44.665C12.7689 44.6062 12.712 44.557 12.6471 44.5203C12.5823 44.4835 12.5109 44.4599 12.4369 44.4509C12.363 44.4418 12.288 44.4474 12.2162 44.4674Z" fill="white"/>
<path d="M12.2138 44.468C12.2855 44.448 12.3606 44.4424 12.4345 44.4515C12.5085 44.4605 12.5799 44.4841 12.6447 44.5209C12.7095 44.5576 12.7664 44.6068 12.8122 44.6656C12.8579 44.7245 12.8916 44.7917 12.9113 44.8636L13.1197 45.6036C13.2519 46.0773 13.1828 46.5863 12.9276 47.0186C12.6723 47.4509 12.2519 47.7711 11.7587 47.9088L10.3807 48.2916C9.88823 48.4288 9.36367 48.3729 8.92198 48.1361C8.48029 47.8993 8.15751 47.501 8.02442 47.0284L7.81601 46.2841C7.77544 46.1398 7.79387 45.9852 7.86725 45.8544C7.94062 45.7236 8.06294 45.6273 8.2073 45.5866L12.2138 44.468Z" fill="#B6B9D9"/>
<path d="M67.4863 53.5555C67.0633 54.3411 66.3455 54.9265 65.4909 55.1829C64.6363 55.4393 63.7148 55.3457 62.9292 54.9227L60.8845 53.8217C60.4955 53.6123 60.1516 53.3283 59.8724 52.9859C59.5932 52.6435 59.3841 52.2495 59.2571 51.8264C59.1302 51.4032 59.0878 50.9592 59.1325 50.5196C59.1771 50.0801 59.3079 49.6537 59.5173 49.2647L59.9408 48.4783C60.3638 47.6927 61.0815 47.1073 61.9362 46.8509C62.7908 46.5945 63.7122 46.6881 64.4978 47.1111L66.5425 48.212C66.9315 48.4215 67.2754 48.7055 67.5547 49.0479C67.8339 49.3902 68.043 49.7842 68.1699 50.2074C68.2969 50.6306 68.3392 51.0746 68.2946 51.5141C68.2499 51.9537 68.1192 52.3801 67.9097 52.7691L67.4863 53.5555ZM66.2393 52.1014C66.3336 51.9194 66.3912 51.7207 66.4087 51.5164C66.4262 51.3122 66.4033 51.1065 66.3413 50.9111C66.2793 50.7158 66.1795 50.5345 66.0475 50.3777C65.9154 50.2209 65.7538 50.0916 65.5718 49.9973L63.4648 48.9052C63.0973 48.7146 62.6691 48.6779 62.2745 48.8031C61.8799 48.9283 61.5512 49.2051 61.3607 49.5726L61.1963 49.8898C61.1019 50.0718 61.0444 50.2706 61.0269 50.4748C61.0093 50.679 61.0322 50.8847 61.0942 51.0801C61.1562 51.2755 61.2561 51.4567 61.3881 51.6135C61.5201 51.7703 61.6818 51.8996 61.8637 51.9939L63.9708 53.0861C64.3383 53.2766 64.7664 53.3133 65.161 53.1881C65.5556 53.063 65.8844 52.7862 66.0749 52.4186L66.2393 52.1014Z" fill="white"/>
<path d="M65.5709 49.997L63.4639 48.9049C62.6986 48.5081 61.7565 48.807 61.3598 49.5723L61.1954 49.8895C60.7987 50.6549 61.0975 51.5969 61.8629 51.9936L63.9699 53.0858C64.7352 53.4825 65.6773 53.1837 66.074 52.4183L66.2384 52.1011C66.6351 51.3358 66.3363 50.3937 65.5709 49.997Z" fill="#B6B9D9"/>
<path d="M11.6791 55.199L13.6228 58.0571C13.6626 58.1161 13.6777 58.1882 13.665 58.2581C13.6523 58.3281 13.6127 58.3903 13.5547 58.4314L12.585 59.1289C12.5552 59.1504 12.5212 59.1657 12.4853 59.1737C12.4494 59.1817 12.4122 59.1823 12.376 59.1756C12.3399 59.1688 12.3054 59.1548 12.2748 59.1343C12.2442 59.1139 12.2181 59.0875 12.198 59.0566L9.13572 54.4973C9.11578 54.4674 9.10194 54.4339 9.09499 54.3987C9.08804 54.3635 9.08813 54.3273 9.09525 54.2921C9.10236 54.2569 9.11636 54.2235 9.13645 54.1937C9.15654 54.164 9.18231 54.1385 9.21228 54.1187L16.1321 49.5976C16.1921 49.5587 16.2649 49.5449 16.335 49.5592C16.405 49.5736 16.4666 49.6149 16.5064 49.6742L19.4156 54.0507C19.4549 54.1101 19.4694 54.1826 19.4559 54.2526C19.4424 54.3226 19.4019 54.3845 19.3433 54.425L18.3523 55.1225C18.3226 55.1433 18.289 55.158 18.2535 55.1656C18.218 55.1732 18.1813 55.1737 18.1457 55.167C18.11 55.1602 18.076 55.1464 18.0458 55.1264C18.0155 55.1063 17.9896 55.0804 17.9695 55.0502L16.0981 52.2431C16.078 52.2135 16.0523 52.1881 16.0224 52.1684C15.9925 52.1487 15.959 52.1351 15.9239 52.1284C15.8887 52.1217 15.8526 52.122 15.8175 52.1293C15.7825 52.1365 15.7492 52.1506 15.7196 52.1708L14.7031 52.847C14.6732 52.8675 14.6477 52.8937 14.628 52.9241C14.6084 52.9545 14.595 52.9885 14.5887 53.0241C14.5823 53.0598 14.5832 53.0963 14.5911 53.1317C14.5991 53.167 14.614 53.2004 14.635 53.2298L16.2002 55.4627C16.2413 55.522 16.2572 55.5951 16.2445 55.6661C16.2317 55.737 16.1913 55.8 16.1321 55.8413L15.2688 56.4452C15.239 56.466 15.2054 56.4807 15.1699 56.4883C15.1345 56.496 15.0978 56.4964 15.0621 56.4897C15.0265 56.4829 14.9925 56.4691 14.9623 56.4491C14.932 56.429 14.9061 56.4031 14.886 56.3729L13.3591 54.0847C13.3193 54.0254 13.2577 53.9841 13.1876 53.9697C13.1176 53.9554 13.0448 53.9692 12.9848 54.0081L11.7557 54.8163C11.7251 54.836 11.6988 54.8617 11.6783 54.8918C11.6579 54.9219 11.6437 54.9558 11.6365 54.9915C11.6294 55.0272 11.6295 55.0639 11.6368 55.0996C11.6441 55.1352 11.6585 55.169 11.6791 55.199Z" fill="white"/>
<path d="M52.8382 58.0528C52.822 58.0366 52.8092 58.0173 52.8004 57.9962C52.7916 57.975 52.7871 57.9523 52.7871 57.9294C52.7871 57.9065 52.7916 57.8838 52.8004 57.8627C52.8092 57.8415 52.822 57.8223 52.8382 57.8061L55.2668 55.3563C55.944 54.6746 56.8737 54.2993 57.8516 54.3129C58.8294 54.3264 59.7752 54.7277 60.4811 55.4286L61.3743 56.3175C62.0804 57.0182 62.4888 57.9612 62.5096 58.9391C62.5303 59.917 62.1617 60.8496 61.4849 61.5318L59.0521 63.9774C59.0359 63.9936 59.0166 64.0064 58.9955 64.0152C58.9743 64.024 58.9516 64.0285 58.9287 64.0285C58.9058 64.0285 58.8831 64.024 58.862 64.0152C58.8408 64.0064 58.8216 63.9936 58.8054 63.9774L52.8382 58.0528ZM55.5602 57.9592L58.8904 61.2341C58.9476 61.2896 59.0243 61.3204 59.104 61.3196C59.1836 61.3188 59.2598 61.2865 59.3158 61.2299L60.1281 60.4047C60.4354 60.0918 60.6018 59.6657 60.5906 59.2198C60.5794 58.774 60.3917 58.3451 60.0686 58.0272L58.7458 56.7258C58.4223 56.4086 57.9902 56.2287 57.5444 56.2255C57.0987 56.2223 56.6757 56.3961 56.3683 56.7088L55.556 57.5339C55.5004 57.591 55.4697 57.6677 55.4705 57.7474C55.4713 57.8271 55.5036 57.9032 55.5602 57.9592Z" fill="white"/>
<path d="M20.4907 55.1896L21.6731 56.1678C21.6966 56.1874 21.7159 56.2116 21.7299 56.2388C21.7439 56.2659 21.7524 56.2957 21.7548 56.3262C21.7571 56.3567 21.7534 56.3874 21.7437 56.4164C21.7341 56.4455 21.7188 56.4723 21.6986 56.4953L17.3817 61.4247C17.3612 61.4474 17.3456 61.474 17.3356 61.5029C17.3256 61.5318 17.3215 61.5624 17.3235 61.5929C17.3254 61.6234 17.3335 61.6532 17.3471 61.6806C17.3608 61.7079 17.3797 61.7323 17.4029 61.7522L19.823 63.8532C19.8465 63.8735 19.8657 63.8983 19.8793 63.9262C19.893 63.9541 19.9008 63.9845 19.9024 64.0155C19.904 64.0465 19.8993 64.0775 19.8886 64.1066C19.8778 64.1358 19.8613 64.1624 19.84 64.185L18.9426 65.1334C18.902 65.1771 18.846 65.2033 18.7865 65.2065C18.727 65.2097 18.6686 65.1896 18.6236 65.1505L14.7362 61.7862C14.713 61.7663 14.6941 61.7419 14.6804 61.7146C14.6668 61.6872 14.6587 61.6574 14.6567 61.6269C14.6548 61.5964 14.6589 61.5658 14.6689 61.537C14.6789 61.5081 14.6945 61.4815 14.7149 61.4587L20.1717 55.2194C20.2105 55.1738 20.2656 55.1452 20.3252 55.1397C20.3847 55.1341 20.4441 55.152 20.4907 55.1896Z" fill="white"/>
<path d="M55.5585 57.9584C55.5018 57.9024 55.4696 57.8263 55.4688 57.7466C55.468 57.6669 55.4987 57.5902 55.5542 57.5331L56.3666 56.7079C56.6739 56.3953 57.0969 56.2215 57.5427 56.2247C57.9885 56.2278 58.4206 56.4078 58.7441 56.725L60.0668 58.0264C60.3899 58.3443 60.5777 58.7732 60.5889 59.219C60.6 59.6648 60.4337 60.091 60.1264 60.4039L59.314 61.229C59.258 61.2857 59.1819 61.318 59.1022 61.3187C59.0226 61.3195 58.9458 61.2888 58.8887 61.2333L55.5585 57.9584Z" fill="#B6B9D9"/>
<path d="M48.6987 64.0146L50.9231 68.3698C51.0224 68.5654 50.9756 68.7143 50.7828 68.8164L49.7705 69.3523C49.7358 69.3713 49.6976 69.383 49.6582 69.3869C49.6188 69.3907 49.579 69.3866 49.5413 69.3747C49.5035 69.3627 49.4686 69.3433 49.4385 69.3175C49.4085 69.2918 49.384 69.2602 49.3665 69.2247L45.9299 62.292C45.8346 62.1025 45.8026 61.8874 45.8386 61.6783C45.8747 61.4692 45.9769 61.2772 46.1302 61.1306C46.2835 60.9839 46.4799 60.8903 46.6904 60.8636C46.9008 60.8369 47.1143 60.8784 47.2994 60.9821L52.3352 63.7764C52.3628 63.7928 52.3948 63.7996 52.4265 63.7959C52.4582 63.7922 52.4879 63.7781 52.5112 63.7557C52.5346 63.7333 52.5503 63.7038 52.5561 63.6716C52.562 63.6393 52.5576 63.606 52.5436 63.5765L50.4936 59.5445C50.4057 59.3715 50.4468 59.2354 50.6169 59.1362L51.5994 58.579C51.6401 58.5567 51.6848 58.5428 51.7308 58.538C51.7769 58.5332 51.8234 58.5377 51.8675 58.5512C51.9115 58.5647 51.9523 58.5869 51.9874 58.6166C52.0225 58.6462 52.0511 58.6826 52.0715 58.7237L55.5548 65.6946C55.6362 65.8584 55.6631 66.0438 55.6318 66.224C55.6004 66.4042 55.5124 66.5697 55.3805 66.6964C55.2486 66.8231 55.0797 66.9044 54.8984 66.9284C54.7171 66.9525 54.5328 66.9181 54.3724 66.8301L48.8859 63.8317C48.8602 63.8171 48.8304 63.8112 48.8011 63.815C48.7718 63.8187 48.7445 63.832 48.7234 63.8526C48.7022 63.8733 48.6884 63.9002 48.684 63.9295C48.6795 63.9587 48.6847 63.9885 48.6987 64.0146Z" fill="white"/>
<path d="M30.7858 67.2598C30.791 67.2997 30.8081 67.3371 30.8349 67.3671C30.8617 67.3971 30.897 67.4183 30.936 67.4279C30.9751 67.4376 31.0161 67.4352 31.0538 67.4212C31.0915 67.4071 31.1241 67.382 31.1473 67.3492L34.4775 62.6154C34.5994 62.4481 34.7596 62.39 34.9581 62.441L36.5062 62.8451C36.5742 62.8631 36.6323 62.9071 36.6681 62.9675C36.7039 63.028 36.7145 63.1001 36.6976 63.1683L34.7412 71.1812C34.7317 71.218 34.7151 71.2524 34.6923 71.2826C34.6695 71.3129 34.6411 71.3382 34.6086 71.3572C34.5761 71.3763 34.5403 71.3885 34.5032 71.3934C34.466 71.3982 34.4284 71.3955 34.3924 71.3854L33.1845 71.0664C32.9804 71.0125 32.9067 70.8835 32.9634 70.6794L34.1415 66.3454C34.1478 66.3156 34.144 66.2845 34.1306 66.2572C34.1171 66.2298 34.0949 66.2078 34.0675 66.1945C34.04 66.1813 34.0089 66.1776 33.9792 66.1842C33.9494 66.1907 33.9227 66.2071 33.9033 66.2306L31.0495 70.1647C30.9772 70.264 30.88 70.3423 30.7679 70.3916C30.6558 70.441 30.5328 70.4595 30.4115 70.4454C29.7622 70.3661 29.4106 70.0074 29.3567 69.3694C29.2348 67.9318 29.0944 66.5496 28.9356 65.2226C28.9317 65.1744 28.9104 65.1293 28.8757 65.0956C28.8411 65.062 28.7954 65.042 28.7471 65.0394C28.6989 65.0368 28.6513 65.0518 28.6133 65.0815C28.5752 65.1113 28.5492 65.1539 28.5401 65.2013L27.5449 69.4289C27.5052 69.5962 27.4017 69.66 27.2344 69.6203L26.0563 69.3439C25.8776 69.3014 25.8096 69.1908 25.8521 69.0121L27.8128 61.0035C27.8582 60.822 27.9716 60.7568 28.1531 60.8078L29.8033 61.2714C29.9507 61.3139 30.0344 61.4118 30.0542 61.5649L30.7858 67.2598Z" fill="white"/>
<path d="M40.1884 67.9751C40.3926 70.0932 43.5952 69.9443 43.3145 67.4775C43.1245 65.8159 42.9133 64.143 42.6808 62.4588C42.6496 62.2433 42.7417 62.1242 42.9572 62.1015L44.3097 61.9569C44.3822 61.9485 44.4552 61.9692 44.5132 62.0144C44.5711 62.0597 44.6095 62.126 44.6202 62.1993C44.8272 63.7843 45.037 65.3566 45.2497 66.9161C45.6381 69.7884 44.3962 71.2316 41.5239 71.2458C39.5193 71.2543 38.3978 70.2094 38.1597 68.1112C37.9697 66.4383 37.784 64.7583 37.6025 63.0712C37.5827 62.8869 37.6649 62.7806 37.8492 62.7522L39.1889 62.5268C39.3902 62.4956 39.5051 62.5807 39.5334 62.782C39.902 65.5409 40.1204 67.2719 40.1884 67.9751Z" fill="white"/>
</svg>
